<?xml version="1.0" standalone="no"?>
<!DOCTYPE svg PUBLIC "-//W3C//DTD SVG 1.1//EN" "http://www.w3.org/Graphics/SVG/1.1/DTD/svg11.dtd" >
<svg>
<metadata>
Created by FontForge 20090622 at Tue Jul 28 14:49:14 2015
 By deploy user
Copyright (c) 2002, 2005 Parachute&#194;&#168;, www.parachute.gr.  All rights reserved.
</metadata>
<defs>
<font id="PFDinTextCondPro-Regular" horiz-adv-x="1818" >
  <font-face 
    font-family="PF Din Text Cond Pro"
    font-weight="400"
    font-stretch="normal"
    units-per-em="1000"
    panose-1="2 0 0 0 0 0 0 0 0 0"
    ascent="750"
    descent="-250"
    x-height="494"
    cap-height="696"
    bbox="-156 -254 1760 936"
    underline-thickness="50"
    underline-position="-50"
    unicode-range="U+0020-U+FB05"
  />
<missing-glyph horiz-adv-x="440" 
d="M0 700h440v-700h-440v700zM360 650h-280l140 -255zM390 95v510l-140 -255zM360 50l-140 255l-140 -255h280zM50 95l140 255l-140 255v-510z" />
    <glyph glyph-name="ff" unicode="ff" horiz-adv-x="484" 
d="M230 723q27 0 49.5 -5t42.5 -14q16 17 39 25.5t51 8.5h55v-75h-44q-28 0 -38.5 -16t-10.5 -40v-113h91v-66h-91v-428h-81v428h-140v-428h-81v428h-56v66h56v81q0 40 12.5 68t34 46t50.5 26t61 8zM293 494v113v12t1 14q-27 14 -64 14q-41 0 -59 -19.5t-18 -52.5v-81h140z
" />
    <glyph glyph-name="fi" unicode="fi" horiz-adv-x="435" 
d="M296 0v428h-142v-428h-82v428h-55v67h55v90q0 40 12.5 68.5t34.5 46.5t50.5 26t60.5 8q96 0 148 -58l-52 -56q-32 37 -96 37q-40 0 -58 -19t-18 -53v-90h223v-495h-81z" />
    <glyph glyph-name="fl" unicode="fl" horiz-adv-x="464" 
d="M418 -3q-59 0 -90.5 25t-31.5 93v535q-21 6 -36 8t-31 2q-40 0 -57.5 -20t-17.5 -58v-87h92v-67h-92v-428h-82v428h-55v67h55v90q0 40 12 69t33.5 47.5t50.5 27t62 8.5q19 0 56 -4.5t91 -21.5v-585q0 -28 10.5 -42t38.5 -14h18v-73h-26z" />
    <glyph glyph-name="ffi" unicode="ffi" horiz-adv-x="661" 
d="M517 0v428h-141v-428h-82v428h-140v-428h-82v428h-55v67h55v81q0 40 12.5 68t34.5 46t50.5 26t60.5 8q30 0 55.5 -6.5t45.5 -17.5q22 22 53 31.5t68 9.5q98 0 149 -57l-53 -56q-32 37 -96 37q-40 0 -58 -19.5t-18 -52.5v-98h223v-495h-82zM230 647q-40 0 -58 -19t-18 -53
v-80h140v98q0 19 3 36q-14 8 -30.5 13t-36.5 5z" />
    <glyph glyph-name="ffl" unicode="ffl" horiz-adv-x="685" 
d="M230 723q26 0 53.5 -5.5t49.5 -17.5q22 21 52 31t66 10q19 0 56.5 -4.5t90.5 -21.5v-589q0 -28 10.5 -42t38.5 -14h18v-73h-25q-59 0 -91 25t-32 93v539q-21 6 -35.5 8t-30.5 2q-41 0 -58.5 -20t-17.5 -58v-91h91v-67h-91v-428h-81v428h-140v-428h-82v428h-55v67h55v80
q0 40 12.5 68t34.5 46t50.5 26t60.5 8zM230 647q-40 0 -58 -19.5t-18 -52.5v-80h140v94q0 11 1 21t3 20q-30 17 -68 17z" />
    <glyph glyph-name="ft" unicode="ft" horiz-adv-x="473" 
d="M154 428v-428h-82v428h-55v67h55v112q0 62 33.5 92t86.5 30h52v-75h-41q-28 0 -38.5 -16.5t-10.5 -40.5v-102h141v126h81v-126h70v-67h-70v-293q0 -30 12 -45.5t39 -15.5h27v-74h-45q-57 0 -85.5 32.5t-28.5 80.5v315h-141z" />
    <glyph glyph-name="fj" unicode="fj" horiz-adv-x="435" 
d="M72 495v90q0 40 12.5 68.5t34.5 46.5t50.5 26t60.5 8q96 0 148 -58l-52 -56q-32 37 -96 37q-40 0 -58 -19t-18 -53v-90h223v-563q0 -28 -8 -52.5t-23.5 -42.5t-39.5 -28t-57 -10h-30v75h11.5t10.5 1q30 0 42.5 16.5t12.5 45.5v491h-142v-428h-82v428h-55v67h55z" />
    <glyph glyph-name="ffj" unicode="ffj" horiz-adv-x="661" 
d="M376 495h223v-563q0 -28 -8 -52.5t-24 -42.5t-40 -28t-57 -10h-30v75h11.5t10.5 1q31 0 43 18t12 53v482h-141v-428h-82v428h-140v-428h-82v428h-55v67h55v81q0 40 12.5 68t34.5 46t50.5 26t60.5 8q30 0 55.5 -6.5t45.5 -17.5q22 22 53 31.5t68 9.5q98 0 148 -57l-52 -56
q-16 17 -40 27t-56 10q-40 0 -58 -19.5t-18 -52.5v-98zM230 647q-40 0 -58 -19t-18 -53v-80h140v98q0 22 4 38q-30 16 -68 16z" />
    <glyph glyph-name=".notdef" horiz-adv-x="440" 
d="M0 700h440v-700h-440v700zM360 650h-280l140 -255zM390 95v510l-140 -255zM360 50l-140 255l-140 -255h280zM50 95l140 255l-140 255v-510z" />
    <glyph glyph-name="quotedbl" unicode="&#x22;" horiz-adv-x="280" 
d="M168 498v198h62v-198h-62zM50 498v198h62v-198h-62z" />
    <glyph glyph-name="numbersign" unicode="#" horiz-adv-x="440" 
d="M11 275h86l24 151h-77v55h86l35 216h57l-35 -216h100l35 216h57l-36 -216h81v-55h-90l-24 -151h81v-55h-90l-35 -220h-57l35 220h-100l-35 -220h-57l36 220h-77v55zM153 275h100l25 151h-100z" />
    <glyph glyph-name="dollar" unicode="$" horiz-adv-x="440" 
d="M200 -5q-64 4 -108 37.5t-65 80.5l66 41q14 -31 40 -54.5t67 -28.5v247q-82 31 -121.5 73.5t-39.5 115.5q0 78 42 129.5t119 58.5v81h44v-81q63 -5 102.5 -36t55.5 -68l-67 -44q-13 29 -35.5 47.5t-55.5 23.5v-229q47 -11 78.5 -29t50 -43t26.5 -57t8 -71
q0 -85 -41 -136.5t-122 -57.5v-100h-44v100zM325 188q0 25 -5 43.5t-15.5 31.5t-25.5 22.5t-35 17.5v-231q46 7 63.5 38.5t17.5 77.5zM122 506q0 -38 20 -61t58 -40v214q-40 -7 -59 -38t-19 -75z" />
    <glyph glyph-name="percent" unicode="%" horiz-adv-x="640" 
d="M159 -17h-56l369 731h57zM265 382q0 -50 -33 -78.5t-80 -28.5t-80 28.5t-33 78.5v210q0 49 32.5 78t80.5 29q49 0 81 -29t32 -78v-210zM202 592q0 21 -13.5 35t-36.5 14t-36.5 -14t-13.5 -35v-210q0 -23 13.5 -36.5t36.5 -13.5t36.5 13.5t13.5 36.5v210zM602 99
q0 -25 -9 -44t-25 -32t-36.5 -20t-42.5 -7q-23 0 -43 7t-36 20t-25 32t-9 44v218q0 24 9 43.5t25 32.5t36 20t43 7q22 0 42.5 -7t36.5 -20t25 -32.5t9 -43.5v-218zM539 317q0 21 -13.5 33t-36.5 12t-36.5 -12t-13.5 -33v-218q0 -23 13.5 -34.5t36.5 -11.5t36.5 11.5
t13.5 34.5v218z" />
    <glyph glyph-name="ampersand" unicode="&#x26;" horiz-adv-x="548" 
d="M387 65q-36 -38 -77 -54.5t-86 -16.5q-40 0 -71.5 13.5t-53 36.5t-33 55t-11.5 69q0 64 30.5 113t91.5 96q-12 20 -25 39.5t-23 40.5t-16.5 43t-6.5 47q0 33 10.5 61.5t30.5 49.5t49.5 33t67.5 12q46 0 83 -15.5t64 -52.5l-58 -48q-23 25 -42.5 33.5t-48.5 8.5
q-40 0 -58.5 -25t-18.5 -56q0 -18 10.5 -44t27.5 -56t38.5 -63l44.5 -65.5l45 -64l40 -57.5q14 28 20.5 55t11.5 56l75 -6q-6 -43 -20 -88.5t-38 -86.5l43.5 -64.5l44.5 -63.5h-95zM346 125l-64 96l-65 96q-40 -32 -61.5 -67t-21.5 -77q0 -44 26 -74.5t75 -30.5
q32 0 62.5 17.5t48.5 39.5z" />
    <glyph glyph-name="quoteright" unicode="&#x2019;" horiz-adv-x="223" 
d="M109 503h-47l28 113h-25v104h96v-102z" />
    <glyph glyph-name="parenleft" unicode="(" horiz-adv-x="250" 
d="M204 -115q-32 40 -61 87t-51.5 100t-35.5 111.5t-13 121.5q0 64 12.5 122.5t34.5 111t50.5 99t60.5 86.5l42 -23q-27 -41 -49 -88.5t-37.5 -98.5t-24 -103t-8.5 -102q0 -109 33 -212.5t85 -184.5l-38 -27v0z" />
    <glyph glyph-name="parenright" unicode=")" horiz-adv-x="250" 
d="M28 -88q26 40 48 86.5t37.5 97.5t24 105t8.5 108q0 50 -8.5 102t-24 102.5t-37.5 98t-49 88.5l21 12t21 11q32 -40 60.5 -86.5t50.5 -99t34.5 -111t12.5 -122.5q0 -63 -13 -121t-35.5 -111t-51.5 -100t-61 -87z" />
    <glyph glyph-name="asterisk" unicode="*" horiz-adv-x="356" 
d="M289 442l-11 -8.5t-15.5 -11t-15.5 -11l-11 -8.5l-61 102l-13 -20.5l-18.5 -30.5l-18 -30.5l-12.5 -21.5l-11.5 8.5l-15.5 11.5t-15.5 11t-10.5 8l77 92q-7 2 -23 6l-33 8.5l-32.5 8.5t-22.5 6q1 4 3.5 12.5l5.5 18l5.5 18t4.5 13.5l107 -45q0 7 -1.5 24l-3 35.5t-3 35
t-1.5 24.5h64l-10 -119l22 9l31.5 13l31.5 13.5l22 9.5q1 -5 4 -13.5t6 -18t6 -18t4 -12.5l-112 -29z" />
    <glyph glyph-name="plus" unicode="+" horiz-adv-x="440" 
d="M251 263v-178h-61v178h-171v62h171v177h61v-177h170v-62h-170z" />
    <glyph glyph-name="comma" unicode="," horiz-adv-x="223" 
d="M104 -116h-47l28 112h-25v104h95v-102z" />
    <glyph glyph-name="hyphen" unicode="-" horiz-adv-x="369" 
d="M51 222v71h273v-71h-273z" />
    <glyph glyph-name="period" unicode="." horiz-adv-x="218" 
d="M61 0v101h95v-101h-95z" />
    <glyph glyph-name="slash" unicode="/" horiz-adv-x="287" 
d="M65 -42h-63l219 767h63z" />
    <glyph glyph-name="zero" unicode="0" horiz-adv-x="440" 
d="M388 159q0 -40 -14 -71t-37 -52t-53.5 -31.5t-63.5 -10.5t-63 10.5t-53.5 31.5t-37 52t-13.5 71v377q0 40 13.5 71t37 52t53.5 32t63 11t63.5 -11t53.5 -32t37 -52t14 -71v-377zM307 536q0 42 -24 65t-63 23t-63 -23t-24 -65v-377q0 -42 24 -64.5t63 -22.5t63 22.5
t24 64.5v377z" />
    <glyph glyph-name="one" unicode="1" horiz-adv-x="440" 
d="M290 0h-81v611l-96 -73l1 86l94 72h82v-696z" />
    <glyph glyph-name="two" unicode="2" horiz-adv-x="440" 
d="M218 625q-40 -1 -62.5 -30.5t-25.5 -83.5l-82 13q6 81 51 129t121 48q79 0 124 -43t45 -122q0 -36 -12 -74.5t-35 -73.5l-199 -311h238v-77h-334v75l225 352q17 26 23.5 56t6.5 52q0 17 -4 33t-14 29t-26 20.5t-40 7.5z" />
    <glyph glyph-name="three" unicode="3" horiz-adv-x="440" 
d="M130 162q6 -41 24 -66.5t62 -25.5q50 0 71.5 36.5t21.5 90.5q0 130 -95 130h-41v70h37q50 0 72.5 28t22.5 82q0 22 -4 43.5t-14 38t-27 26.5t-42 10q-23 0 -38 -7.5t-24.5 -20.5t-14 -30t-7.5 -36l-80 13q4 33 16 62t32.5 50.5t48.5 33.5t66 12q51 0 83.5 -15.5
t51.5 -41.5t26.5 -61t7.5 -75q0 -20 -3 -41.5t-11.5 -41.5t-23.5 -36.5t-39 -25.5q27 -6 43 -20.5t24.5 -35.5t11 -47.5t2.5 -56.5q0 -45 -9 -83.5t-30 -66.5t-55 -44t-84 -16q-31 0 -59 9.5t-50 28.5t-36.5 47.5t-17.5 66.5z" />
    <glyph glyph-name="four" unicode="4" horiz-adv-x="440" 
d="M360 106v-106h-80v106h-254v78l193 512h84l-194 -514h171v199h80v-199h53v-76h-53z" />
    <glyph glyph-name="five" unicode="5" horiz-adv-x="440" 
d="M244 457q48 0 76.5 -18t43.5 -47.5t19 -67.5t4 -78q0 -61 -7.5 -108t-26.5 -79t-53 -48.5t-86 -16.5q-150 0 -170 155l81 13q5 -46 25 -70.5t65 -24.5q33 0 51.5 16t27.5 41t10.5 56t1.5 61q0 26 -2 51.5t-10.5 46t-25.5 33.5t-47 13q-28 0 -48 -13.5t-33 -36.5h-75v361
h316v-75h-243l3 -202q24 23 50 30.5t53 7.5z" />
    <glyph glyph-name="six" unicode="6" horiz-adv-x="440" 
d="M221 332q-30 0 -48 -13t-27 -33.5t-12 -44.5t-3 -46q0 -28 3.5 -51t13.5 -39.5t27 -26t43 -9.5q43 0 66 30.5t23 99.5q0 25 -3.5 49t-12.5 43t-26 30t-44 11zM182 391l3 -1q11 7 27.5 10.5t31.5 3.5q40 0 67.5 -17t45 -44.5t25 -62t7.5 -68.5q0 -48 -9.5 -88t-30 -69
t-53.5 -45t-80 -16q-87 0 -125.5 52t-38.5 147q0 58 10 102.5t30 88.5l38 84l43 94.5l38 83t23 50.5h86z" />
    <glyph glyph-name="seven" unicode="7" horiz-adv-x="440" 
d="M179 0h-84l209 620h-178v-94h-75v170h338v-75z" />
    <glyph glyph-name="eight" unicode="8" horiz-adv-x="440" 
d="M395 194q0 -56 -15 -94t-40 -61.5t-56 -34t-64 -10.5q-35 0 -66.5 10.5t-55.5 34t-38.5 61.5t-14.5 94q0 131 77 168q-22 13 -36 28t-21.5 33t-10 40.5t-2.5 49.5q0 49 13.5 84.5t37 59t54 34.5t63.5 11q35 0 65.5 -11t53.5 -34t36 -59t13 -85q0 -55 -15.5 -90.5
t-50.5 -60.5q43 -20 58 -62.5t15 -105.5zM220 625q-46 0 -66.5 -29.5t-20.5 -87.5q0 -113 87 -113q43 0 65 28t22 90q0 54 -20.5 83t-66.5 29zM220 330q-42 0 -68 -29.5t-26 -100.5q0 -37 7.5 -62t20 -40.5t29.5 -22t37 -6.5q49 0 70.5 32t21.5 101t-23.5 98.5t-68.5 29.5z
" />
    <glyph glyph-name="nine" unicode="9" horiz-adv-x="440" 
d="M222 627q-43 0 -66.5 -29.5t-23.5 -98.5q0 -26 3.5 -50.5t14 -43.5t28.5 -30t48 -11q25 0 41 11t25 29t12.5 42.5t3.5 51.5q0 28 -3.5 51.5t-13 40.5t-26.5 27t-43 10zM257 305l-3 1q-11 -7 -27 -10t-31 -3q-40 0 -68 17t-45 44.5t-25 61.5t-8 68q0 48 10 88t31 69
t54.5 45t80.5 16q87 0 125 -52t38 -147q1 -58 -10.5 -102.5t-31.5 -88.5q-3 -6 -14.5 -31l-27 -59l-32.5 -72l-32 -70.5l-25 -55t-11 -24.5h-86z" />
    <glyph glyph-name="colon" unicode=":" horiz-adv-x="216" 
d="M58 0v101h95v-101h-95zM58 292v102h95v-102h-95z" />
    <glyph glyph-name="semicolon" unicode=";" horiz-adv-x="216" 
d="M60 292v102h95v-102h-95zM104 -116h-48l28 112h-24v104h95v-102z" />
    <glyph glyph-name="less" unicode="&#x3c;" horiz-adv-x="440" 
d="M409 74l-382 192v57l382 193v-68l-311 -153l311 -153v-68z" />
    <glyph glyph-name="equal" unicode="=" horiz-adv-x="440" 
d="M19 349v65h402v-65h-402zM19 176v65h402v-65h-402z" />
    <glyph glyph-name="greater" unicode="&#x3e;" horiz-adv-x="440" 
d="M28 142l311 153l-311 153v68l382 -193v-57l-382 -192v68z" />
    <glyph glyph-name="question" unicode="?" horiz-adv-x="434" 
d="M403 525q0 -24 -3.5 -43t-10 -35.5t-16 -31.5l-21.5 -33q-11 -16 -25 -32.5t-26.5 -34.5t-21 -37t-8.5 -38v-60h-83v47q0 36 8.5 64t28.5 54l63 85t28 71q0 21 -3 42.5t-13 39t-29 28.5t-50 11q-23 0 -41.5 -9.5t-31 -25t-19.5 -35.5t-8 -40l-83 12q6 45 23 78.5t42 55.5
t56.5 32.5t66.5 10.5q87 0 132 -48t45 -128zM186 0v89h84v-89h-84z" />
    <glyph glyph-name="at" unicode="@" horiz-adv-x="790" 
d="M514 261q0 -30 15 -46t35 -16t38.5 7t32.5 27.5t22.5 56.5t8.5 94q0 62 -20.5 110.5t-55.5 81.5t-81.5 50.5t-98.5 17.5q-69 0 -123 -24t-91.5 -65.5t-57 -97.5t-19.5 -121q0 -71 20 -129.5t57.5 -100t92.5 -64t124 -22.5q27 0 50.5 2t46 7t45 13.5t46.5 21.5l23 -58
q-47 -20 -98.5 -32.5t-107.5 -12.5q-82 0 -149 25t-115 73t-74.5 117.5t-26.5 159.5q0 80 25 147.5t71 116.5t111.5 76.5t146.5 27.5q74 0 134.5 -24t103 -66.5t66 -101.5t23.5 -128t-14.5 -116t-38.5 -76t-55.5 -41.5t-66.5 -12.5q-9 0 -23 4t-28 12t-25.5 20t-15.5 28
l-3 -1q-12 -22 -42 -37t-66 -15q-54 0 -83.5 31.5t-29.5 82.5q0 22 6.5 43t20.5 37.5t36 27t53 10.5h91v48q0 26 -17.5 41t-52.5 15q-23 0 -41.5 -11t-27.5 -28l-54 27q17 32 48.5 51.5t73.5 19.5q30 0 54.5 -5.5t42.5 -19t28 -35.5t10 -55v-168zM304 266q0 -24 17 -40.5
t53 -16.5q76 0 76 67v51h-75q-32 0 -51.5 -14t-19.5 -47z" />
    <glyph glyph-name="A" unicode="A" horiz-adv-x="497" 
d="M403 0l-44 158h-222l-43 -158h-85l202 696h75l203 -696h-86zM289 413l-39 154h-4l-39 -153l-51 -181h184z" />
    <glyph glyph-name="B" unicode="B" horiz-adv-x="506" 
d="M465 199q0 -98 -50.5 -148.5t-136.5 -50.5h-213v696h200q96 0 142.5 -49.5t46.5 -133.5q0 -48 -18 -85t-71 -63v-3q27 -7 46 -23t31 -37.5t17.5 -48t5.5 -54.5zM148 620v-223h109q60 0 87.5 31t27.5 82q0 50 -27.5 80t-87.5 30h-109zM148 325v-244h121q33 0 55 10t35 27
t18.5 39.5t5.5 48.5q0 52 -26.5 85.5t-89.5 33.5h-119z" />
    <glyph glyph-name="C" unicode="C" horiz-adv-x="469" 
d="M446 129q-18 -66 -69.5 -100.5t-123.5 -34.5q-47 0 -85 15.5t-64 43t-40 65.5t-14 84v292q0 44 13.5 82t39.5 65.5t64 43.5t86 16q71 0 122.5 -35t70.5 -98l-79 -31q-10 38 -38.5 61t-75.5 23q-29 0 -51.5 -10.5t-37.5 -27.5t-23 -40t-8 -47v-296q0 -25 8 -48t23 -40.5
t37.5 -28t51.5 -10.5q45 0 74.5 23t39.5 62z" />
    <glyph glyph-name="D" unicode="D" horiz-adv-x="521" 
d="M259 696q70 0 120 -25.5t74 -85.5q15 -40 16.5 -97.5t1.5 -133.5q0 -79 -1 -136t-16 -98q-14 -35 -35 -58t-48 -36.5t-59 -19.5t-66 -6h-182v696h195zM387 467q0 81 -35 116.5t-101 35.5h-103v-541h103q74 0 105 39.5t31 109.5v240z" />
    <glyph glyph-name="E" unicode="E" horiz-adv-x="455" 
d="M65 0v696h369v-78h-286v-228h245v-75h-245v-234h286v-81h-369z" />
    <glyph glyph-name="F" unicode="F" horiz-adv-x="445" 
d="M148 618v-231h245v-75h-245v-312h-83v696h369v-78h-286z" />
    <glyph glyph-name="G" unicode="G" horiz-adv-x="506" 
d="M253 70q27 0 49 9.5t37.5 25.5t24.5 38t9 47v110h-114v74h198v-179q0 -46 -15.5 -83.5t-42.5 -63.5t-64.5 -40.5t-81.5 -14.5q-48 0 -86 15.5t-64 43t-40 66t-14 84.5v292q0 44 13.5 82t40 65.5t64.5 43.5t86 16q71 0 122.5 -35t70.5 -100l-80 -27q-10 37 -39 59.5
t-74 22.5q-29 0 -51.5 -10.5t-38 -27.5t-23.5 -40t-8 -47v-299q0 -25 8 -48t23.5 -40.5t38 -28t51.5 -10.5z" />
    <glyph glyph-name="H" unicode="H" horiz-adv-x="532" 
d="M383 0v317h-235v-317h-83v696h83v-306h235v306h84v-696h-84z" />
    <glyph glyph-name="I" unicode="I" horiz-adv-x="217" 
d="M66 0v696h84v-696h-84z" />
    <glyph glyph-name="J" unicode="J" horiz-adv-x="406" 
d="M339 182q0 -51 -15 -86.5t-41.5 -58t-61 -33t-73.5 -10.5q-48 0 -86.5 18.5t-63.5 51.5l65 50q14 -17 36 -29t47 -12q46 0 77.5 25t31.5 85v513h84v-514z" />
    <glyph glyph-name="K" unicode="K" horiz-adv-x="516" 
d="M415 0l-166 345l-50.5 -74.5t-50.5 -73.5v-197h-84v696h84v-365q1 0 1.5 0.5t1.5 0.5l119 182.5l120 181.5h91l-89.5 -135.5l-89.5 -135.5l205 -425h-92z" />
    <glyph glyph-name="L" unicode="L" horiz-adv-x="442" 
d="M65 0v696h83v-615h278v-81h-361z" />
    <glyph glyph-name="M" unicode="M" horiz-adv-x="656" 
d="M514 0v486l-4 -1l-55 -134l-96 -215h-57l-97 219l-53 131l-4 -1v-485h-83v696h84l115 -263l66 -161h3l68 163l113 261h83v-696h-83z" />
    <glyph glyph-name="N" unicode="N" horiz-adv-x="562" 
d="M420 0l-199 366l-71 139h-3v-505h-84v696h81l195 -361l74 -143l4 1v503h83v-696h-80z" />
    <glyph glyph-name="O" unicode="O" horiz-adv-x="497" 
d="M452 203q0 -48 -15 -86.5t-42 -66t-64.5 -42t-82.5 -14.5q-55 0 -94 18t-63.5 48.5t-35.5 70.5t-11 84v279q0 35 11 72t35 67t63 49t95 19q53 0 91.5 -18t63.5 -47.5t37 -66.5t12 -75v-291zM367 493q0 16 -5.5 38t-19 42t-36.5 34.5t-59 14.5t-59 -13.5t-37 -33
t-19.5 -42.5t-5.5 -42l1 -275q0 -30 6.5 -56.5t21.5 -46t38.5 -31t56.5 -11.5q24 0 45.5 8.5t37 24.5t25 39t9.5 52v298z" />
    <glyph glyph-name="P" unicode="P" horiz-adv-x="484" 
d="M466 487q0 -40 -11 -77.5t-34.5 -66t-61.5 -46t-92 -17.5h-119v-280h-83v696h198q97 0 150 -51.5t53 -157.5zM382 488q0 60 -28 95t-93 35h-113v-260h114q35 0 58 11t37 29t19.5 41.5t5.5 48.5z" />
    <glyph glyph-name="Q" unicode="Q" horiz-adv-x="506" 
d="M462 204q0 -32 -7 -60t-19 -51l70 -56l-43 -54l-70 56q-54 -45 -135 -45q-55 0 -94 18t-63.5 49t-35.5 71t-11 84v279q0 35 11 71.5t35 66.5t63 49t95 19q53 0 91.5 -18t63.5 -47t37 -66t12 -75v-291zM377 494q0 16 -5 38t-18.5 42t-36.5 34t-59 14q-34 0 -57.5 -13
t-37.5 -32t-20.5 -41.5t-6.5 -41.5l1 -277q0 -30 6.5 -57t21.5 -46.5t38.5 -31t56.5 -11.5q39 0 68 21l-82 66l45 53l78 -64q8 24 8 49v298z" />
    <glyph glyph-name="R" unicode="R" horiz-adv-x="506" 
d="M381 0l-116 306h-117v-306h-83v696h218q85 0 134 -50.5t49 -143.5q0 -66 -29.5 -113.5t-90.5 -70.5l126 -318h-91zM382 502q0 58 -27.5 88t-86.5 30h-120v-241h122q56 0 84 33t28 90z" />
    <glyph glyph-name="S" unicode="S" horiz-adv-x="478" 
d="M444 190q0 -91 -54.5 -144t-152.5 -53q-81 0 -135 33t-80 90l74 43q20 -35 54 -60t88 -25q64 0 92 33t28 83q0 28 -8.5 47.5t-24.5 33.5t-39 24.5t-51 19.5q-52 16 -88.5 33.5t-59.5 40.5t-33.5 52.5t-10.5 69.5q0 42 14 77t40.5 60.5t63.5 39.5t83 14q77 0 124 -27.5
t70 -69.5l-71 -49q-20 35 -50 50.5t-77 15.5q-58 0 -85 -32t-27 -79q0 -27 12 -46t33 -32.5t49 -24t61 -20.5q45 -14 76 -32t49.5 -42t27 -54.5t8.5 -69.5z" />
    <glyph glyph-name="T" unicode="T" horiz-adv-x="403" 
d="M243 620v-620h-83v620h-159v76h401v-76h-159z" />
    <glyph glyph-name="U" unicode="U" horiz-adv-x="519" 
d="M464 696v-494q0 -48 -15 -86.5t-42 -65.5t-64.5 -41.5t-82.5 -14.5q-48 0 -85.5 15.5t-64 43t-40.5 66t-14 83.5v494h83v-497q0 -25 8.5 -47.5t24 -40t38 -28t50.5 -10.5q53 0 86.5 33.5t33.5 92.5v497h84z" />
    <glyph glyph-name="V" unicode="V" horiz-adv-x="469" 
d="M273 0h-78l-181 696h87l82 -325l50 -225h3l51 227l81 323h87z" />
    <glyph glyph-name="W" unicode="W" horiz-adv-x="702" 
d="M545 0h-74l-78 338l-41 191h-3l-40 -187l-78 -342h-74l-138 696h87l58 -319l32 -198h3l42 195l75 322h71l75 -323l42 -194h3l31 194l57 323h88z" />
    <glyph glyph-name="X" unicode="X" horiz-adv-x="450" 
d="M356 0l-131 282l-130 -282h-91l177 361l-165 335h91l118 -259l118 259h91l-166 -335l178 -361h-90z" />
    <glyph glyph-name="Y" unicode="Y" horiz-adv-x="442" 
d="M223 386l51 134l72 176h87l-172 -406v-290h-81v290l-173 406h88l37 -90l37 -90q12 -30 24.5 -65l23.5 -65h6z" />
    <glyph glyph-name="Z" unicode="Z" horiz-adv-x="413" 
d="M27 0v77l271 543h-260v76h350v-72l-271 -545h270v-79h-360z" />
    <glyph glyph-name="bracketleft" unicode="[" horiz-adv-x="236" 
d="M68 -103v801h152v-53h-80v-695h80v-53h-152z" />
    <glyph glyph-name="backslash" unicode="\" horiz-adv-x="264" 
d="M5 714h62l189 -739h-63z" />
    <glyph glyph-name="bracketright" unicode="]" horiz-adv-x="236" 
d="M21 -104v54h79v695h-79v53h150v-802h-150z" />
    <glyph glyph-name="asciicircum" unicode="^" horiz-adv-x="440" 
d="M18 332l177 362h57l178 -362h-68l-139 289l-138 -289h-67z" />
    <glyph glyph-name="underscore" unicode="_" horiz-adv-x="500" 
d="M0 -130v61h500v-61h-500z" />
    <glyph glyph-name="quoteleft" unicode="&#x2018;" horiz-adv-x="223" 
d="M113 719h48l-28 -112h24v-104h-95v102z" />
    <glyph glyph-name="a" unicode="a" horiz-adv-x="426" 
d="M295 38q-17 -22 -47.5 -33t-69.5 -11q-36 0 -63 11.5t-44.5 31.5t-26 46.5t-8.5 55.5q0 66 41 109.5t131 43.5h91v61q0 34 -22.5 53t-66.5 19q-29 0 -54.5 -10.5t-36.5 -36.5l-31.5 18.5l-31.5 19.5q20 41 61.5 63t92.5 22q35 0 66 -7.5t54.5 -24.5t37 -45.5t13.5 -71.5
v-352h-82v36zM299 223h-97q-39 0 -64 -18.5t-25 -60.5q0 -33 22 -53.5t67 -20.5q42 0 69.5 19t27.5 66v68z" />
    <glyph glyph-name="b" unicode="b" horiz-adv-x="432" 
d="M132 47q-1 0 -1 -0.5t-1 -0.5v-46h-81v726h81v-283h2q23 31 53 44t60 13q51 0 80.5 -21.5t45 -56t19.5 -79.5t4 -91q0 -51 -5 -98t-21 -82.5t-45 -56.5t-78 -21q-35 0 -63 12.5t-50 40.5zM220 420q-31 0 -49.5 -15t-28 -38.5t-12 -51.5t-2.5 -55q0 -29 0.5 -62.5t9 -62
t27.5 -47t55 -18.5q30 0 48 13t28 37t13 56.5t3 71.5q0 41 -3.5 73t-14 54t-28.5 33.5t-46 11.5z" />
    <glyph glyph-name="c" unicode="c" horiz-adv-x="385" 
d="M301 121q17 -10 34 -18.5t34 -18.5q-20 -42 -59 -66t-93 -24q-56 0 -92 19t-57 53.5t-29 83.5t-8 108q0 111 45 177t141 66q54 0 92.5 -24.5t58.5 -66.5l-66 -41q-11 26 -33 40.5t-51 14.5q-33 0 -54 -13t-32.5 -35.5t-15.5 -53t-4 -66.5t4 -69.5t15.5 -59.5t32 -41.5
t53.5 -15.5q30 0 51.5 15.5t32.5 35.5z" />
    <glyph glyph-name="d" unicode="d" horiz-adv-x="433" 
d="M301 47q-22 -28 -50 -40.5t-63 -12.5q-49 0 -78.5 20.5t-45 55t-20.5 80.5t-5 96q0 46 5.5 91.5t22 81.5t47.5 58.5t82 22.5q30 0 56.5 -11t48.5 -36h2v273h81v-726h-81v46q-1 0 -1 0.5t-1 0.5zM214 420q-31 0 -49.5 -14t-28 -37.5t-12.5 -55t-3 -65.5q0 -36 3 -68
t13 -56t28 -38.5t48 -14.5q36 0 55 20t27 49.5t8.5 62t0.5 57.5q0 31 -3 59.5t-12 51t-27 36t-48 13.5z" />
    <glyph glyph-name="e" unicode="e" horiz-adv-x="424" 
d="M372 89q-20 -44 -59.5 -69.5t-89.5 -25.5t-85 14t-57.5 44.5t-33 78.5t-10.5 116q0 47 7.5 92.5t27 81.5t53.5 58t87 22q84 0 128.5 -53.5t44.5 -147.5v-77h-267q0 -33 4 -61.5t15 -49.5t31 -33t52 -12q27 0 49.5 17t36.5 40zM305 288q0 68 -23.5 102.5t-68.5 34.5
q-52 0 -71.5 -37t-21.5 -100h185z" />
    <glyph glyph-name="f" unicode="f" horiz-adv-x="263" 
d="M154 428v-428h-82v428h-55v66h55v113q0 62 33.5 92t86.5 30h52v-75h-41q-28 0 -38.5 -16.5t-10.5 -40.5v-103h90v-66h-90z" />
    <glyph glyph-name="g" unicode="g" horiz-adv-x="441" 
d="M385 -4q0 -92 -43.5 -147.5t-137.5 -55.5q-48 0 -87 23t-59 65l67 39q11 -20 32 -35.5t50 -15.5q51 0 74 30t23 84v69h-2q-23 -31 -53 -44t-60 -13q-51 0 -81 21.5t-45 56t-19.5 79t-4.5 91.5q0 48 4.5 94.5t19.5 83t45 58.5t81 22q35 0 63 -12.5t50 -40.5q1 0 1 0.5
t1 0.5v46h81v-499zM211 75q30 0 48.5 13.5t28.5 36t13.5 51t3.5 59.5q0 29 -0.5 62t-8.5 61t-27 46.5t-55 18.5q-32 0 -50.5 -14t-27.5 -38t-11.5 -56t-2.5 -68q0 -40 3 -72t13 -54t27 -34t46 -12z" />
    <glyph glyph-name="h" unicode="h" horiz-adv-x="438" 
d="M309 0v323q0 45 -22.5 71t-67.5 26q-42 0 -67 -26t-25 -73v-321h-80v726h81v-287h3q21 29 52 45t67 16q30 0 55.5 -10t44 -29.5t29.5 -47t11 -63.5v-350h-81z" />
    <glyph glyph-name="i" unicode="i" horiz-adv-x="197" 
d="M58 615v81h81v-81h-81zM58 0v495h81v-495h-81z" />
    <glyph glyph-name="j" unicode="j" horiz-adv-x="210" 
d="M65 615v81h81v-81h-81zM146 -73q0 -28 -8 -52t-24.5 -42t-41 -28t-57.5 -10h-27v75q2 0 10 -0.5t9 0.5q31 1 44.5 20.5t13.5 54.5v550h81v-568z" />
    <glyph glyph-name="k" unicode="k" horiz-adv-x="440" 
d="M345 0l-131 241l-78 -108v-133h-81v726h81v-470h2l176 239h93l-141 -189l169 -306h-90z" />
    <glyph glyph-name="l" unicode="l" horiz-adv-x="227" 
d="M185 -3q-59 0 -93 25t-33 93v611h81v-598q0 -28 11 -42t39 -14h17v-75h-22z" />
    <glyph glyph-name="m" unicode="m" horiz-adv-x="702" 
d="M649 0h-81v294q0 27 -4 50t-13.5 39.5t-26.5 26t-43 9.5q-48 0 -69 -33.5t-21 -90.5v-295h-81v294q0 27 -4 49.5t-14 39.5t-27 26.5t-43 9.5q-48 0 -69 -35t-21 -92v-292h-80v494h81v-53h2q42 59 115 59q41 0 72 -17.5t49 -45.5h1q29 33 61.5 48t75.5 15q30 0 55.5 -11
t44.5 -30.5t29.5 -47t10.5 -61.5v-350z" />
    <glyph glyph-name="n" unicode="n" horiz-adv-x="436" 
d="M308 0v323q0 45 -23 70.5t-68 25.5q-41 0 -66 -26.5t-25 -71.5v-321h-80v495h81v-55h3q21 29 52 44.5t67 15.5q30 0 55.5 -10.5t44 -30t29.5 -47t11 -62.5v-350h-81z" />
    <glyph glyph-name="o" unicode="o" horiz-adv-x="438" 
d="M222 501q59 0 93 -23.5t54 -58.5q7 -12 12 -31.5t8 -43t4.5 -49t1.5 -48.5q0 -14 -1 -34t-3.5 -42t-5.5 -42t-7 -32q-9 -29 -26.5 -49t-40 -32t-48 -17.5t-52.5 -5.5q-57 0 -93.5 24t-54.5 62q-13 27 -18 71.5t-5 93.5q0 47 4.5 90t15.5 70q20 45 61 71t101 26zM220 428
q-29 0 -52 -14t-34 -42q-7 -19 -10.5 -54.5t-3.5 -82.5q0 -33 1.5 -62t9.5 -49q11 -27 32 -42t53 -15q31 0 54.5 15t34.5 48q5 14 7 47.5t2 74.5q0 35 -2 66.5t-8 49.5q-11 30 -33 45t-51 15z" />
    <glyph glyph-name="p" unicode="p" horiz-adv-x="432" 
d="M127 448q22 28 50 40.5t63 12.5q49 0 78 -20.5t45 -55t21 -80.5t5 -96q0 -47 -5.5 -92.5t-22.5 -81.5t-48 -58t-81 -22q-62 0 -105 49h-2v-244h-81v695h81v-46q1 0 1 -0.5t1 -0.5zM214 75q31 0 49 14t28 37.5t13 54.5t3 66q0 36 -3 68t-12.5 56t-27.5 38.5t-49 14.5
q-36 0 -55 -18.5t-27 -46.5t-8.5 -61.5t-0.5 -62.5q0 -27 2.5 -55t11.5 -51.5t27 -38.5t49 -15z" />
    <glyph glyph-name="q" unicode="q" horiz-adv-x="440" 
d="M307 448q1 0 1 0.5t1 0.5v46h81v-697h-81v254h-2q-23 -31 -53 -44t-60 -13q-51 0 -81 21.5t-45.5 56t-20 79t-4.5 91.5q0 48 5.5 94.5t21.5 83t45.5 58.5t78.5 22q35 0 63 -12.5t50 -40.5zM219 75q30 0 48 15t27.5 38.5t12.5 51.5t3 55q0 29 -0.5 62.5t-8.5 62t-27 47
t-55 18.5q-30 0 -48 -14.5t-28 -39t-13 -56.5t-3 -68q0 -35 2.5 -66t12 -54.5t28 -37.5t49.5 -14z" />
    <glyph glyph-name="r" unicode="r" horiz-adv-x="311" 
d="M142 435q23 39 52 52.5t69 13.5q29 -2 45 -11l-18 -87q-24 11 -49 11q-46 0 -74 -25.5t-28 -81.5v-307h-80v494h80v-59h3z" />
    <glyph glyph-name="s" unicode="s" horiz-adv-x="405" 
d="M93 136q16 -32 42.5 -50t66.5 -18q42 0 65.5 17.5t23.5 56.5q0 19 -7 31t-19.5 20t-29.5 13.5l-37 11.5q-36 9 -65 20.5t-50 28t-32 39t-11 54.5q0 66 43 103.5t118 37.5q67 0 104.5 -25t54.5 -70l-63 -39q-29 60 -97 60q-45 0 -62.5 -20.5t-17.5 -46.5q0 -17 9 -28
t24.5 -18.5t36 -13.5l42.5 -12q35 -8 61 -19.5t43.5 -29t26 -41.5t8.5 -58q0 -67 -45 -107t-126 -40q-64 0 -107 27t-66 78z" />
    <glyph glyph-name="t" unicode="t" horiz-adv-x="255" 
d="M185 0q-57 0 -85.5 32.5t-28.5 80.5v316h-55v66h55v127h81v-127h70v-66h-70v-293q0 -31 12 -46.5t39 -15.5h27v-74h-45z" />
    <glyph glyph-name="u" unicode="u" horiz-adv-x="442" 
d="M309 0v53h-3q-21 -30 -52.5 -44.5t-66.5 -14.5q-30 0 -56 10.5t-44.5 30t-29.5 47t-11 62.5v350h81v-323q0 -45 24.5 -71.5t66.5 -26.5q41 0 66 27t25 73v321h80v-494h-80z" />
    <glyph glyph-name="v" unicode="v" horiz-adv-x="395" 
d="M201 116q3 9 9.5 33.5l13.5 52l13 51.5t9 33q4 13 12 42.5l16 62l15.5 61.5t12.5 43h87q-8 -21 -19.5 -59.5l-26 -87l-29.5 -101l-29.5 -101l-26.5 -87.5t-19 -59h-82q-8 20 -20 59l-26 87.5l-29.5 101l-29.5 101t-26.5 87l-19.5 59.5h87q4 -13 12 -42.5l17 -62.5
l16.5 -62.5t12.5 -42.5l47 -169h3z" />
    <glyph glyph-name="w" unicode="w" horiz-adv-x="635" 
d="M490 0h-79l-32.5 119.5t-31.5 120.5l-31 115h-2l-16 -64.5l-16 -63.5l-60 -227h-80l-134 495h86l32.5 -131l31.5 -131l24 -102h4l25 101l33 130.5l34 132.5h79l32.5 -128l31.5 -128l27 -113h4l25 108l30.5 130.5l30.5 130.5h87z" />
    <glyph glyph-name="x" unicode="x" horiz-adv-x="394" 
d="M295 0l-97 190l-98 -190h-91l145 254l-138 241h91l91 -181l90 181h91l-138 -242l145 -253h-91z" />
    <glyph glyph-name="y" unicode="y" horiz-adv-x="384" 
d="M206 -99q-16 -53 -49 -78t-80 -25h-26v70h24q47 0 64 71l21 73l-159 483h86l61 -198l47 -167h3l44 167l58 198h84z" />
    <glyph glyph-name="z" unicode="z" horiz-adv-x="370" 
d="M29 0v71l222 352h-208v71h299v-69l-221 -349h221v-76h-313z" />
    <glyph glyph-name="braceleft" unicode="{" horiz-adv-x="246" 
d="M178 -103q-38 0 -64 29t-26 78v139q0 53 -16.5 88t-54.5 40v51q19 3 32.5 14.5t22 29t12.5 40t4 46.5v137q0 50 26 79t64 29h56v-54h-30q-13 0 -21.5 -8t-14 -20.5t-7.5 -28t-2 -30.5v-126q0 -32 -7.5 -55.5t-18.5 -39.5t-22.5 -24.5t-19.5 -11.5v-3q8 -3 19.5 -11.5
t22.5 -24.5t18.5 -39t7.5 -54v-130q0 -15 2 -30.5t7.5 -28t14 -20.5t21.5 -8h30v-53h-56z" />
    <glyph glyph-name="bar" unicode="|" horiz-adv-x="207" 
d="M72 -162v878h64v-878h-64z" />
    <glyph glyph-name="braceright" unicode="}" horiz-adv-x="246" 
d="M232 271q-38 -5 -54 -40t-16 -88v-139q0 -49 -26 -78t-64 -29h-57v53h31q13 0 21.5 8t14 20.5t7.5 28t2 30.5v130q0 31 7.5 54t18.5 39t22.5 24.5t19.5 11.5v3q-8 3 -19.5 11.5t-22.5 24.5t-18.5 39.5t-7.5 55.5v126q0 15 -1.5 30.5t-6 28t-13.5 20.5t-24 8h-31v52h56
q42 0 66.5 -29t24.5 -77v-137q0 -24 4 -46.5t12 -40t21.5 -29t32.5 -14.5v-51v0z" />
    <glyph glyph-name="asciitilde" unicode="~" horiz-adv-x="440" 
d="M423 289q-23 -38 -50.5 -62t-68.5 -24q-19 0 -40 9t-43 19.5t-43.5 19.5t-42.5 9q-23 0 -35.5 -11t-32.5 -34l-49 34q22 38 51.5 59.5t66.5 21.5q24 0 45.5 -8.5t42.5 -19t41 -19t40 -8.5q22 0 35 12.5t32 36.5l51 -35v0z" />
    <glyph glyph-name="sterling" unicode="&#xa3;" horiz-adv-x="440" 
d="M32 364h61q-5 25 -12 46.5l-13 41t-10.5 39.5t-4.5 43q0 35 11.5 65.5t33 53t52.5 35.5t69 13q63 0 113.5 -30t75.5 -101l-76 -29q-22 50 -49 66.5t-61 16.5q-31 0 -56 -23.5t-25 -68.5q0 -19 4.5 -38t10.5 -39.5l12.5 -43t10.5 -47.5h127v-66h-121q0 -66 -13.5 -118
t-42.5 -105h262v-75h-360v67q29 46 48.5 92.5t23.5 106.5l2 32h-73v66z" />
    <glyph glyph-name="yen" unicode="&#xa5;" horiz-adv-x="440" 
d="M283 347h111v-51h-130l-5 -15v-64h135v-52h-135v-165h-76v165h-134v52h134v63l-5 16h-129v51h109l-137 349h82l57.5 -157.5l57.5 -157.5h4l57 157.5l56 157.5h83z" />
    <glyph glyph-name="section" unicode="&#xa7;" horiz-adv-x="445" 
d="M413 289q0 -34 -14 -63t-40 -50q17 -21 27.5 -45.5t10.5 -52.5q0 -69 -48.5 -111t-133.5 -42q-49 0 -94.5 19.5t-74.5 49.5q12 12 23 25t23 25q29 -29 59.5 -40t64.5 -11q49 0 76 21t27 61q0 35 -30 59.5t-87 50.5q-36 15 -64 30.5t-47 34t-28.5 41.5t-9.5 54q0 32 16 62
t42 50q-20 20 -31 43t-11 55t12.5 59t34.5 46.5t52.5 30.5t65.5 11q97 0 162 -60q-11 -14 -23 -27l-24 -27q-32 27 -60.5 36.5t-55.5 9.5q-41 0 -63.5 -21t-22.5 -52q0 -18 9 -32.5t24 -26t35 -22t43 -20.5q28 -13 55.5 -28t49.5 -35.5t36 -46.5t14 -61zM339 290
q0 35 -30 56t-84 44q-13 6 -26.5 11t-27.5 13q-20 -8 -31.5 -24.5t-11.5 -38.5q0 -15 8.5 -28.5t22 -25.5t31 -21.5t35.5 -17.5l40 -17.5t37 -18.5q19 10 28 27.5t9 37.5v3z" />
    <glyph glyph-name="quotesingle" unicode="'" horiz-adv-x="207" 
d="M71 498v198h62v-198h-62z" />
    <glyph glyph-name="quotedblleft" unicode="&#x201c;" horiz-adv-x="300" 
d="M88 719h47l-28 -112h25v-104h-95v102zM218 719h48l-28 -112h24v-104h-95v102z" />
    <glyph glyph-name="guillemotleft" unicode="&#xab;" horiz-adv-x="447" 
d="M328 46l-117 186l117 186h78l-114 -186l114 -186h-78zM161 46l-117 186l117 186h78l-115 -186l115 -186h-78z" />
    <glyph glyph-name="endash" unicode="&#x2013;" horiz-adv-x="500" 
d="M20 230v76h460v-76h-460z" />
    <glyph glyph-name="dagger" unicode="&#x2020;" horiz-adv-x="412" 
d="M244 394v-591h-75v591h-152v68h152v234h75v-234h151v-68h-151z" />
    <glyph glyph-name="periodcentered" unicode="&#xb7;" horiz-adv-x="215" 
d="M59 223v101h95v-101h-95z" />
    <glyph glyph-name="bullet" unicode="&#x2022;" horiz-adv-x="410" 
d="M334 279q0 -26 -10 -49.5t-27.5 -40.5t-40.5 -27t-50 -10t-50 10t-40 27t-27 40.5t-10 49.5t10 49.5t27 41t40 27.5t50 10t50 -10t40.5 -27.5t27.5 -41t10 -49.5z" />
    <glyph glyph-name="quotedblright" unicode="&#x201d;" horiz-adv-x="300" 
d="M220 503h-47l28 113h-25v104h95v-102zM90 503h-48l28 113h-24v104h95v-102z" />
    <glyph glyph-name="guillemotright" unicode="&#xbb;" horiz-adv-x="447" 
d="M45 46l114 186l-114 186h78l117 -186l-117 -186h-78zM212 46l115 186l-115 186h78l117 -186l-117 -186h-78z" />
    <glyph glyph-name="ellipsis" unicode="&#x2026;" horiz-adv-x="708" 
d="M68 0v101h95v-101h-95zM303 0v101h95v-101h-95zM543 0v101h95v-101h-95z" />
    <glyph glyph-name="perthousand" unicode="&#x2030;" horiz-adv-x="908" 
d="M167 -17h-56l369 731h57zM266 382q0 -50 -33 -78.5t-80 -28.5t-80 28.5t-33 78.5v210q0 49 32.5 78t80.5 29q49 0 81 -29t32 -78v-210zM203 592q0 21 -13.5 35t-36.5 14t-36.5 -14t-13.5 -35v-210q0 -23 13.5 -36.5t36.5 -13.5t36.5 13.5t13.5 36.5v210zM612 99
q0 -25 -9 -44t-25 -32t-36.5 -20t-42.5 -7q-23 0 -43 7t-36 20t-25 32t-9 44v218q0 24 9 43.5t25 32.5t36 20t43 7q22 0 42.5 -7t36.5 -20t25 -32.5t9 -43.5v-218zM549 317q0 21 -13.5 33t-36.5 12t-36.5 -12t-13.5 -33v-218q0 -23 13.5 -34.5t36.5 -11.5t36.5 11.5
t13.5 34.5v218zM868 99q0 -25 -9 -44t-25 -32t-36.5 -20t-42.5 -7q-23 0 -43 7t-36 20t-25 32t-9 44v218q0 24 9 43.5t25 32.5t36 20t43 7q22 0 42.5 -7t36.5 -20t25 -32.5t9 -43.5v-218zM805 317q0 21 -13.5 33t-36.5 12t-36.5 -12t-13.5 -33v-218q0 -23 13.5 -34.5
t36.5 -11.5t36.5 11.5t13.5 34.5v218z" />
    <glyph glyph-name="grave" unicode="`" horiz-adv-x="424" 
d="M263 553l-98 167l76 25l70 -173z" />
    <glyph glyph-name="dieresis" unicode="&#xa8;" horiz-adv-x="427" 
d="M257 593v84h78v-84h-78zM90 593v84h79v-84h-79z" />
    <glyph glyph-name="oe" unicode="&#x153;" horiz-adv-x="702" 
d="M650 89q-20 -44 -59.5 -69.5t-89.5 -25.5q-52 0 -88 15t-59 48q-25 -35 -63 -49.5t-80 -14.5q-57 0 -93.5 24t-54.5 62q-13 27 -18 71.5t-5 93.5q0 47 4.5 90t15.5 70q20 45 61 71t101 26q48 0 81.5 -17.5t55.5 -46.5q20 29 51.5 46.5t79.5 17.5q84 0 128.5 -53.5
t44.5 -147.5v-77h-267q0 -33 4 -61.5t15 -49.5t31 -33t52 -12q27 0 49.5 17t36.5 40zM220 428q-29 0 -51.5 -14t-34.5 -42q-8 -18 -11 -54t-3 -83q0 -33 1.5 -62t9.5 -49q11 -27 32 -42t53 -15q31 0 54.5 17t34.5 50q5 14 7 45.5t2 72.5q0 35 -2 66.5t-8 49.5q-11 30 -33 45
t-51 15zM583 288q0 68 -23.5 102.5t-68.5 34.5q-52 0 -71.5 -37t-21.5 -100h185z" />
    <glyph glyph-name="germandbls" unicode="&#xdf;" horiz-adv-x="446" 
d="M316 421q31 -13 47.5 -34t24.5 -47t9.5 -56t1.5 -60q0 -44 -6 -85t-23.5 -73t-49.5 -51.5t-85 -19.5h-29v67h20q36 0 54.5 18t26 45.5t8 59.5t0.5 61q0 25 -3.5 49.5t-12.5 44t-24.5 31t-39.5 11.5h-24v70h19q22 0 36 9t21.5 23.5t10.5 32.5t3 35q0 46 -18.5 74.5
t-64.5 28.5q-28 0 -44.5 -10t-25.5 -26.5t-12 -37t-3 -41.5v-540h-80v536q0 88 41.5 140t126.5 52q81 0 121 -46.5t40 -122.5q0 -45 -14 -83t-52 -55z" />
    <glyph glyph-name="mu" unicode="&#xb5;" horiz-adv-x="454" 
d="M320 52h-3q-21 -29 -52.5 -43t-66.5 -14q-32 0 -59 15l-1 -212h-81v696h81v-294q0 -27 5 -49.5t15.5 -39.5t28 -26.5t42.5 -9.5q26 0 43.5 9.5t28 27t15 42t4.5 53.5v287h80v-494h-80v52z" />
    <glyph glyph-name="mu" unicode="&#x3bc;" horiz-adv-x="454" 
d="M320 52h-3q-21 -29 -52.5 -43t-66.5 -14q-32 0 -59 15l-1 -212h-81v696h81v-294q0 -27 5 -49.5t15.5 -39.5t28 -26.5t42.5 -9.5q26 0 43.5 9.5t28 27t15 42t4.5 53.5v287h80v-494h-80v52z" />
    <glyph glyph-name="trademark" unicode="&#x2122;" horiz-adv-x="757" 
d="M555 361h-53l-81 176h-1v-241h-62v399h62l111 -248l109 248h61v-399h-63l-1 240zM204 638v-341h-63v341h-104v58h271v-58h-104z" />
    <glyph glyph-name="plusminus" unicode="&#xb1;" horiz-adv-x="440" 
d="M253 278v-169h-61v169h-168v62h168v169h61v-169h168v-62h-168zM24 0v62h397v-62h-397z" />
    <glyph glyph-name="divide" unicode="&#xf7;" horiz-adv-x="440" 
d="M277 463q0 -23 -16 -39t-38 -16q-23 0 -39 16t-16 39t16 39t39 16q22 0 38 -16t16 -39zM19 263v62h406v-62h-406zM223 179q22 0 38 -15.5t16 -38.5t-16 -39t-38 -16q-23 0 -39 16t-16 39t16 38.5t39 15.5z" />
    <glyph glyph-name="degree" unicode="&#xb0;" horiz-adv-x="333" 
d="M286 584q0 -24 -9.5 -45.5t-25.5 -37.5t-37.5 -25t-45.5 -9t-45.5 9t-37.5 25t-25 37.5t-9 45.5t9 45.5t25 37.5t37.5 25t45.5 9t45.5 -9t37.5 -25t25.5 -37.5t9.5 -45.5zM236 584q0 29 -19.5 48.5t-48.5 19.5q-28 0 -48 -19.5t-20 -48.5t20 -49t48 -20q29 0 48.5 20
t19.5 49z" />
    <glyph glyph-name="registered" unicode="&#xae;" horiz-adv-x="523" 
d="M261 278q-46 0 -83 16t-63.5 44.5t-40.5 67.5t-14 85t14 85.5t40.5 68t63.5 45t83 16.5q45 0 81.5 -16.5t63 -45t40.5 -68t14 -85.5t-14 -85t-40.5 -67.5t-63 -44.5t-81.5 -16zM261 670q-38 0 -67.5 -14t-50 -38t-31.5 -56.5t-11 -69.5q0 -38 11.5 -70.5t32.5 -56
t50.5 -36.5t65.5 -13q37 0 66.5 13.5t49.5 37t31 55.5t11 70q0 37 -11 69.5t-32 56.5t-50 38t-65 14zM305 362l-22 52.5l-22 52.5h-33v-105h-42v255h73q37 0 61 -16.5t24 -58.5q0 -49 -41 -69l25.5 -55t23.5 -56h-47zM302 542q0 23 -12.5 30t-37.5 7h-24v-75h32q20 0 31 9
t11 29z" />
    <glyph glyph-name="copyright" unicode="&#xa9;" horiz-adv-x="753" 
d="M499 207q-11 -42 -44.5 -65.5t-76.5 -23.5q-60 0 -94 36.5t-34 93.5v176q0 54 33.5 91t94.5 37q43 0 76 -23t45 -65l-56 -22q-6 23 -22.5 37.5t-42.5 14.5q-34 0 -51 -21.5t-17 -47.5v-179q0 -27 17 -49t51 -22q24 0 41.5 14.5t23.5 38.5zM376 -8q-75 0 -135 26.5
t-102.5 73.5t-65 110.5t-22.5 138.5t23 139.5t65.5 111.5t102.5 73.5t134 26.5q73 0 133.5 -26.5t103 -73.5t66 -111.5t23.5 -139.5t-23.5 -138.5t-66 -110.5t-103 -73.5t-133.5 -26.5zM376 636q-62 0 -111 -23t-83 -62.5t-52.5 -93.5t-18.5 -116t19 -115t53.5 -93
t83.5 -62.5t109 -22.5q61 0 110.5 22.5t83.5 62.5t52.5 93t18.5 115t-18.5 116t-53 93.5t-83.5 62.5t-110 23z" />
    <glyph glyph-name="acircumflex" unicode="&#xe2;" horiz-adv-x="426" 
d="M305 38q-17 -22 -47.5 -33t-69.5 -11q-36 0 -63 11.5t-44.5 31.5t-26 46.5t-8.5 55.5q0 66 41 109.5t131 43.5h91v61q0 34 -22.5 53t-66.5 19q-29 0 -54.5 -10.5t-36.5 -36.5l-31.5 18.5l-31.5 19.5q20 41 61.5 63t92.5 22q35 0 66 -7.5t54.5 -24.5t37 -45.5t13.5 -71.5
v-352h-82v36zM309 223h-97q-39 0 -64 -18.5t-25 -60.5q0 -33 22 -53.5t67 -20.5q42 0 69.5 19t27.5 66v68zM218 653l-125 -101l-37 33l141 146h50l133 -144l-37 -34z" />
    <glyph glyph-name="adieresis" unicode="&#xe4;" horiz-adv-x="426" 
d="M305 38q-17 -22 -47.5 -33t-69.5 -11q-36 0 -63 11.5t-44.5 31.5t-26 46.5t-8.5 55.5q0 66 41 109.5t131 43.5h91v61q0 34 -22.5 53t-66.5 19q-29 0 -54.5 -10.5t-36.5 -36.5l-31.5 18.5l-31.5 19.5q20 41 61.5 63t92.5 22q35 0 66 -7.5t54.5 -24.5t37 -45.5t13.5 -71.5
v-352h-82v36zM309 223h-97q-39 0 -64 -18.5t-25 -60.5q0 -33 22 -53.5t67 -20.5q42 0 69.5 19t27.5 66v68zM263 593v84h78v-84h-78zM96 593v84h79v-84h-79z" />
    <glyph glyph-name="agrave" unicode="&#xe0;" horiz-adv-x="426" 
d="M305 38q-17 -22 -47.5 -33t-69.5 -11q-36 0 -63 11.5t-44.5 31.5t-26 46.5t-8.5 55.5q0 66 41 109.5t131 43.5h91v61q0 34 -22.5 53t-66.5 19q-29 0 -54.5 -10.5t-36.5 -36.5l-31.5 18.5l-31.5 19.5q20 41 61.5 63t92.5 22q35 0 66 -7.5t54.5 -24.5t37 -45.5t13.5 -71.5
v-352h-82v36zM309 223h-97q-39 0 -64 -18.5t-25 -60.5q0 -33 22 -53.5t67 -20.5q42 0 69.5 19t27.5 66v68zM213 553l-98 167l76 25l70 -173z" />
    <glyph glyph-name="ccedilla" unicode="&#xe7;" horiz-adv-x="385" 
d="M301 121q17 -10 34 -18.5t34 -18.5q-19 -40 -55.5 -64t-87.5 -26l-12 -41q26 -2 43 -10t27.5 -20t14.5 -25t4 -25t-5 -26t-16 -25.5t-29 -19t-43 -7.5h-14t-22.5 1.5t-26.5 5t-26 9.5l14 37q19 -9 36.5 -11t31.5 -2q17 0 30.5 10t13.5 27q0 20 -15.5 32t-48.5 10l-18 15
l20 67q-46 5 -75.5 26t-47 55.5t-24.5 80t-7 100.5q0 111 45 177t141 66q54 0 92.5 -24.5t58.5 -66.5l-66 -41q-11 26 -33 40.5t-51 14.5q-33 0 -54 -13t-32.5 -35.5t-15.5 -53t-4 -66.5t4 -69.5t15.5 -59.5t32 -41.5t53.5 -15.5q30 0 51.5 15.5t32.5 35.5z" />
    <glyph glyph-name="pi" unicode="&#x3c0;" horiz-adv-x="458" 
d="M320 0v423h-181v-423h-81v495h343v-495h-81z" />
    <glyph glyph-name="dieresistonos" unicode="&#x385;" horiz-adv-x="426" 
d="M283 589v85h78v-85h-78zM62 589v85h78v-85h-78zM149 572l70 173l76 -25l-98 -167z" />
    <glyph glyph-name="tonos" unicode="&#x384;" horiz-adv-x="426" 
d="M202 572l70 173l76 -25l-98 -167z" />
    <glyph glyph-name="sfthyphen" unicode="&#xad;" horiz-adv-x="369" 
d="M51 222v71h273v-71h-273z" />
    <glyph glyph-name="Gamma" unicode="&#x393;" horiz-adv-x="441" 
d="M148 618v-618h-83v696h361v-78h-278z" />
    <glyph glyph-name="Delta" unicode="&#x394;" horiz-adv-x="497" 
d="M9 0l202 696h75l202 -696h-479zM381 75l-14.5 54.5l-24.5 90l-29.5 106.5l-28.5 105l-23 84.5t-12 45.5h-2q-7 -20 -18.5 -65.5l-25.5 -102.5l-45.5 -163.5l-43.5 -154.5h267z" />
    <glyph glyph-name="Delta" unicode="&#x2206;" horiz-adv-x="497" 
d="M9 0l202 696h75l202 -696h-479zM381 75l-14.5 54.5l-24.5 90l-29.5 106.5l-28.5 105l-23 84.5t-12 45.5h-2q-7 -20 -18.5 -65.5l-25.5 -102.5l-45.5 -163.5l-43.5 -154.5h267z" />
    <glyph glyph-name="Theta" unicode="&#x398;" horiz-adv-x="497" 
d="M156 391h185v-74h-185v74zM452 204q0 -48 -15 -87t-42 -66t-64.5 -42t-82.5 -15q-55 0 -94 18t-63.5 49t-35.5 71t-11 84v279q0 35 11 71.5t35 66.5t63 49t95 19q53 0 91.5 -18t63.5 -47t37 -66t12 -75v-291zM367 494q0 16 -5 38t-18.5 42t-36.5 34t-59 14
q-34 0 -57.5 -13t-37.5 -32t-20.5 -41.5t-6.5 -41.5l1 -277q0 -30 6.5 -57t21.5 -46.5t38.5 -31t56.5 -11.5q24 0 45.5 8.5t37 25t25 39.5t9.5 52v298z" />
    <glyph glyph-name="Lambda" unicode="&#x39b;" horiz-adv-x="497" 
d="M403 0l-46 165l-14 49.5l-20.5 73l-30.5 109l-43 156.5h-2q-14 -54 -24 -87.5l-17 -57.5l-24.5 -93l-18.5 -68.5l-14 -50t-10 -36.5l-46 -160h-84l202 696h75l202 -696h-85z" />
    <glyph glyph-name="Xi" unicode="&#x39e;" horiz-adv-x="463" 
d="M47 618v78h370v-78h-370zM87 315v75h290v-75h-290zM47 0v81h370v-81h-370z" />
    <glyph glyph-name="Pi" unicode="&#x3a0;" horiz-adv-x="525" 
d="M377 0v623h-229v-623h-83v696h396v-696h-84z" />
    <glyph glyph-name="Sigma" unicode="&#x3a3;" horiz-adv-x="408" 
d="M25 0v72l134 286l-135 269v69h351v-76h-260l136 -262l-135 -281h271v-77h-362z" />
    <glyph glyph-name="Iotadieresis" unicode="&#x3aa;" horiz-adv-x="217" 
d="M66 0v696h84v-696h-84zM153 748v84h78v-84h-78zM-14 748v84h79v-84h-79z" />
    <glyph glyph-name="Phi" unicode="&#x3a6;" horiz-adv-x="613" 
d="M265 56h-1q-61 4 -103 24.5t-68.5 58t-38 92.5t-11.5 130q0 140 53 215t168 85h1v35h83v-35h4q117 -10 169 -85t52 -215q0 -75 -12 -129t-38.5 -90.5t-68.5 -57t-102 -28.5h-4v-56h-83v56zM264 591q-72 -3 -106.5 -58.5t-34.5 -170.5q0 -68 10 -112t28 -70.5t44 -38
t59 -13.5v463zM350 128q33 2 59.5 13t45.5 37t29.5 70.5t10.5 113.5q0 117 -37 171.5t-108 57.5v-463z" />
    <glyph glyph-name="Psi" unicode="&#x3a8;" horiz-adv-x="608" 
d="M555 337q0 -43 -15.5 -79t-43.5 -62t-66.5 -41t-83.5 -16v-139h-83v139q-46 1 -84.5 16t-66 42t-43 64t-15.5 81v354h84v-343q0 -61 34 -96t91 -37v476h83v-476q57 1 91.5 34t34.5 94v348h83v-359v0z" />
    <glyph glyph-name="Omega" unicode="&#x3a9;" horiz-adv-x="497" 
d="M291 93q37 13 57 46t20 81v270q0 58 -32 94.5t-88 36.5q-59 0 -90 -38t-31 -93v-270q0 -44 20.5 -78.5t58.5 -48.5l-1 -93h-172v78h71q-34 22 -47 64t-13 87v262q0 46 14.5 84.5t41.5 66.5t64.5 44t83.5 16q43 0 80.5 -15t65 -42.5t43 -66.5t15.5 -87v-262
q0 -48 -13.5 -87t-46.5 -64h71v-78h-172v93v0z" />
    <glyph glyph-name="afii00208" unicode="&#x2015;" horiz-adv-x="1000" 
d="M20 230v76h960v-76h-960z" />
    <glyph glyph-name="alpha" unicode="&#x3b1;" horiz-adv-x="445" 
d="M307 448q1 0 1 0.5t1 0.5v46h81v-495h-81v51q-1 0 -1 0.5t-1 0.5q-23 -31 -52.5 -44t-59.5 -13q-48 0 -78 19.5t-46.5 52.5t-22 75t-5.5 87q0 48 5.5 96.5t22 87.5t46.5 63.5t80 24.5q67 0 110 -53zM219 425q-33 0 -51 -19.5t-27 -48t-11.5 -61.5t-2.5 -60
q-1 -76 18.5 -119t69.5 -43q27 0 45 12t29 33.5t16 51.5t5 66q0 38 -2.5 72t-11.5 60t-27.5 41t-49.5 15z" />
    <glyph glyph-name="beta" unicode="&#x3b2;" horiz-adv-x="443" 
d="M133 239q0 -22 1 -45t5 -45q5 -34 25.5 -56.5t59.5 -22.5q31 0 49.5 13t28 35.5t12 52.5t2.5 63q0 30 -3.5 55.5t-13 44t-25.5 29t-42 10.5h-54v70h43q23 0 38 8.5t23.5 22.5t12 32.5t3.5 38.5q0 22 -4 42t-13.5 35t-25.5 23.5t-39 8.5t-39 -8.5t-26 -22t-14 -30
t-4 -33.5v-321zM53 523q0 17 1 33.5t3 32.5q8 63 50 100.5t112 37.5q43 0 74 -14t50 -38t28 -56t9 -68q0 -54 -15.5 -86.5t-50.5 -52.5v-1q54 -15 70 -60t16 -120q0 -48 -5.5 -91.5t-22 -75.5t-46.5 -51t-78 -19q-35 0 -62.5 12t-50.5 40q-1 0 -1 -0.5t-1 -0.5v-190h-80v668
z" />
    <glyph glyph-name="psi" unicode="&#x3c8;" horiz-adv-x="547" 
d="M498 159q0 -38 -14.5 -68t-39.5 -51t-58.5 -33t-71.5 -13v-196h-81v196q-38 1 -71 13t-57.5 33t-38.5 50.5t-14 66.5v337h80v-327q0 -42 27.5 -69t73.5 -29v435h81v-435q45 4 74 29.5t29 68.5v327h81v-335v0z" />
    <glyph glyph-name="delta" unicode="&#x3b4;" horiz-adv-x="427" 
d="M342 637q-25 8 -47.5 13t-45.5 5q-93 0 -93 -63q0 -23 24 -45.5t70 -45.5q33 -17 61 -36.5t45 -43.5q23 -31 28.5 -74t5.5 -103q0 -33 -2 -61.5t-7 -57.5q-6 -33 -22.5 -58t-40 -41t-52 -24t-58.5 -8q-101 0 -141 64q-21 33 -26.5 80t-5.5 104q0 36 4.5 73.5t18.5 69.5
q12 27 31.5 49t55.5 36q-35 23 -53 51.5t-18 68.5q0 36 13 62t36.5 42.5t54.5 24.5t67 8q28 0 58.5 -5t60.5 -17zM216 427q-74 -15 -90 -78q-6 -21 -8 -50t-2 -66q0 -32 1.5 -58.5t8.5 -46.5q21 -61 88 -61q69 0 89 73q5 19 6 42t1 53v32.5t-1 32.5q-2 46 -23.5 80.5
t-69.5 46.5z" />
    <glyph glyph-name="epsilon" unicode="&#x3b5;" horiz-adv-x="380" 
d="M370 85q-19 -42 -58.5 -66t-96.5 -24q-81 0 -126 38.5t-45 111.5q0 15 4 31.5t12.5 32t22.5 28t34 20.5v1q-21 7 -34.5 18.5t-21 25t-10.5 29t-3 30.5q0 28 10.5 53.5t31 45t51 30.5t70.5 11q61 0 100 -24.5t58 -66.5l-33 -20l-33 -21q-11 23 -34.5 38.5t-54.5 15.5
q-42 0 -64 -18t-22 -47q0 -30 22.5 -46.5t57.5 -16.5h64v-70h-69q-15 0 -29 -5t-25 -15t-18 -25t-7 -34q0 -32 23.5 -53.5t67.5 -21.5q31 0 53.5 15t33.5 38z" />
    <glyph glyph-name="phi" unicode="&#x3c6;" horiz-adv-x="531" 
d="M225 -6q-71 3 -112.5 29t-60.5 82q-8 25 -10.5 63t-2.5 76q0 51 6 99t23 78q14 25 35.5 43t53.5 28l24 -71q-22 -8 -34.5 -25t-18.5 -41.5t-7.5 -55t-1.5 -64.5q0 -28 2 -52.5t7 -44.5q20 -68 97 -71v434h85q58 0 99 -23.5t60 -60.5q17 -33 21.5 -80.5t4.5 -98.5
q0 -43 -4 -82.5t-22 -75.5q-22 -43 -65.5 -63.5t-97.5 -22.5v-190h-81v190zM306 68q42 3 69.5 22.5t34.5 58.5q4 19 4.5 44t0.5 53q0 38 -2 70t-9 51q-11 30 -38.5 44.5t-59.5 15.5v-359z" />
    <glyph glyph-name="gamma" unicode="&#x3b3;" horiz-adv-x="396" 
d="M163 14l-25.5 95.5l-25 90l-26 88.5l-28.5 91q-5 15 -9 24t-8.5 13t-10.5 5t-16 1h-4l-6 70q13 5 25.5 6.5t22.5 1.5q32 0 48.5 -19t27.5 -51q9 -27 18.5 -61l19.5 -70l19 -71.5l17 -65.5h6l40 146l28 94.5l29 92.5h84l-74 -232.5l-72 -238.5v-220h-80v210z" />
    <glyph glyph-name="eta" unicode="&#x3b7;" horiz-adv-x="445" 
d="M312 0v323q0 45 -23 70.5t-67 25.5q-42 0 -66.5 -26.5t-24.5 -71.5v-321h-81v495h81v-55h3q21 29 52 44.5t67 15.5q30 0 55.5 -10.5t44.5 -30t29.5 -47t10.5 -62.5v-350h-81z" />
    <glyph glyph-name="iota" unicode="&#x3b9;" horiz-adv-x="217" 
d="M176 -1q-32 -3 -54.5 1t-36.5 16t-20.5 33.5t-6.5 54.5v390h81v-379q0 -29 8 -37t31 -8z" />
    <glyph glyph-name="xi" unicode="&#x3be;" horiz-adv-x="363" 
d="M221 728q21 0 44.5 -4.5t45 -15t39.5 -27t30 -39.5l-58 -46q-28 32 -54 42.5t-53 10.5q-42 0 -65 -30.5t-23 -77.5q0 -22 7 -42.5t21 -36.5t35 -25.5t50 -9.5h85v-70h-97q-30 0 -51 -13.5t-34.5 -34.5t-19.5 -47t-6 -51q0 -55 21 -82.5t60 -44.5l60 -24q30 -12 51 -22.5
t34 -22t18.5 -24t5.5 -28.5q0 -26 -16 -61t-51 -82l-62 34q20 35 29.5 54.5t9.5 30.5q0 10 -8.5 18t-22.5 15q-22 11 -48 20.5t-51 20.5q-58 24 -85.5 70.5t-27.5 124.5q0 26 4.5 52.5t15.5 51t29.5 45t45.5 34.5q-27 10 -43.5 27.5t-25.5 38.5t-12.5 43t-3.5 42
q0 40 11 74.5t33.5 59t55.5 38.5t77 14z" />
    <glyph glyph-name="kappa" unicode="&#x3ba;" horiz-adv-x="435" 
d="M342 0l-128 241l-78 -110v-131h-81v495h81v-239h2l175 239h94l-141 -190l166 -305h-90z" />
    <glyph glyph-name="lambda" unicode="&#x3bb;" horiz-adv-x="401" 
d="M401 -1q-11 -2 -21 -3t-18 -1q-31 0 -48.5 14t-27.5 48l-48 165q-9 32 -17 64t-18 64h-3q-11 -40 -23.5 -79.5t-23.5 -79.5l-63 -191h-85l159 479l-30 121q-7 26 -17.5 39t-39.5 13h-9t-10 -1l-4 71q13 3 25.5 4.5t22.5 1.5q43 0 67.5 -23.5t38.5 -74.5l143 -512
q4 -16 7.5 -26t8.5 -16t12 -8t19 -2z" />
    <glyph glyph-name="nu" unicode="&#x3bd;" horiz-adv-x="392" 
d="M236 0h-80l-151 495h85l59 -206l46 -172h3l47 174l56 204h86z" />
    <glyph glyph-name="omicron" unicode="&#x3bf;" horiz-adv-x="438" 
d="M222 501q59 0 93 -23.5t54 -58.5q7 -12 12 -31.5t8 -43t4.5 -49t1.5 -48.5q0 -14 -1 -34t-3.5 -42t-5.5 -42t-7 -32q-9 -29 -26.5 -49t-40 -32t-48 -17.5t-52.5 -5.5q-57 0 -93.5 24t-54.5 62q-13 27 -18 71.5t-5 93.5q0 47 4.5 90t15.5 70q20 45 61 71t101 26zM220 428
q-29 0 -52 -14t-34 -42q-7 -19 -10.5 -54.5t-3.5 -82.5q0 -33 1.5 -62t9.5 -49q11 -27 32 -42t53 -15q31 0 54.5 15t34.5 48q5 14 7 47.5t2 74.5q0 35 -2 66.5t-8 49.5q-11 30 -33 45t-51 15z" />
    <glyph glyph-name="omegatonos" unicode="&#x3ce;" horiz-adv-x="647" 
d="M459 500q47 -3 77 -21t47.5 -50t24.5 -78.5t7 -106.5q0 -53 -6.5 -99t-25 -79.5t-52 -52.5t-86.5 -19q-30 0 -65 14t-56 48h-3q-23 -32 -53 -47t-66 -15q-52 0 -84.5 19t-50.5 52t-24 79t-6 100q0 60 7 106.5t25 78.5t48.5 50t77.5 21q2 -19 3 -37.5l2 -37.5
q-22 -2 -37.5 -12.5t-25.5 -33t-14.5 -57.5t-4.5 -87q0 -78 17 -121t68 -43q26 0 41.5 9.5t23.5 25.5t10.5 37.5t2.5 44.5v173h80v-173q0 -23 3.5 -45t13 -38.5t25.5 -26.5t42 -10q28 0 45 11.5t26.5 33.5t13 52.5t3.5 69.5q0 50 -4 85t-13 57t-24.5 33.5t-39.5 14.5z
M281 572l70 173l76 -25l-98 -167z" />
    <glyph glyph-name="rho" unicode="&#x3c1;" horiz-adv-x="438" 
d="M221 428q-57 0 -83 -56q-8 -20 -10.5 -55t-3.5 -82q0 -33 1.5 -62t9.5 -49q11 -27 31.5 -42t52.5 -15q30 0 53.5 17t34.5 50q5 14 7.5 44.5t2.5 65.5q0 38 -2 71.5t-9 52.5q-11 30 -33.5 45t-51.5 15zM223 501q55 0 92 -22.5t57 -58.5q17 -34 21 -83.5t4 -100.5
q0 -38 -3.5 -69t-12.5 -57q-16 -51 -54 -83.5t-96 -32.5q-61 0 -103 51l-2 -1v-240h-81v440q0 47 5 92t14 68q19 45 59 71t100 26z" />
    <glyph glyph-name="sigma" unicode="&#x3c3;" horiz-adv-x="442" 
d="M347 425q-1 -1 -1 -4q18 -14 28 -35.5t13 -48.5q3 -23 3.5 -49t0.5 -52q0 -29 -2 -56t-7 -53q-7 -38 -23.5 -63t-39.5 -41t-50.5 -22.5t-57.5 -6.5q-72 0 -110 33.5t-52 86.5q-6 23 -8 59t-2 70q0 54 8.5 100.5t25.5 75.5q20 38 58 57t86 19h207v-70h-77zM216 416
q-25 0 -44.5 -10.5t-31.5 -33.5q-11 -21 -15.5 -54.5t-5.5 -82.5q0 -37 4 -68t15 -51q22 -47 78 -47q50 0 74 44q11 17 16 52.5t5 77.5t-4.5 75t-15.5 53q-23 45 -75 45z" />
    <glyph glyph-name="tau" unicode="&#x3c4;" horiz-adv-x="298" 
d="M180 423v-287q0 -31 12 -45.5t39 -14.5h34v-76h-52q-57 0 -85.5 32.5t-28.5 80.5v310h-88v72h272v-72h-103z" />
    <glyph glyph-name="theta" unicode="&#x3b8;" horiz-adv-x="426" 
d="M390 236q0 -38 -2 -72t-12 -63q-9 -32 -27 -53t-40.5 -33t-48 -17t-50.5 -5q-57 0 -93 24t-53 61q-14 28 -19 73t-5 92v229q0 47 4 90.5t15 69.5q19 46 58.5 71.5t99.5 25.5q55 0 91 -22t56 -59q17 -34 21.5 -83t4.5 -100v-229zM132 124q11 -27 31.5 -42t52.5 -15
q30 0 52 16.5t33 49.5q5 14 7 45t2 66v102h-190v-112q0 -33 2 -61.5t10 -48.5zM310 473q0 38 -2.5 71t-9.5 53q-21 59 -82 59q-59 0 -83 -55q-8 -21 -10 -56t-3 -82v-51h190v61z" />
    <glyph glyph-name="omega" unicode="&#x3c9;" horiz-adv-x="647" 
d="M459 500q47 -3 77 -21t47.5 -50t24.5 -78.5t7 -106.5q0 -53 -6.5 -99t-25 -79.5t-52 -52.5t-86.5 -19q-30 0 -65 14t-56 48h-3q-23 -32 -53 -47t-66 -15q-52 0 -84.5 19t-50.5 52t-24 79t-6 100q0 60 7 106.5t25 78.5t48.5 50t77.5 21q2 -19 3 -37.5l2 -37.5
q-22 -2 -37.5 -12.5t-25.5 -33t-14.5 -57.5t-4.5 -87q0 -78 17 -121t68 -43q26 0 41.5 9.5t23.5 25.5t10.5 37.5t2.5 44.5v173h80v-173q0 -23 3.5 -45t13 -38.5t25.5 -26.5t42 -10q28 0 45 11.5t26.5 33.5t13 52.5t3.5 69.5q0 50 -4 85t-13 57t-24.5 33.5t-39.5 14.5z" />
    <glyph glyph-name="sigma1" unicode="&#x3c2;" horiz-adv-x="380" 
d="M45 214q0 22 0.5 48.5t3.5 54t8.5 53t15.5 44.5q23 45 64 66t95 21t96.5 -25t57.5 -76l-67 -37q-13 31 -39 46t-53 15q-47 0 -70 -29q-16 -20 -23 -60t-7 -97q0 -29 2.5 -50t10 -37.5t21.5 -29.5t37 -26l39 -18l42 -19q42 -19 59.5 -40.5t17.5 -48.5q0 -32 -21 -69
t-47 -69l-62 36q19 29 28.5 47.5t9.5 35.5q0 14 -10.5 23t-34.5 20q-47 18 -80 35.5t-54 41.5t-30.5 58.5t-9.5 85.5z" />
    <glyph glyph-name="chi" unicode="&#x3c7;" horiz-adv-x="394" 
d="M295 0l-97 190l-98 -190h-91l145 254l-138 241h91l91 -181l90 181h91l-138 -242l145 -253h-91z" />
    <glyph glyph-name="upsilon" unicode="&#x3c5;" horiz-adv-x="445" 
d="M396 241q0 -33 -1 -55t-2.5 -36t-3 -23t-3.5 -17q-8 -32 -24.5 -54t-38.5 -36t-49 -20t-55 -6q-64 0 -103 28.5t-55 71.5q-5 17 -7.5 39.5t-3.5 45.5v316h80v-284q0 -17 0.5 -32.5t2.5 -23.5q4 -40 28.5 -63t62.5 -23q35 0 59.5 23.5t28.5 61.5q1 6 2 17.5t2 26t1 30
v29.5v238h79v-254z" />
    <glyph glyph-name="zeta" unicode="&#x3b6;" horiz-adv-x="358" 
d="M117 189q0 -38 20 -60t60 -39l82.5 -36.5t51 -26.5t25.5 -25.5t7 -33.5q0 -28 -22.5 -67t-55.5 -81l-58 38q19 27 32 54t13 39q0 13 -11 21.5t-34 17.5q-41 16 -77 31.5t-62 37t-41 52t-15 77.5q0 42 16.5 94.5t49 109.5t80.5 117t111 117h-225v76h333v-72
q-140 -123 -210 -236.5t-70 -204.5z" />
    <glyph glyph-name="iotadieresis" unicode="&#x3ca;" horiz-adv-x="217" 
d="M176 -1q-32 -3 -54.5 1t-36.5 16t-20.5 33.5t-6.5 54.5v390h81v-379q0 -29 8 -37t31 -8zM144 593v84h78v-84h-78zM-23 593v84h79v-84h-79z" />
    <glyph glyph-name="upsilondieresis" unicode="&#x3cb;" horiz-adv-x="446" 
d="M396 241q0 -33 -1 -55t-2.5 -36t-3 -23t-3.5 -17q-8 -32 -24.5 -54t-38.5 -36t-49 -20t-55 -6q-64 0 -103 28.5t-55 71.5q-5 17 -7.5 39.5t-3.5 45.5v316h80v-284q0 -17 0.5 -32.5t2.5 -23.5q4 -40 28.5 -63t62.5 -23q35 0 59.5 23.5t28.5 61.5q1 6 2 17.5t2 26t1 30
v29.5v238h79v-254zM265 593v84h78v-84h-78zM98 593v84h79v-84h-79z" />
    <glyph glyph-name="iotadieresistonos" unicode="&#x390;" horiz-adv-x="217" 
d="M176 -1q-32 -3 -54.5 1t-36.5 16t-20.5 33.5t-6.5 54.5v390h81v-379q0 -29 8 -37t31 -8zM170 589v85h78v-85h-78zM-51 589v85h78v-85h-78zM36 572l70 173l76 -25l-98 -167z" />
    <glyph glyph-name="upsilondieresistonos" unicode="&#x3b0;" horiz-adv-x="446" 
d="M396 241q0 -33 -1 -55t-2.5 -36t-3 -23t-3.5 -17q-8 -32 -24.5 -54t-38.5 -36t-49 -20t-55 -6q-64 0 -103 28.5t-55 71.5q-5 17 -7.5 39.5t-3.5 45.5v316h80v-284q0 -17 0.5 -32.5t2.5 -23.5q4 -40 28.5 -63t62.5 -23q35 0 59.5 23.5t28.5 61.5q1 6 2 17.5t2 26t1 30
v29.5v238h79v-254zM293 589v85h78v-85h-78zM72 589v85h78v-85h-78zM159 572l70 173l76 -25l-98 -167z" />
    <glyph glyph-name="Euro" unicode="&#x20ac;" horiz-adv-x="440" 
d="M136 378v-59h177v-52h-177v-77q0 -24 7 -45.5t20.5 -38t34 -26.5t47.5 -10q45 0 70.5 24t39.5 63l75 -23q-17 -66 -66.5 -103t-118.5 -37q-45 0 -80.5 14.5t-60 41.5t-38 65t-13.5 84v68h-39v52h39v59h-39v51h39v69q0 44 13 81.5t37.5 64.5t60.5 42t81 15q68 0 118 -36.5
t67 -102.5l-80 -23q-11 35 -36 60t-69 25q-29 0 -49.5 -10t-34 -27.5t-19.5 -40t-6 -46.5v-71h177v-51h-177z" />
    <glyph glyph-name="logicalnot" unicode="&#xac;" horiz-adv-x="440" 
d="M420 85h-62v178h-339v62h402z" />
    <glyph glyph-name="space" unicode=" " horiz-adv-x="210" 
 />
    <glyph glyph-name="circumflex" unicode="&#x2c6;" horiz-adv-x="491" 
d="M250 653l-125 -101l-37 33l141 146h50l133 -144l-37 -34z" />
    <glyph glyph-name="caron" unicode="&#x2c7;" horiz-adv-x="426" 
d="M344 732l37 -35l-133 -144h-50l-141 146l37 33l125 -100z" />
    <glyph glyph-name="breve" unicode="&#x2d8;" horiz-adv-x="426" 
d="M155 699q1 -10 6 -21t14 -20.5t21.5 -15.5t27.5 -6q17 0 30 6t22 15.5t13.5 20.5t4.5 21h67q-2 -20 -9.5 -42t-23 -40.5t-41 -31t-63.5 -12.5q-39 0 -65 12.5t-42 31t-23.5 40.5t-7.5 42h69z" />
    <glyph glyph-name="tilde" unicode="&#x2dc;" horiz-adv-x="427" 
d="M151 689q16 0 32 -6.5t31 -14.5t30 -14.5t29 -6.5q27 0 57 42l45 -28q-20 -41 -45.5 -61.5t-52.5 -20.5q-17 0 -33 6.5t-31.5 14l-30 14t-27.5 6.5q-15 0 -28.5 -9t-29.5 -29l-44 25q17 34 43 58t55 24z" />
    <glyph glyph-name="Dieresis" unicode="&#xf6cb;" horiz-adv-x="497" 
d="M291 748v84h78v-84h-78zM124 748v84h79v-84h-79z" />
    <glyph glyph-name="acute" unicode="&#xb4;" horiz-adv-x="424" 
d="M165 572l70 173l76 -25l-98 -167z" />
    <glyph glyph-name="cedilla" unicode="&#xb8;" horiz-adv-x="431" 
d="M236 26l-22 -73q26 -2 43 -10t27.5 -20t14.5 -25t4 -25t-5 -26t-16 -25.5t-29 -19t-43 -7.5h-14t-22.5 1.5t-26.5 5t-26 9.5l14 37q19 -9 36.5 -11t31.5 -2q17 0 30.5 10t13.5 27q0 20 -15.5 32t-48.5 10l-18 15l30 100z" />
    <glyph glyph-name="AE" unicode="&#xc6;" horiz-adv-x="801" 
d="M395 193h-206l-96 -193h-86l173 348l174 348h411v-78h-286v-228h245v-75h-245v-235h286v-80h-370v193zM226 268h169v349h-1z" />
    <glyph glyph-name="Ccedilla" unicode="&#xc7;" horiz-adv-x="469" 
d="M446 129q-17 -62 -64.5 -96t-113.5 -38l-12 -42q26 -2 43 -10t27.5 -20t14.5 -25t4 -25t-5 -26t-16 -25.5t-29 -19t-43 -7.5h-14t-22.5 1.5t-26.5 5t-26 9.5l14 37q19 -9 36.5 -11t31.5 -2q17 0 30.5 10t13.5 27q0 20 -15.5 32t-48.5 10l-18 15l20 67q-84 8 -130.5 64
t-46.5 142v292q0 44 13.5 82t39.5 65.5t64 43.5t86 16q71 0 122.5 -35t70.5 -98l-79 -31q-10 38 -38.5 61t-75.5 23q-29 0 -51.5 -10.5t-37.5 -27.5t-23 -40t-8 -47v-296q0 -25 8 -48t23 -40.5t37.5 -28t51.5 -10.5q45 0 74.5 23t39.5 62z" />
    <glyph glyph-name="Ntilde" unicode="&#xd1;" horiz-adv-x="562" 
d="M420 0l-199 366l-71 139h-3v-505h-84v696h81l195 -361l74 -143l4 1v503h83v-696h-80zM216 857q16 0 32 -6.5t31 -14.5t30 -14.5t29 -6.5q27 0 57 42l45 -28q-20 -41 -45.5 -61.5t-52.5 -20.5q-17 0 -33 6.5t-31.5 14l-30 14t-27.5 6.5q-15 0 -28.5 -9t-29.5 -29l-44 25
q17 34 43 58t55 24z" />
    <glyph glyph-name="multiply" unicode="&#xd7;" horiz-adv-x="484" 
d="M294 284l146 -146l-44 -44l-146 146l-150 -149l-43 43l150 150l-146 146l43 44l146 -146l149 150l44 -44z" />
    <glyph glyph-name="ae" unicode="&#xe6;" horiz-adv-x="690" 
d="M637 82q-20 -44 -59 -66t-89 -22q-55 0 -91.5 16.5t-59.5 53.5q-22 -24 -44 -38t-42.5 -21t-39.5 -9t-34 -2q-36 0 -63 11.5t-44.5 31.5t-26 46.5t-8.5 55.5q0 66 41 109.5t131 43.5h91v61q0 34 -22.5 53t-66.5 19q-29 0 -54.5 -10.5t-36.5 -36.5l-31.5 18.5l-31.5 19.5
q20 41 61.5 63t92.5 22q45 0 83 -12.5t61 -42.5q20 26 50 40.5t74 14.5q84 0 128.5 -53.5t44.5 -147.5v-77h-267q0 -33 4 -61.5t15 -49.5t31 -33t52 -12q27 0 50 13.5t37 36.5zM299 223h-97q-39 0 -64 -18.5t-25 -60.5q0 -33 22 -53.5t67 -20.5q42 0 69.5 19t27.5 66v68z
M571 288q0 68 -23.5 102.5t-68.5 34.5q-52 0 -71.5 -37t-21.5 -100h185z" />
    <glyph glyph-name="eth" unicode="&#xf0;" horiz-adv-x="440" 
d="M208 478q9 0 23 -2t29.5 -8t30 -16.5t25.5 -27.5h3q-1 35 -5.5 75t-20.5 67l-63 -45l-24 34l63 46q-17 23 -50.5 39t-77.5 24l11 65q38 -4 66.5 -12t49.5 -19t36.5 -24t26.5 -25l34 25l34 25l27 -34l-70 -51q24 -38 32.5 -113t8.5 -189q0 -62 -5 -119.5t-23.5 -101.5
t-56 -70.5t-102.5 -26.5q-49 0 -82.5 15.5t-54 45t-29.5 72.5t-9 99q0 50 7.5 96t27 80.5t53 55t85.5 20.5zM214 406q-20 0 -37 -6.5t-30.5 -25.5t-22 -53t-9.5 -89q0 -79 20 -122.5t76 -43.5q22 0 40.5 8.5t32 29t20.5 54t7 84.5q0 89 -24.5 126.5t-72.5 37.5z" />
    <glyph glyph-name="otilde" unicode="&#xf5;" horiz-adv-x="438" 
d="M222 501q59 0 93 -23.5t54 -58.5q7 -12 12 -31.5t8 -43t4.5 -49t1.5 -48.5q0 -14 -1 -34t-3.5 -42t-5.5 -42t-7 -32q-9 -29 -26.5 -49t-40 -32t-48 -17.5t-52.5 -5.5q-57 0 -93.5 24t-54.5 62q-13 27 -18 71.5t-5 93.5q0 47 4.5 90t15.5 70q20 45 61 71t101 26zM220 428
q-29 0 -52 -14t-34 -42q-7 -19 -10.5 -54.5t-3.5 -82.5q0 -33 1.5 -62t9.5 -49q11 -27 32 -42t53 -15q31 0 54.5 15t34.5 48q5 14 7 47.5t2 74.5q0 35 -2 66.5t-8 49.5q-11 30 -33 45t-51 15zM154 689q16 0 32 -6.5t31 -14.5t30 -14.5t29 -6.5q27 0 57 42l45 -28
q-20 -41 -45.5 -61.5t-52.5 -20.5q-17 0 -33 6.5t-31.5 14l-30 14t-27.5 6.5q-15 0 -28.5 -9t-29.5 -29l-44 25q17 34 43 58t55 24z" />
    <glyph glyph-name="dotlessi" unicode="&#x131;" horiz-adv-x="197" 
d="M58 0v495h81v-495h-81z" />
    <glyph glyph-name="florin" unicode="&#x192;" horiz-adv-x="440" 
d="M107 419h88l11 81q4 34 14 69.5t28.5 64t48.5 46.5t74 18q20 0 38.5 -3.5t32.5 -9.5l-9 -36.5t-8 -36.5q-13 5 -29 7.5t-29 2.5q-20 0 -34.5 -9.5t-24 -25t-15 -37t-8.5 -45.5l-12 -86h94v-69h-103l-31 -236q-6 -48 -16 -85.5t-27.5 -64t-43 -40.5t-62.5 -14
q-19 0 -42.5 5t-42.5 13q6 20 11 32.5l12 31.5q15 -6 28.5 -8.5t24.5 -2.5q38 0 54.5 34.5t24.5 97.5l31 237h-78v69z" />
    <glyph glyph-name="Adieresis" unicode="&#xc4;" horiz-adv-x="497" 
d="M403 0l-44 158h-222l-43 -158h-85l202 696h75l203 -696h-86zM289 413l-39 154h-4l-39 -153l-51 -181h184zM292 748v84h78v-84h-78zM125 748v84h79v-84h-79z" />
    <glyph glyph-name="Eacute" unicode="&#xc9;" horiz-adv-x="455" 
d="M65 0v696h369v-78h-286v-228h245v-75h-245v-234h286v-81h-369zM175 766l145 118l54 -59l-166 -98z" />
    <glyph glyph-name="Odieresis" unicode="&#xd6;" horiz-adv-x="497" 
d="M452 203q0 -48 -15 -86.5t-42 -66t-64.5 -42t-82.5 -14.5q-55 0 -94 18t-63.5 48.5t-35.5 70.5t-11 84v279q0 35 11 72t35 67t63 49t95 19q53 0 91.5 -18t63.5 -47.5t37 -66.5t12 -75v-291zM367 493q0 16 -5.5 38t-19 42t-36.5 34.5t-59 14.5t-59 -13.5t-37 -33
t-19.5 -42.5t-5.5 -42l1 -275q0 -30 6.5 -56.5t21.5 -46t38.5 -31t56.5 -11.5q24 0 45.5 8.5t37 24.5t25 39t9.5 52v298zM290 748v84h78v-84h-78zM123 748v84h79v-84h-79z" />
    <glyph glyph-name="Udieresis" unicode="&#xdc;" horiz-adv-x="519" 
d="M464 696v-494q0 -48 -15 -86.5t-42 -65.5t-64.5 -41.5t-82.5 -14.5q-48 0 -85.5 15.5t-64 43t-40.5 66t-14 83.5v494h83v-497q0 -25 8.5 -47.5t24 -40t38 -28t50.5 -10.5q53 0 86.5 33.5t33.5 92.5v497h84zM307 748v84h78v-84h-78zM140 748v84h79v-84h-79z" />
    <glyph glyph-name="eacute" unicode="&#xe9;" horiz-adv-x="424" 
d="M372 89q-20 -44 -59.5 -69.5t-89.5 -25.5t-85 14t-57.5 44.5t-33 78.5t-10.5 116q0 47 7.5 92.5t27 81.5t53.5 58t87 22q84 0 128.5 -53.5t44.5 -147.5v-77h-267q0 -33 4 -61.5t15 -49.5t31 -33t52 -12q27 0 49.5 17t36.5 40zM305 288q0 68 -23.5 102.5t-68.5 34.5
q-52 0 -71.5 -37t-21.5 -100h185zM174 572l70 173l76 -25l-98 -167z" />
    <glyph glyph-name="egrave" unicode="&#xe8;" horiz-adv-x="424" 
d="M372 89q-20 -44 -59.5 -69.5t-89.5 -25.5t-85 14t-57.5 44.5t-33 78.5t-10.5 116q0 47 7.5 92.5t27 81.5t53.5 58t87 22q84 0 128.5 -53.5t44.5 -147.5v-77h-267q0 -33 4 -61.5t15 -49.5t31 -33t52 -12q27 0 49.5 17t36.5 40zM305 288q0 68 -23.5 102.5t-68.5 34.5
q-52 0 -71.5 -37t-21.5 -100h185zM207 553l-98 167l76 25l70 -173z" />
    <glyph glyph-name="ecircumflex" unicode="&#xea;" horiz-adv-x="424" 
d="M372 89q-20 -44 -59.5 -69.5t-89.5 -25.5t-85 14t-57.5 44.5t-33 78.5t-10.5 116q0 47 7.5 92.5t27 81.5t53.5 58t87 22q84 0 128.5 -53.5t44.5 -147.5v-77h-267q0 -33 4 -61.5t15 -49.5t31 -33t52 -12q27 0 49.5 17t36.5 40zM305 288q0 68 -23.5 102.5t-68.5 34.5
q-52 0 -71.5 -37t-21.5 -100h185zM214 653l-125 -101l-37 33l141 146h50l133 -144l-37 -34z" />
    <glyph glyph-name="edieresis" unicode="&#xeb;" horiz-adv-x="424" 
d="M372 89q-20 -44 -59.5 -69.5t-89.5 -25.5t-85 14t-57.5 44.5t-33 78.5t-10.5 116q0 47 7.5 92.5t27 81.5t53.5 58t87 22q84 0 128.5 -53.5t44.5 -147.5v-77h-267q0 -33 4 -61.5t15 -49.5t31 -33t52 -12q27 0 49.5 17t36.5 40zM305 288q0 68 -23.5 102.5t-68.5 34.5
q-52 0 -71.5 -37t-21.5 -100h185zM260 593v84h78v-84h-78zM93 593v84h79v-84h-79z" />
    <glyph glyph-name="icircumflex" unicode="&#xee;" horiz-adv-x="274" 
d="M96 0v495h81v-495h-81zM137 653l-125 -101l-37 33l141 146h50l133 -144l-37 -34z" />
    <glyph glyph-name="idieresis" unicode="&#xef;" horiz-adv-x="205" 
d="M62 0v495h81v-495h-81zM147 593v84h78v-84h-78zM-20 593v84h79v-84h-79z" />
    <glyph glyph-name="ocircumflex" unicode="&#xf4;" horiz-adv-x="438" 
d="M222 501q59 0 93 -23.5t54 -58.5q7 -12 12 -31.5t8 -43t4.5 -49t1.5 -48.5q0 -14 -1 -34t-3.5 -42t-5.5 -42t-7 -32q-9 -29 -26.5 -49t-40 -32t-48 -17.5t-52.5 -5.5q-57 0 -93.5 24t-54.5 62q-13 27 -18 71.5t-5 93.5q0 47 4.5 90t15.5 70q20 45 61 71t101 26zM220 428
q-29 0 -52 -14t-34 -42q-7 -19 -10.5 -54.5t-3.5 -82.5q0 -33 1.5 -62t9.5 -49q11 -27 32 -42t53 -15q31 0 54.5 15t34.5 48q5 14 7 47.5t2 74.5q0 35 -2 66.5t-8 49.5q-11 30 -33 45t-51 15zM215 653l-125 -101l-37 33l141 146h50l133 -144l-37 -34z" />
    <glyph glyph-name="odieresis" unicode="&#xf6;" horiz-adv-x="438" 
d="M222 501q59 0 93 -23.5t54 -58.5q7 -12 12 -31.5t8 -43t4.5 -49t1.5 -48.5q0 -14 -1 -34t-3.5 -42t-5.5 -42t-7 -32q-9 -29 -26.5 -49t-40 -32t-48 -17.5t-52.5 -5.5q-57 0 -93.5 24t-54.5 62q-13 27 -18 71.5t-5 93.5q0 47 4.5 90t15.5 70q20 45 61 71t101 26zM220 428
q-29 0 -52 -14t-34 -42q-7 -19 -10.5 -54.5t-3.5 -82.5q0 -33 1.5 -62t9.5 -49q11 -27 32 -42t53 -15q31 0 54.5 15t34.5 48q5 14 7 47.5t2 74.5q0 35 -2 66.5t-8 49.5q-11 30 -33 45t-51 15zM260 593v84h78v-84h-78zM93 593v84h79v-84h-79z" />
    <glyph glyph-name="ugrave" unicode="&#xf9;" horiz-adv-x="442" 
d="M309 0v53h-3q-21 -30 -52.5 -44.5t-66.5 -14.5q-30 0 -56 10.5t-44.5 30t-29.5 47t-11 62.5v350h81v-323q0 -45 24.5 -71.5t66.5 -26.5q41 0 66 27t25 73v321h80v-494h-80zM212 553l-98 167l76 25l70 -173z" />
    <glyph glyph-name="ucircumflex" unicode="&#xfb;" horiz-adv-x="442" 
d="M309 0v53h-3q-21 -30 -52.5 -44.5t-66.5 -14.5q-30 0 -56 10.5t-44.5 30t-29.5 47t-11 62.5v350h81v-323q0 -45 24.5 -71.5t66.5 -26.5q41 0 66 27t25 73v321h80v-494h-80zM215 653l-125 -101l-37 33l141 146h50l133 -144l-37 -34z" />
    <glyph glyph-name="udieresis" unicode="&#xfc;" horiz-adv-x="442" 
d="M309 0v53h-3q-21 -30 -52.5 -44.5t-66.5 -14.5q-30 0 -56 10.5t-44.5 30t-29.5 47t-11 62.5v350h81v-323q0 -45 24.5 -71.5t66.5 -26.5q41 0 66 27t25 73v321h80v-494h-80zM257 593v84h78v-84h-78zM90 593v84h79v-84h-79z" />
    <glyph glyph-name="Alpha" unicode="&#x391;" horiz-adv-x="497" 
d="M403 0l-44 158h-222l-43 -158h-85l202 696h75l203 -696h-86zM289 413l-39 154h-4l-39 -153l-51 -181h184z" />
    <glyph glyph-name="Beta" unicode="&#x392;" horiz-adv-x="506" 
d="M465 199q0 -98 -50.5 -148.5t-136.5 -50.5h-213v696h200q96 0 142.5 -49.5t46.5 -133.5q0 -48 -18 -85t-71 -63v-3q27 -7 46 -23t31 -37.5t17.5 -48t5.5 -54.5zM148 620v-223h109q60 0 87.5 31t27.5 82q0 50 -27.5 80t-87.5 30h-109zM148 325v-244h121q33 0 55 10t35 27
t18.5 39.5t5.5 48.5q0 52 -26.5 85.5t-89.5 33.5h-119z" />
    <glyph glyph-name="Epsilon" unicode="&#x395;" horiz-adv-x="455" 
d="M65 0v696h369v-78h-286v-228h245v-75h-245v-234h286v-81h-369z" />
    <glyph glyph-name="Zeta" unicode="&#x396;" horiz-adv-x="413" 
d="M27 0v77l271 543h-260v76h350v-72l-271 -545h270v-79h-360z" />
    <glyph glyph-name="Eta" unicode="&#x397;" horiz-adv-x="532" 
d="M383 0v317h-235v-317h-83v696h83v-306h235v306h84v-696h-84z" />
    <glyph glyph-name="Iota" unicode="&#x399;" horiz-adv-x="217" 
d="M66 0v696h84v-696h-84z" />
    <glyph glyph-name="Kappa" unicode="&#x39a;" horiz-adv-x="516" 
d="M415 0l-166 345l-50.5 -74.5t-50.5 -73.5v-197h-84v696h84v-365q1 0 1.5 0.5t1.5 0.5l119 182.5l120 181.5h91l-89.5 -135.5l-89.5 -135.5l205 -425h-92z" />
    <glyph glyph-name="Mu" unicode="&#x39c;" horiz-adv-x="656" 
d="M514 0v486l-4 -1l-55 -134l-96 -215h-57l-97 219l-53 131l-4 -1v-485h-83v696h84l115 -263l66 -161h3l68 163l113 261h83v-696h-83z" />
    <glyph glyph-name="Upsilondieresis" unicode="&#x3ab;" horiz-adv-x="442" 
d="M223 386l51 134l72 176h87l-172 -406v-290h-81v290l-173 406h88l37 -90l37 -90q12 -30 24.5 -65l23.5 -65h6zM97 748v84h79v-84h-79zM264 748v84h78v-84h-78z" />
    <glyph glyph-name="alphatonos" unicode="&#x3ac;" horiz-adv-x="445" 
d="M307 448q1 0 1 0.5t1 0.5v46h81v-495h-81v51q-1 0 -1 0.5t-1 0.5q-23 -31 -52.5 -44t-59.5 -13q-48 0 -78 19.5t-46.5 52.5t-22 75t-5.5 87q0 48 5.5 96.5t22 87.5t46.5 63.5t80 24.5q67 0 110 -53zM219 425q-33 0 -51 -19.5t-27 -48t-11.5 -61.5t-2.5 -60
q-1 -76 18.5 -119t69.5 -43q27 0 45 12t29 33.5t16 51.5t5 66q0 38 -2.5 72t-11.5 60t-27.5 41t-49.5 15zM181 572l70 173l76 -25l-98 -167z" />
    <glyph glyph-name="Nu" unicode="&#x39d;" horiz-adv-x="562" 
d="M420 0l-199 366l-71 139h-3v-505h-84v696h81l195 -361l74 -143l4 1v503h83v-696h-80z" />
    <glyph glyph-name="Omicron" unicode="&#x39f;" horiz-adv-x="497" 
d="M452 203q0 -48 -15 -86.5t-42 -66t-64.5 -42t-82.5 -14.5q-55 0 -94 18t-63.5 48.5t-35.5 70.5t-11 84v279q0 35 11 72t35 67t63 49t95 19q53 0 91.5 -18t63.5 -47.5t37 -66.5t12 -75v-291zM367 493q0 16 -5.5 38t-19 42t-36.5 34.5t-59 14.5t-59 -13.5t-37 -33
t-19.5 -42.5t-5.5 -42l1 -275q0 -30 6.5 -56.5t21.5 -46t38.5 -31t56.5 -11.5q24 0 45.5 8.5t37 24.5t25 39t9.5 52v298z" />
    <glyph glyph-name="Rho" unicode="&#x3a1;" horiz-adv-x="484" 
d="M466 487q0 -40 -11 -77.5t-34.5 -66t-61.5 -46t-92 -17.5h-119v-280h-83v696h198q97 0 150 -51.5t53 -157.5zM382 488q0 60 -28 95t-93 35h-113v-260h114q35 0 58 11t37 29t19.5 41.5t5.5 48.5z" />
    <glyph glyph-name="Tau" unicode="&#x3a4;" horiz-adv-x="403" 
d="M243 620v-620h-83v620h-159v76h401v-76h-159z" />
    <glyph glyph-name="Upsilon" unicode="&#x3a5;" horiz-adv-x="442" 
d="M223 386l51 134l72 176h87l-172 -406v-290h-81v290l-173 406h88l37 -90l37 -90q12 -30 24.5 -65l23.5 -65h6z" />
    <glyph glyph-name="Chi" unicode="&#x3a7;" horiz-adv-x="450" 
d="M356 0l-131 282l-130 -282h-91l177 361l-165 335h91l118 -259l118 259h91l-166 -335l178 -361h-90z" />
    <glyph glyph-name="Alphatonos" unicode="&#x386;" horiz-adv-x="497" 
d="M403 0l-44 158h-222l-43 -158h-85l202 696h75l203 -696h-86zM289 413l-39 154h-4l-39 -153l-51 -181h184zM-21 552l70 173l76 -25l-98 -167z" />
    <glyph glyph-name="Epsilontonos" unicode="&#x388;" horiz-adv-x="455" 
d="M65 0v696h369v-78h-286v-228h245v-75h-245v-234h286v-81h-369zM-108 552l70 173l76 -25l-98 -167z" />
    <glyph glyph-name="Etatonos" unicode="&#x389;" horiz-adv-x="532" 
d="M383 0v317h-235v-317h-83v696h83v-306h235v306h84v-696h-84zM-111 552l70 173l76 -25l-98 -167z" />
    <glyph glyph-name="Iotatonos" unicode="&#x38a;" horiz-adv-x="217" 
d="M66 0v696h84v-696h-84zM-113 552l70 173l76 -25l-98 -167z" />
    <glyph glyph-name="Omicrontonos" unicode="&#x38c;" horiz-adv-x="497" 
d="M452 203q0 -48 -15 -86.5t-42 -66t-64.5 -42t-82.5 -14.5q-55 0 -94 18t-63.5 48.5t-35.5 70.5t-11 84v279q0 35 11 72t35 67t63 49t95 19q53 0 91.5 -18t63.5 -47.5t37 -66.5t12 -75v-291zM367 493q0 16 -5.5 38t-19 42t-36.5 34.5t-59 14.5t-59 -13.5t-37 -33
t-19.5 -42.5t-5.5 -42l1 -275q0 -30 6.5 -56.5t21.5 -46t38.5 -31t56.5 -11.5q24 0 45.5 8.5t37 24.5t25 39t9.5 52v298zM-90 552l70 173l76 -25l-98 -167z" />
    <glyph glyph-name="Upsilontonos" unicode="&#x38e;" horiz-adv-x="442" 
d="M223 386l51 134l72 176h87l-172 -406v-290h-81v290l-173 406h88l37 -90l37 -90q12 -30 24.5 -65l23.5 -65h6zM-147 552l70 173l76 -25l-98 -167z" />
    <glyph glyph-name="epsilontonos" unicode="&#x3ad;" horiz-adv-x="380" 
d="M370 85q-19 -42 -58.5 -66t-96.5 -24q-81 0 -126 38.5t-45 111.5q0 15 4 31.5t12.5 32t22.5 28t34 20.5v1q-21 7 -34.5 18.5t-21 25t-10.5 29t-3 30.5q0 28 10.5 53.5t31 45t51 30.5t70.5 11q61 0 100 -24.5t58 -66.5l-33 -20l-33 -21q-11 23 -34.5 38.5t-54.5 15.5
q-42 0 -64 -18t-22 -47q0 -30 22.5 -46.5t57.5 -16.5h64v-70h-69q-15 0 -29 -5t-25 -15t-18 -25t-7 -34q0 -32 23.5 -53.5t67.5 -21.5q31 0 53.5 15t33.5 38zM163 572l70 173l76 -25l-98 -167z" />
    <glyph glyph-name="etatonos" unicode="&#x3ae;" horiz-adv-x="445" 
d="M312 0v323q0 45 -23 70.5t-67 25.5q-42 0 -66.5 -26.5t-24.5 -71.5v-321h-81v495h81v-55h3q21 29 52 44.5t67 15.5q30 0 55.5 -10.5t44.5 -30t29.5 -47t10.5 -62.5v-350h-81zM156 572l70 173l76 -25l-98 -167z" />
    <glyph glyph-name="iotatonos" unicode="&#x3af;" horiz-adv-x="217" 
d="M176 -1q-32 -3 -54.5 1t-36.5 16t-20.5 33.5t-6.5 54.5v390h81v-379q0 -29 8 -37t31 -8zM67 572l70 173l76 -25l-98 -167z" />
    <glyph glyph-name="omicrontonos" unicode="&#x3cc;" horiz-adv-x="438" 
d="M222 501q59 0 93 -23.5t54 -58.5q7 -12 12 -31.5t8 -43t4.5 -49t1.5 -48.5q0 -14 -1 -34t-3.5 -42t-5.5 -42t-7 -32q-9 -29 -26.5 -49t-40 -32t-48 -17.5t-52.5 -5.5q-57 0 -93.5 24t-54.5 62q-13 27 -18 71.5t-5 93.5q0 47 4.5 90t15.5 70q20 45 61 71t101 26zM220 428
q-29 0 -52 -14t-34 -42q-7 -19 -10.5 -54.5t-3.5 -82.5q0 -33 1.5 -62t9.5 -49q11 -27 32 -42t53 -15q31 0 54.5 15t34.5 48q5 14 7 47.5t2 74.5q0 35 -2 66.5t-8 49.5q-11 30 -33 45t-51 15zM176 572l70 173l76 -25l-98 -167z" />
    <glyph glyph-name="Omegatonos" unicode="&#x38f;" horiz-adv-x="497" 
d="M291 93q37 13 57 46t20 81v270q0 58 -32 94.5t-88 36.5q-59 0 -90 -38t-31 -93v-270q0 -44 20.5 -78.5t58.5 -48.5l-1 -93h-172v78h71q-34 22 -47 64t-13 87v262q0 46 14.5 84.5t41.5 66.5t64.5 44t83.5 16q43 0 80.5 -15t65 -42.5t43 -66.5t15.5 -87v-262
q0 -48 -13.5 -87t-46.5 -64h71v-78h-172v93zM-98 552l70 173l76 -25l-98 -167z" />
    <glyph glyph-name="upsilontonos" unicode="&#x3cd;" horiz-adv-x="446" 
d="M396 241q0 -33 -1 -55t-2.5 -36t-3 -23t-3.5 -17q-8 -32 -24.5 -54t-38.5 -36t-49 -20t-55 -6q-64 0 -103 28.5t-55 71.5q-5 17 -7.5 39.5t-3.5 45.5v316h80v-284q0 -17 0.5 -32.5t2.5 -23.5q4 -40 28.5 -63t62.5 -23q35 0 59.5 23.5t28.5 61.5q1 6 2 17.5t2 26t1 30
v29.5v238h79v-254zM182 572l70 173l76 -25l-98 -167z" />
    <glyph glyph-name="exclam" unicode="!" horiz-adv-x="235" 
d="M149 177h-63l-8 519h79zM76 0v89h85v-89h-85z" />
    <glyph glyph-name="guilsinglleft" unicode="&#x2039;" horiz-adv-x="289" 
d="M161 46l-117 186l117 186h78l-115 -186l115 -186h-78z" />
    <glyph glyph-name="guilsinglright" unicode="&#x203a;" horiz-adv-x="279" 
d="M45 46l114 186l-114 186h78l117 -186l-117 -186h-78z" />
    <glyph glyph-name="exclamdown" unicode="&#xa1;" horiz-adv-x="235" 
d="M157 0h-79l8 519h63zM161 696v-89h-85v89h85z" />
    <glyph glyph-name="quotesinglbase" unicode="&#x201a;" horiz-adv-x="223" 
d="M104 -116h-47l28 112h-25v104h95v-102z" />
    <glyph glyph-name="quotedblbase" unicode="&#x201e;" horiz-adv-x="371" 
d="M104 -116h-47l28 112h-25v104h95v-102zM259 -116h-47l28 112h-25v104h95v-102z" />
    <glyph glyph-name="questiondown" unicode="&#xbf;" horiz-adv-x="434" 
d="M56 -33q0 24 3.5 43t10 35.5t16 31.5l21.5 33q11 16 25 32.5t26.5 34.5t21 36.5t8.5 38.5v60h83v-47q0 -36 -8.5 -64t-28.5 -54l-35 -46t-28 -39.5t-19.5 -35.5t-8.5 -35q0 -21 3 -42.5t13 -39t28.5 -28.5t50.5 -11q23 0 41.5 9.5t31 25t19.5 35.5t8 40l83 -12
q-6 -45 -23 -78.5t-42 -55.5t-56.5 -32.5t-66.5 -10.5q-87 0 -132 48t-45 128zM273 492v-89h-84v89h84z" />
    <glyph glyph-name="daggerdbl" unicode="&#x2021;" horiz-adv-x="412" 
d="M169 394h-152v68h152v234h75v-234h151v-68h-151v-192h151v-68h-151v-331h-75v331h-152v68h152v192z" />
    <glyph glyph-name="OE" unicode="&#x152;" horiz-adv-x="714" 
d="M303 0q-26 -6 -55 -6q-55 0 -94 18t-63.5 48t-35.5 69.5t-11 83.5v283q0 35 11 71.5t35 66t63 48.5t95 19q14 0 26.5 -1.5t24.5 -3.5h369v-78h-286v-228h245v-75h-245v-234h286v-81h-365zM248 72q26 0 51 11v529q-23 10 -51 10q-34 0 -57 -12t-37.5 -30.5t-20.5 -40.5
t-6 -41v-284q0 -30 6.5 -56t20.5 -45t37.5 -30t56.5 -11z" />
    <glyph glyph-name="brokenbar" unicode="&#xa6;" horiz-adv-x="207" 
d="M72 297v419h64v-419h-64zM136 256v-418h-64v418h64z" />
    <glyph glyph-name="emdash" unicode="&#x2014;" horiz-adv-x="1000" 
d="M20 230v76h960v-76h-960z" />
    <glyph glyph-name="Thorn" unicode="&#xde;" horiz-adv-x="484" 
d="M464 357q0 -40 -11 -77.5t-34.5 -66t-61.5 -46t-92 -17.5h-119l2 -150h-83v726h83l-2 -160h115q97 0 150 -51.5t53 -157.5zM380 358q0 60 -28 95t-93 35h-113v-260h114q35 0 58 11t37 29t19.5 41.5t5.5 48.5z" />
    <glyph glyph-name="thorn" unicode="&#xfe;" horiz-adv-x="432" 
d="M127 448q22 28 50 40.5t63 12.5q49 0 78 -20.5t45 -55t21 -80.5t5 -96q0 -47 -5.5 -92.5t-22.5 -81.5t-48 -58t-81 -22q-62 0 -105 49h-2v-244h-81v901h81v-252q1 0 1 -0.5t1 -0.5zM214 75q31 0 49 14t28 37.5t13 54.5t3 66q0 36 -3 68t-12.5 56t-27.5 38.5t-49 14.5
q-36 0 -55 -18.5t-27 -46.5t-8.5 -61.5t-0.5 -62.5q0 -27 2.5 -55t11.5 -51.5t27 -38.5t49 -15z" />
    <glyph glyph-name="Circumflex" unicode="&#xf6c0;" horiz-adv-x="497" 
d="M248 813l-130 -80l-31 33l140 123h50l133 -121l-32 -35z" />
    <glyph glyph-name="commaaccent" unicode="&#xf6c3;" horiz-adv-x="506" 
d="M239 -254h-47l31 89h-28v103h95v-101z" />
    <glyph glyph-name="Acute" unicode="&#xf6c9;" horiz-adv-x="451" 
d="M175 766l145 118l54 -59l-166 -98z" />
    <glyph glyph-name="Caron" unicode="&#xf6ca;" horiz-adv-x="497" 
d="M376 891l32 -34l-133 -122h-50l-140 124l31 33l130 -81z" />
    <glyph glyph-name="DieresisAcute" unicode="&#xf6cc;" horiz-adv-x="391" 
d="M282 777v85h78v-85h-78zM28 777v85h78v-85h-78zM115 782l114 154l67 -44l-139 -141z" />
    <glyph glyph-name="DieresisGrave" unicode="&#xf6cd;" horiz-adv-x="391" 
d="M231 748l-131 140l68 42l105 -154zM28 781v84h77v-84h-77zM280 781v84h78v-84h-78z" />
    <glyph glyph-name="Grave" unicode="&#xf6ce;" horiz-adv-x="598" 
d="M314 738l-170 103l59 61l148 -122z" />
    <glyph glyph-name="Hungarumlaut" unicode="&#xf6cf;" horiz-adv-x="598" 
d="M126 767l145 117l54 -59l-166 -97zM298 767l145 117l54 -59l-166 -97z" />
    <glyph glyph-name="Macron" unicode="&#xf6d0;" horiz-adv-x="497" 
d="M120 763v75h248v-75h-248z" />
    <glyph glyph-name="cyrBreve" unicode="&#xf6d1;" horiz-adv-x="497" 
d="M176 876q1 -10 6 -21t14 -20.5t21.5 -15.5t27.5 -6q17 0 30 6t22 15.5t13.5 20.5t4.5 21h67q-2 -20 -9.5 -42t-23 -40.5t-41 -31t-63.5 -12.5q-39 0 -65 12.5t-42 31t-23.5 40.5t-7.5 42h69z" />
    <glyph glyph-name="cyrbreve" unicode="&#xf6d4;" horiz-adv-x="426" 
d="M160 699q1 -10 6 -21t14 -20.5t21.5 -15.5t27.5 -6q17 0 30 6t22 15.5t13.5 20.5t4.5 21h67q-2 -20 -9.5 -42t-23 -40.5t-41 -31t-63.5 -12.5q-39 0 -65 12.5t-42 31t-23.5 40.5t-7.5 42h69z" />
    <glyph glyph-name="dotaccent" unicode="&#x2d9;" horiz-adv-x="426" 
d="M189 593v84h78v-84h-78z" />
    <glyph glyph-name="ring" unicode="&#x2da;" horiz-adv-x="426" 
d="M230 551q-38 0 -63.5 24.5t-25.5 59.5q0 18 7 33.5t19 27t28 18.5t35 7q17 0 32.5 -7t27 -18.5t18.5 -27t7 -33.5q0 -35 -25 -59.5t-60 -24.5zM230 680q-20 0 -33.5 -13t-13.5 -32q0 -18 13.5 -30.5t33.5 -12.5q18 0 31 12.5t13 30.5q0 19 -13 32t-31 13z" />
    <glyph glyph-name="ogonek" unicode="&#x2db;" horiz-adv-x="281" 
d="M59 -92q0 20 9 43.5t30 52.5h58l1 -2q-33 -47 -33 -79q0 -21 12.5 -32.5t35.5 -11.5q22 0 57 16l20 -50q-20 -11 -44 -18t-49 -7q-43 0 -70 26t-27 62z" />
    <glyph glyph-name="hungarumlaut" unicode="&#x2dd;" horiz-adv-x="426" 
d="M130 572l70 173l76 -25l-98 -167zM259 572l70 173l76 -25l-98 -167z" />
    <glyph glyph-name="macron" unicode="&#xaf;" horiz-adv-x="426" 
d="M100 588v75h248v-75h-248z" />
    <glyph glyph-name="Scaron" unicode="&#x160;" horiz-adv-x="478" 
d="M444 190q0 -91 -54.5 -144t-152.5 -53q-81 0 -135 33t-80 90l74 43q20 -35 54 -60t88 -25q64 0 92 33t28 83q0 28 -8.5 47.5t-24.5 33.5t-39 24.5t-51 19.5q-52 16 -88.5 33.5t-59.5 40.5t-33.5 52.5t-10.5 69.5q0 42 14 77t40.5 60.5t63.5 39.5t83 14q77 0 124 -27.5
t70 -69.5l-71 -49q-20 35 -50 50.5t-77 15.5q-58 0 -85 -32t-27 -79q0 -27 12 -46t33 -32.5t49 -24t61 -20.5q45 -14 76 -32t49.5 -42t27 -54.5t8.5 -69.5zM356 891l32 -34l-133 -122h-50l-140 124l31 33l130 -81z" />
    <glyph glyph-name="Zcaron" unicode="&#x17d;" horiz-adv-x="413" 
d="M27 0v77l271 543h-260v76h350v-72l-271 -545h270v-79h-360zM342 891l32 -34l-133 -122h-50l-140 124l31 33l130 -81z" />
    <glyph glyph-name="scaron" unicode="&#x161;" horiz-adv-x="405" 
d="M93 136q16 -32 42.5 -50t66.5 -18q42 0 65.5 17.5t23.5 56.5q0 19 -7 31t-19.5 20t-29.5 13.5l-37 11.5q-36 9 -65 20.5t-50 28t-32 39t-11 54.5q0 66 43 103.5t118 37.5q67 0 104.5 -25t54.5 -70l-63 -39q-29 60 -97 60q-45 0 -62.5 -20.5t-17.5 -46.5q0 -17 9 -28
t24.5 -18.5t36 -13.5l42.5 -12q35 -8 61 -19.5t43.5 -29t26 -41.5t8.5 -58q0 -67 -45 -107t-126 -40q-64 0 -107 27t-66 78zM317 732l37 -35l-133 -144h-50l-141 146l37 33l125 -100z" />
    <glyph glyph-name="zcaron" unicode="&#x17e;" horiz-adv-x="370" 
d="M29 0v71l222 352h-208v71h299v-69l-221 -349h221v-76h-313zM314 732l37 -35l-133 -144h-50l-141 146l37 33l125 -100z" />
    <glyph glyph-name="Ydieresis" unicode="&#x178;" horiz-adv-x="442" 
d="M223 386l51 134l72 176h87l-172 -406v-290h-81v290l-173 406h88l37 -90l37 -90q12 -30 24.5 -65l23.5 -65h6zM98 748v84h79v-84h-79zM265 748v84h78v-84h-78z" />
    <glyph glyph-name="Agrave" unicode="&#xc0;" horiz-adv-x="497" 
d="M403 0l-44 158h-222l-43 -158h-85l202 696h75l203 -696h-86zM289 413l-39 154h-4l-39 -153l-51 -181h184zM253 738l-170 103l59 61l148 -122z" />
    <glyph glyph-name="Aacute" unicode="&#xc1;" horiz-adv-x="497" 
d="M403 0l-44 158h-222l-43 -158h-85l202 696h75l203 -696h-86zM289 413l-39 154h-4l-39 -153l-51 -181h184zM225 766l145 118l54 -59l-166 -98z" />
    <glyph glyph-name="Acircumflex" unicode="&#xc2;" horiz-adv-x="497" 
d="M403 0l-44 158h-222l-43 -158h-85l202 696h75l203 -696h-86zM289 413l-39 154h-4l-39 -153l-51 -181h184zM248 813l-130 -80l-31 33l140 123h50l133 -121l-32 -35z" />
    <glyph glyph-name="Atilde" unicode="&#xc3;" horiz-adv-x="497" 
d="M403 0l-44 158h-222l-43 -158h-85l202 696h75l203 -696h-86zM289 413l-39 154h-4l-39 -153l-51 -181h184zM181 859q16 0 32 -6.5t31 -14.5t30 -14.5t29 -6.5q27 0 57 42l45 -28q-20 -41 -45.5 -61.5t-52.5 -20.5q-17 0 -33 6.5t-31.5 14l-30 14t-27.5 6.5q-15 0 -28.5 -9
t-29.5 -29l-44 25q17 34 43 58t55 24z" />
    <glyph glyph-name="Aring" unicode="&#xc5;" horiz-adv-x="497" 
d="M403 0l-44 158h-222l-43 -158h-85l202 696h75l203 -696h-86zM289 413l-39 154h-4l-39 -153l-51 -181h184zM249 719q-38 0 -63.5 24.5t-25.5 59.5q0 18 7 33.5t19 27t28 18.5t35 7q17 0 32.5 -7t27 -18.5t18.5 -27t7 -33.5q0 -35 -25 -59.5t-60 -24.5zM249 848
q-20 0 -33.5 -13t-13.5 -32q0 -18 13.5 -30.5t33.5 -12.5q18 0 31 12.5t13 30.5q0 19 -13 32t-31 13z" />
    <glyph glyph-name="Egrave" unicode="&#xc8;" horiz-adv-x="455" 
d="M65 0v696h369v-78h-286v-228h245v-75h-245v-234h286v-81h-369zM260 738l-170 103l59 61l148 -122z" />
    <glyph glyph-name="Ecircumflex" unicode="&#xca;" horiz-adv-x="455" 
d="M65 0v696h369v-78h-286v-228h245v-75h-245v-234h286v-81h-369zM248 813l-130 -80l-31 33l140 123h50l133 -121l-32 -35z" />
    <glyph glyph-name="Edieresis" unicode="&#xcb;" horiz-adv-x="455" 
d="M65 0v696h369v-78h-286v-228h245v-75h-245v-234h286v-81h-369zM294 763v84h78v-84h-78zM127 763v84h79v-84h-79z" />
    <glyph glyph-name="Igrave" unicode="&#xcc;" horiz-adv-x="217" 
d="M66 0v696h84v-696h-84zM116 738l-170 103l59 61l148 -122z" />
    <glyph glyph-name="Iacute" unicode="&#xcd;" horiz-adv-x="217" 
d="M66 0v696h84v-696h-84zM78 766l145 118l54 -59l-166 -98z" />
    <glyph glyph-name="Icircumflex" unicode="&#xce;" horiz-adv-x="217" 
d="M66 0v696h84v-696h-84zM104 813l-130 -80l-31 33l140 123h50l133 -121l-32 -35z" />
    <glyph glyph-name="Idieresis" unicode="&#xcf;" horiz-adv-x="217" 
d="M66 0v696h84v-696h-84zM149 763v84h78v-84h-78zM-18 763v84h79v-84h-79z" />
    <glyph glyph-name="Eth" unicode="&#xd0;" horiz-adv-x="521" 
d="M6 391h58v305h195q70 0 120 -25.5t74 -85.5q15 -40 16.5 -97.5t1.5 -133.5q0 -79 -1 -136t-16 -98q-14 -35 -35 -58t-48 -36.5t-59 -19.5t-66 -6h-182v328h-58v63zM387 467q0 81 -35 116.5t-101 35.5h-103v-228h121v-63h-121v-250h103q74 0 105 39.5t31 109.5v240z" />
    <glyph glyph-name="Ograve" unicode="&#xd2;" horiz-adv-x="497" 
d="M452 203q0 -48 -15 -86.5t-42 -66t-64.5 -42t-82.5 -14.5q-55 0 -94 18t-63.5 48.5t-35.5 70.5t-11 84v279q0 35 11 72t35 67t63 49t95 19q53 0 91.5 -18t63.5 -47.5t37 -66.5t12 -75v-291zM367 493q0 16 -5.5 38t-19 42t-36.5 34.5t-59 14.5t-59 -13.5t-37 -33
t-19.5 -42.5t-5.5 -42l1 -275q0 -30 6.5 -56.5t21.5 -46t38.5 -31t56.5 -11.5q24 0 45.5 8.5t37 24.5t25 39t9.5 52v298zM312 738l-170 103l59 61l148 -122z" />
    <glyph glyph-name="Oacute" unicode="&#xd3;" horiz-adv-x="497" 
d="M452 203q0 -48 -15 -86.5t-42 -66t-64.5 -42t-82.5 -14.5q-55 0 -94 18t-63.5 48.5t-35.5 70.5t-11 84v279q0 35 11 72t35 67t63 49t95 19q53 0 91.5 -18t63.5 -47.5t37 -66.5t12 -75v-291zM367 493q0 16 -5.5 38t-19 42t-36.5 34.5t-59 14.5t-59 -13.5t-37 -33
t-19.5 -42.5t-5.5 -42l1 -275q0 -30 6.5 -56.5t21.5 -46t38.5 -31t56.5 -11.5q24 0 45.5 8.5t37 24.5t25 39t9.5 52v298zM175 766l145 118l54 -59l-166 -98z" />
    <glyph glyph-name="Ocircumflex" unicode="&#xd4;" horiz-adv-x="497" 
d="M452 203q0 -48 -15 -86.5t-42 -66t-64.5 -42t-82.5 -14.5q-55 0 -94 18t-63.5 48.5t-35.5 70.5t-11 84v279q0 35 11 72t35 67t63 49t95 19q53 0 91.5 -18t63.5 -47.5t37 -66.5t12 -75v-291zM367 493q0 16 -5.5 38t-19 42t-36.5 34.5t-59 14.5t-59 -13.5t-37 -33
t-19.5 -42.5t-5.5 -42l1 -275q0 -30 6.5 -56.5t21.5 -46t38.5 -31t56.5 -11.5q24 0 45.5 8.5t37 24.5t25 39t9.5 52v298zM248 813l-130 -80l-31 33l140 123h50l133 -121l-32 -35z" />
    <glyph glyph-name="Otilde" unicode="&#xd5;" horiz-adv-x="497" 
d="M452 203q0 -48 -15 -86.5t-42 -66t-64.5 -42t-82.5 -14.5q-55 0 -94 18t-63.5 48.5t-35.5 70.5t-11 84v279q0 35 11 72t35 67t63 49t95 19q53 0 91.5 -18t63.5 -47.5t37 -66.5t12 -75v-291zM367 493q0 16 -5.5 38t-19 42t-36.5 34.5t-59 14.5t-59 -13.5t-37 -33
t-19.5 -42.5t-5.5 -42l1 -275q0 -30 6.5 -56.5t21.5 -46t38.5 -31t56.5 -11.5q24 0 45.5 8.5t37 24.5t25 39t9.5 52v298zM183 859q16 0 32 -6.5t31 -14.5t30 -14.5t29 -6.5q27 0 57 42l45 -28q-20 -41 -45.5 -61.5t-52.5 -20.5q-17 0 -33 6.5t-31.5 14l-30 14t-27.5 6.5
q-15 0 -28.5 -9t-29.5 -29l-44 25q17 34 43 58t55 24z" />
    <glyph glyph-name="Ugrave" unicode="&#xd9;" horiz-adv-x="519" 
d="M464 696v-494q0 -48 -15 -86.5t-42 -65.5t-64.5 -41.5t-82.5 -14.5q-48 0 -85.5 15.5t-64 43t-40.5 66t-14 83.5v494h83v-497q0 -25 8.5 -47.5t24 -40t38 -28t50.5 -10.5q53 0 86.5 33.5t33.5 92.5v497h84zM314 738l-170 103l59 61l148 -122z" />
    <glyph glyph-name="Uacute" unicode="&#xda;" horiz-adv-x="519" 
d="M464 696v-494q0 -48 -15 -86.5t-42 -65.5t-64.5 -41.5t-82.5 -14.5q-48 0 -85.5 15.5t-64 43t-40.5 66t-14 83.5v494h83v-497q0 -25 8.5 -47.5t24 -40t38 -28t50.5 -10.5q53 0 86.5 33.5t33.5 92.5v497h84zM175 766l145 118l54 -59l-166 -98z" />
    <glyph glyph-name="Ucircumflex" unicode="&#xdb;" horiz-adv-x="519" 
d="M464 696v-494q0 -48 -15 -86.5t-42 -65.5t-64.5 -41.5t-82.5 -14.5q-48 0 -85.5 15.5t-64 43t-40.5 66t-14 83.5v494h83v-497q0 -25 8.5 -47.5t24 -40t38 -28t50.5 -10.5q53 0 86.5 33.5t33.5 92.5v497h84zM254 813l-130 -80l-31 33l140 123h50l133 -121l-32 -35z" />
    <glyph glyph-name="Yacute" unicode="&#xdd;" horiz-adv-x="442" 
d="M223 386l51 134l72 176h87l-172 -406v-290h-81v290l-173 406h88l37 -90l37 -90q12 -30 24.5 -65l23.5 -65h6zM143 766l145 118l54 -59l-166 -98z" />
    <glyph glyph-name="aacute" unicode="&#xe1;" horiz-adv-x="426" 
d="M305 38q-17 -22 -47.5 -33t-69.5 -11q-36 0 -63 11.5t-44.5 31.5t-26 46.5t-8.5 55.5q0 66 41 109.5t131 43.5h91v61q0 34 -22.5 53t-66.5 19q-29 0 -54.5 -10.5t-36.5 -36.5l-31.5 18.5l-31.5 19.5q20 41 61.5 63t92.5 22q35 0 66 -7.5t54.5 -24.5t37 -45.5t13.5 -71.5
v-352h-82v36zM309 223h-97q-39 0 -64 -18.5t-25 -60.5q0 -33 22 -53.5t67 -20.5q42 0 69.5 19t27.5 66v68zM208 572l70 173l76 -25l-98 -167z" />
    <glyph glyph-name="atilde" unicode="&#xe3;" horiz-adv-x="426" 
d="M305 38q-17 -22 -47.5 -33t-69.5 -11q-36 0 -63 11.5t-44.5 31.5t-26 46.5t-8.5 55.5q0 66 41 109.5t131 43.5h91v61q0 34 -22.5 53t-66.5 19q-29 0 -54.5 -10.5t-36.5 -36.5l-31.5 18.5l-31.5 19.5q20 41 61.5 63t92.5 22q35 0 66 -7.5t54.5 -24.5t37 -45.5t13.5 -71.5
v-352h-82v36zM309 223h-97q-39 0 -64 -18.5t-25 -60.5q0 -33 22 -53.5t67 -20.5q42 0 69.5 19t27.5 66v68zM162 689q16 0 32 -6.5t31 -14.5t30 -14.5t29 -6.5q27 0 57 42l45 -28q-20 -41 -45.5 -61.5t-52.5 -20.5q-17 0 -33 6.5t-31.5 14l-30 14t-27.5 6.5q-15 0 -28.5 -9
t-29.5 -29l-44 25q17 34 43 58t55 24z" />
    <glyph glyph-name="aring" unicode="&#xe5;" horiz-adv-x="426" 
d="M305 38q-17 -22 -47.5 -33t-69.5 -11q-36 0 -63 11.5t-44.5 31.5t-26 46.5t-8.5 55.5q0 66 41 109.5t131 43.5h91v61q0 34 -22.5 53t-66.5 19q-29 0 -54.5 -10.5t-36.5 -36.5l-31.5 18.5l-31.5 19.5q20 41 61.5 63t92.5 22q35 0 66 -7.5t54.5 -24.5t37 -45.5t13.5 -71.5
v-352h-82v36zM309 223h-97q-39 0 -64 -18.5t-25 -60.5q0 -33 22 -53.5t67 -20.5q42 0 69.5 19t27.5 66v68zM220 551q-38 0 -63.5 24.5t-25.5 59.5q0 18 7 33.5t19 27t28 18.5t35 7q17 0 32.5 -7t27 -18.5t18.5 -27t7 -33.5q0 -35 -25 -59.5t-60 -24.5zM220 680
q-20 0 -33.5 -13t-13.5 -32q0 -18 13.5 -30.5t33.5 -12.5q18 0 31 12.5t13 30.5q0 19 -13 32t-31 13z" />
    <glyph glyph-name="igrave" unicode="&#xec;" horiz-adv-x="200" 
d="M58 0v495h81v-495h-81zM77 553l-98 167l76 25l70 -173z" />
    <glyph glyph-name="iacute" unicode="&#xed;" horiz-adv-x="200" 
d="M58 0v495h81v-495h-81zM59 572l70 173l76 -25l-98 -167z" />
    <glyph glyph-name="ntilde" unicode="&#xf1;" horiz-adv-x="436" 
d="M308 0v323q0 45 -23 70.5t-68 25.5q-41 0 -66 -26.5t-25 -71.5v-321h-80v495h81v-55h3q21 29 52 44.5t67 15.5q30 0 55.5 -10.5t44 -30t29.5 -47t11 -62.5v-350h-81zM145 689q16 0 32 -6.5t31 -14.5t30 -14.5t29 -6.5q27 0 57 42l45 -28q-20 -41 -45.5 -61.5t-52.5 -20.5
q-17 0 -33 6.5t-31.5 14l-30 14t-27.5 6.5q-15 0 -28.5 -9t-29.5 -29l-44 25q17 34 43 58t55 24z" />
    <glyph glyph-name="ograve" unicode="&#xf2;" horiz-adv-x="438" 
d="M222 501q59 0 93 -23.5t54 -58.5q7 -12 12 -31.5t8 -43t4.5 -49t1.5 -48.5q0 -14 -1 -34t-3.5 -42t-5.5 -42t-7 -32q-9 -29 -26.5 -49t-40 -32t-48 -17.5t-52.5 -5.5q-57 0 -93.5 24t-54.5 62q-13 27 -18 71.5t-5 93.5q0 47 4.5 90t15.5 70q20 45 61 71t101 26zM220 428
q-29 0 -52 -14t-34 -42q-7 -19 -10.5 -54.5t-3.5 -82.5q0 -33 1.5 -62t9.5 -49q11 -27 32 -42t53 -15q31 0 54.5 15t34.5 48q5 14 7 47.5t2 74.5q0 35 -2 66.5t-8 49.5q-11 30 -33 45t-51 15zM201 553l-98 167l76 25l70 -173z" />
    <glyph glyph-name="oacute" unicode="&#xf3;" horiz-adv-x="438" 
d="M222 501q59 0 93 -23.5t54 -58.5q7 -12 12 -31.5t8 -43t4.5 -49t1.5 -48.5q0 -14 -1 -34t-3.5 -42t-5.5 -42t-7 -32q-9 -29 -26.5 -49t-40 -32t-48 -17.5t-52.5 -5.5q-57 0 -93.5 24t-54.5 62q-13 27 -18 71.5t-5 93.5q0 47 4.5 90t15.5 70q20 45 61 71t101 26zM220 428
q-29 0 -52 -14t-34 -42q-7 -19 -10.5 -54.5t-3.5 -82.5q0 -33 1.5 -62t9.5 -49q11 -27 32 -42t53 -15q31 0 54.5 15t34.5 48q5 14 7 47.5t2 74.5q0 35 -2 66.5t-8 49.5q-11 30 -33 45t-51 15zM172 572l70 173l76 -25l-98 -167z" />
    <glyph glyph-name="uacute" unicode="&#xfa;" horiz-adv-x="442" 
d="M309 0v53h-3q-21 -30 -52.5 -44.5t-66.5 -14.5q-30 0 -56 10.5t-44.5 30t-29.5 47t-11 62.5v350h81v-323q0 -45 24.5 -71.5t66.5 -26.5q41 0 66 27t25 73v321h80v-494h-80zM177 572l70 173l76 -25l-98 -167z" />
    <glyph glyph-name="yacute" unicode="&#xfd;" horiz-adv-x="384" 
d="M206 -99q-16 -53 -49 -78t-80 -25h-26v70h24q47 0 64 71l21 73l-159 483h86l61 -198l47 -167h3l44 167l58 198h84zM167 572l70 173l76 -25l-98 -167z" />
    <glyph glyph-name="ydieresis" unicode="&#xff;" horiz-adv-x="384" 
d="M206 -99q-16 -53 -49 -78t-80 -25h-26v70h24q47 0 64 71l21 73l-159 483h86l61 -198l47 -167h3l44 167l58 198h84zM240 593v84h78v-84h-78zM73 593v84h79v-84h-79z" />
    <glyph glyph-name="Amacron" unicode="&#x100;" horiz-adv-x="497" 
d="M403 0l-44 158h-222l-43 -158h-85l202 696h75l203 -696h-86zM289 413l-39 154h-4l-39 -153l-51 -181h184zM123 763v75h248v-75h-248z" />
    <glyph glyph-name="amacron" unicode="&#x101;" horiz-adv-x="426" 
d="M305 38q-17 -22 -47.5 -33t-69.5 -11q-36 0 -63 11.5t-44.5 31.5t-26 46.5t-8.5 55.5q0 66 41 109.5t131 43.5h91v61q0 34 -22.5 53t-66.5 19q-29 0 -54.5 -10.5t-36.5 -36.5l-31.5 18.5l-31.5 19.5q20 41 61.5 63t92.5 22q35 0 66 -7.5t54.5 -24.5t37 -45.5t13.5 -71.5
v-352h-82v36zM309 223h-97q-39 0 -64 -18.5t-25 -60.5q0 -33 22 -53.5t67 -20.5q42 0 69.5 19t27.5 66v68zM100 588v75h248v-75h-248z" />
    <glyph glyph-name="Abreve" unicode="&#x102;" horiz-adv-x="497" 
d="M403 0l-44 158h-222l-43 -158h-85l202 696h75l203 -696h-86zM289 413l-39 154h-4l-39 -153l-51 -181h184zM179 876q1 -10 6 -21t14 -20.5t21.5 -15.5t27.5 -6q17 0 30 6t22 15.5t13.5 20.5t4.5 21h67q-2 -20 -9.5 -42t-23 -40.5t-41 -31t-63.5 -12.5q-39 0 -65 12.5
t-42 31t-23.5 40.5t-7.5 42h69z" />
    <glyph glyph-name="abreve" unicode="&#x103;" horiz-adv-x="426" 
d="M305 38q-17 -22 -47.5 -33t-69.5 -11q-36 0 -63 11.5t-44.5 31.5t-26 46.5t-8.5 55.5q0 66 41 109.5t131 43.5h91v61q0 34 -22.5 53t-66.5 19q-29 0 -54.5 -10.5t-36.5 -36.5l-31.5 18.5l-31.5 19.5q20 41 61.5 63t92.5 22q35 0 66 -7.5t54.5 -24.5t37 -45.5t13.5 -71.5
v-352h-82v36zM309 223h-97q-39 0 -64 -18.5t-25 -60.5q0 -33 22 -53.5t67 -20.5q42 0 69.5 19t27.5 66v68zM145 699q1 -10 6 -21t14 -20.5t21.5 -15.5t27.5 -6q17 0 30 6t22 15.5t13.5 20.5t4.5 21h67q-2 -20 -9.5 -42t-23 -40.5t-41 -31t-63.5 -12.5q-39 0 -65 12.5t-42 31
t-23.5 40.5t-7.5 42h69z" />
    <glyph glyph-name="Aogonek" unicode="&#x104;" horiz-adv-x="497" 
d="M366 -92q0 20 8.5 42.5t28.5 50.5l-44 157h-222l-43 -158h-85l202 696h75l203 -696h-27q-31 -44 -31 -77q0 -21 12.5 -32.5t35.5 -11.5q22 0 57 16l20 -50q-20 -11 -44 -18t-49 -7q-43 0 -70 26t-27 62zM289 413l-39 154h-4l-39 -153l-51 -181h184z" />
    <glyph glyph-name="aogonek" unicode="&#x105;" horiz-adv-x="426" 
d="M262 -91q0 20 9 43.5t30 52.5h8v31l-4 2q-17 -22 -47.5 -33t-69.5 -11q-36 0 -63 11.5t-44.5 31.5t-26 46.5t-8.5 55.5q0 66 41 109.5t131 43.5h91v61q0 34 -22.5 53t-66.5 19q-29 0 -54.5 -10.5t-36.5 -36.5l-31.5 18.5l-31.5 19.5q20 41 61.5 63t92.5 22q35 0 66 -7.5
t54.5 -24.5t37 -45.5t13.5 -71.5v-352h-33q-31 -43 -31 -76q0 -21 12.5 -32.5t35.5 -11.5q22 0 57 16l20 -50q-20 -11 -44 -18t-49 -7q-43 0 -70 26t-27 62zM309 223h-97q-39 0 -64 -18.5t-25 -60.5q0 -33 22 -53.5t67 -20.5q42 0 69.5 19t27.5 66v68z" />
    <glyph glyph-name="Cacute" unicode="&#x106;" horiz-adv-x="469" 
d="M446 129q-18 -66 -69.5 -100.5t-123.5 -34.5q-47 0 -85 15.5t-64 43t-40 65.5t-14 84v292q0 44 13.5 82t39.5 65.5t64 43.5t86 16q71 0 122.5 -35t70.5 -98l-79 -31q-10 38 -38.5 61t-75.5 23q-29 0 -51.5 -10.5t-37.5 -27.5t-23 -40t-8 -47v-296q0 -25 8 -48t23 -40.5
t37.5 -28t51.5 -10.5q45 0 74.5 23t39.5 62zM179 766l145 118l54 -59l-166 -98z" />
    <glyph glyph-name="cacute" unicode="&#x107;" horiz-adv-x="385" 
d="M301 121q17 -10 34 -18.5t34 -18.5q-20 -42 -59 -66t-93 -24q-56 0 -92 19t-57 53.5t-29 83.5t-8 108q0 111 45 177t141 66q54 0 92.5 -24.5t58.5 -66.5l-66 -41q-11 26 -33 40.5t-51 14.5q-33 0 -54 -13t-32.5 -35.5t-15.5 -53t-4 -66.5t4 -69.5t15.5 -59.5t32 -41.5
t53.5 -15.5q30 0 51.5 15.5t32.5 35.5zM165 572l70 173l76 -25l-98 -167z" />
    <glyph glyph-name="Ccircumflex" unicode="&#x108;" horiz-adv-x="469" 
d="M446 129q-18 -66 -69.5 -100.5t-123.5 -34.5q-47 0 -85 15.5t-64 43t-40 65.5t-14 84v292q0 44 13.5 82t39.5 65.5t64 43.5t86 16q71 0 122.5 -35t70.5 -98l-79 -31q-10 38 -38.5 61t-75.5 23q-29 0 -51.5 -10.5t-37.5 -27.5t-23 -40t-8 -47v-296q0 -25 8 -48t23 -40.5
t37.5 -28t51.5 -10.5q45 0 74.5 23t39.5 62zM250 813l-130 -80l-31 33l140 123h50l133 -121l-32 -35z" />
    <glyph glyph-name="ccircumflex" unicode="&#x109;" horiz-adv-x="385" 
d="M301 121q17 -10 34 -18.5t34 -18.5q-20 -42 -59 -66t-93 -24q-56 0 -92 19t-57 53.5t-29 83.5t-8 108q0 111 45 177t141 66q54 0 92.5 -24.5t58.5 -66.5l-66 -41q-11 26 -33 40.5t-51 14.5q-33 0 -54 -13t-32.5 -35.5t-15.5 -53t-4 -66.5t4 -69.5t15.5 -59.5t32 -41.5
t53.5 -15.5q30 0 51.5 15.5t32.5 35.5zM215 653l-125 -101l-37 33l141 146h50l133 -144l-37 -34z" />
    <glyph glyph-name="Cdotaccent" unicode="&#x10a;" horiz-adv-x="469" 
d="M446 129q-18 -66 -69.5 -100.5t-123.5 -34.5q-47 0 -85 15.5t-64 43t-40 65.5t-14 84v292q0 44 13.5 82t39.5 65.5t64 43.5t86 16q71 0 122.5 -35t70.5 -98l-79 -31q-10 38 -38.5 61t-75.5 23q-29 0 -51.5 -10.5t-37.5 -27.5t-23 -40t-8 -47v-296q0 -25 8 -48t23 -40.5
t37.5 -28t51.5 -10.5q45 0 74.5 23t39.5 62zM216 763v84h78v-84h-78z" />
    <glyph glyph-name="cdotaccent" unicode="&#x10b;" horiz-adv-x="385" 
d="M301 121q17 -10 34 -18.5t34 -18.5q-20 -42 -59 -66t-93 -24q-56 0 -92 19t-57 53.5t-29 83.5t-8 108q0 111 45 177t141 66q54 0 92.5 -24.5t58.5 -66.5l-66 -41q-11 26 -33 40.5t-51 14.5q-33 0 -54 -13t-32.5 -35.5t-15.5 -53t-4 -66.5t4 -69.5t15.5 -59.5t32 -41.5
t53.5 -15.5q30 0 51.5 15.5t32.5 35.5zM173 595v84h78v-84h-78z" />
    <glyph glyph-name="Ccaron" unicode="&#x10c;" horiz-adv-x="469" 
d="M446 129q-18 -66 -69.5 -100.5t-123.5 -34.5q-47 0 -85 15.5t-64 43t-40 65.5t-14 84v292q0 44 13.5 82t39.5 65.5t64 43.5t86 16q71 0 122.5 -35t70.5 -98l-79 -31q-10 38 -38.5 61t-75.5 23q-29 0 -51.5 -10.5t-37.5 -27.5t-23 -40t-8 -47v-296q0 -25 8 -48t23 -40.5
t37.5 -28t51.5 -10.5q45 0 74.5 23t39.5 62zM386 891l32 -34l-133 -122h-50l-140 124l31 33l130 -81z" />
    <glyph glyph-name="ccaron" unicode="&#x10d;" horiz-adv-x="385" 
d="M301 121q17 -10 34 -18.5t34 -18.5q-20 -42 -59 -66t-93 -24q-56 0 -92 19t-57 53.5t-29 83.5t-8 108q0 111 45 177t141 66q54 0 92.5 -24.5t58.5 -66.5l-66 -41q-11 26 -33 40.5t-51 14.5q-33 0 -54 -13t-32.5 -35.5t-15.5 -53t-4 -66.5t4 -69.5t15.5 -59.5t32 -41.5
t53.5 -15.5q30 0 51.5 15.5t32.5 35.5zM341 734l37 -35l-133 -144h-50l-141 146l37 33l125 -100z" />
    <glyph glyph-name="Dcaron" unicode="&#x10e;" horiz-adv-x="521" 
d="M259 696q70 0 120 -25.5t74 -85.5q15 -40 16.5 -97.5t1.5 -133.5q0 -79 -1 -136t-16 -98q-14 -35 -35 -58t-48 -36.5t-59 -19.5t-66 -6h-182v696h195zM387 467q0 81 -35 116.5t-101 35.5h-103v-541h103q74 0 105 39.5t31 109.5v240zM373 891l32 -34l-133 -122h-50
l-140 124l31 33l130 -81z" />
    <glyph glyph-name="dcaron" unicode="&#x10f;" horiz-adv-x="518" 
d="M480 528h-47l31 89h-28v103h95v-101zM301 47q-22 -28 -50 -40.5t-63 -12.5q-49 0 -78.5 20.5t-45 55t-20.5 80.5t-5 96q0 46 5.5 91.5t22 81.5t47.5 58.5t82 22.5q30 0 56.5 -11t48.5 -36h2v273h81v-726h-81v46q-1 0 -1 0.5t-1 0.5zM214 420q-31 0 -49.5 -14t-28 -37.5
t-12.5 -55t-3 -65.5q0 -36 3 -68t13 -56t28 -38.5t48 -14.5q36 0 55 20t27 49.5t8.5 62t0.5 57.5q0 31 -3 59.5t-12 51t-27 36t-48 13.5z" />
    <glyph glyph-name="Dcroat" unicode="&#x110;" horiz-adv-x="521" 
d="M12 391h52v305h195q70 0 120 -25.5t74 -85.5q15 -40 16.5 -97.5t1.5 -133.5q0 -79 -1 -136t-16 -98q-14 -35 -35 -58t-48 -36.5t-59 -19.5t-66 -6h-182v328h-52v63zM387 467q0 81 -35 116.5t-101 35.5h-103v-228h77v-63h-77v-250h103q74 0 105 39.5t31 109.5v240z" />
    <glyph glyph-name="dcroat" unicode="&#x111;" horiz-adv-x="433" 
d="M190 624h113v102h81v-102h48v-57h-48v-567h-81v46q-1 0 -1 0.5t-1 0.5q-22 -28 -50 -40.5t-63 -12.5q-49 0 -78.5 20.5t-45 55t-20.5 80.5t-5 96q0 46 5.5 91.5t22 81.5t47.5 58.5t82 22.5q30 0 56.5 -11t48.5 -36h2v114h-113v57zM214 420q-31 0 -49.5 -14t-28 -37.5
t-12.5 -55t-3 -65.5q0 -36 3 -68t13 -56t28 -38.5t48 -14.5q36 0 55 20t27 49.5t8.5 62t0.5 57.5q0 31 -3 59.5t-12 51t-27 36t-48 13.5z" />
    <glyph glyph-name="Emacron" unicode="&#x112;" horiz-adv-x="455" 
d="M65 0v696h369v-78h-286v-228h245v-75h-245v-234h286v-81h-369zM120 763v75h248v-75h-248z" />
    <glyph glyph-name="emacron" unicode="&#x113;" horiz-adv-x="424" 
d="M372 89q-20 -44 -59.5 -69.5t-89.5 -25.5t-85 14t-57.5 44.5t-33 78.5t-10.5 116q0 47 7.5 92.5t27 81.5t53.5 58t87 22q84 0 128.5 -53.5t44.5 -147.5v-77h-267q0 -33 4 -61.5t15 -49.5t31 -33t52 -12q27 0 49.5 17t36.5 40zM305 288q0 68 -23.5 102.5t-68.5 34.5
q-52 0 -71.5 -37t-21.5 -100h185zM100 588v75h248v-75h-248z" />
    <glyph glyph-name="Ebreve" unicode="&#x114;" horiz-adv-x="455" 
d="M65 0v696h369v-78h-286v-228h245v-75h-245v-234h286v-81h-369zM176 876q1 -10 6 -21t14 -20.5t21.5 -15.5t27.5 -6q17 0 30 6t22 15.5t13.5 20.5t4.5 21h67q-2 -20 -9.5 -42t-23 -40.5t-41 -31t-63.5 -12.5q-39 0 -65 12.5t-42 31t-23.5 40.5t-7.5 42h69z" />
    <glyph glyph-name="ebreve" unicode="&#x115;" horiz-adv-x="424" 
d="M372 89q-20 -44 -59.5 -69.5t-89.5 -25.5t-85 14t-57.5 44.5t-33 78.5t-10.5 116q0 47 7.5 92.5t27 81.5t53.5 58t87 22q84 0 128.5 -53.5t44.5 -147.5v-77h-267q0 -33 4 -61.5t15 -49.5t31 -33t52 -12q27 0 49.5 17t36.5 40zM305 288q0 68 -23.5 102.5t-68.5 34.5
q-52 0 -71.5 -37t-21.5 -100h185zM148 699q1 -10 6 -21t14 -20.5t21.5 -15.5t27.5 -6q17 0 30 6t22 15.5t13.5 20.5t4.5 21h67q-2 -20 -9.5 -42t-23 -40.5t-41 -31t-63.5 -12.5q-39 0 -65 12.5t-42 31t-23.5 40.5t-7.5 42h69z" />
    <glyph glyph-name="Edotaccent" unicode="&#x116;" horiz-adv-x="455" 
d="M65 0v696h369v-78h-286v-228h245v-75h-245v-234h286v-81h-369zM198 763v84h78v-84h-78z" />
    <glyph glyph-name="edotaccent" unicode="&#x117;" horiz-adv-x="424" 
d="M372 89q-20 -44 -59.5 -69.5t-89.5 -25.5t-85 14t-57.5 44.5t-33 78.5t-10.5 116q0 47 7.5 92.5t27 81.5t53.5 58t87 22q84 0 128.5 -53.5t44.5 -147.5v-77h-267q0 -33 4 -61.5t15 -49.5t31 -33t52 -12q27 0 49.5 17t36.5 40zM305 288q0 68 -23.5 102.5t-68.5 34.5
q-52 0 -71.5 -37t-21.5 -100h185zM175 593v84h78v-84h-78z" />
    <glyph glyph-name="Eogonek" unicode="&#x118;" horiz-adv-x="455" 
d="M338 -92q0 20 8 42t28 50h-309v696h369v-78h-286v-228h245v-75h-245v-234h286v-81q-31 -44 -31 -77q0 -21 12.5 -32.5t35.5 -11.5q22 0 57 16l20 -50q-20 -11 -44 -18t-49 -7q-43 0 -70 26t-27 62z" />
    <glyph glyph-name="eogonek" unicode="&#x119;" horiz-adv-x="424" 
d="M256 -33q0 8 1 16t4 16q-20 -5 -38 -5q-50 0 -85 14t-57.5 44.5t-33 78.5t-10.5 116q0 47 7.5 92.5t27 81.5t53.5 58t87 22q84 0 128.5 -53.5t44.5 -147.5v-77h-267q0 -33 4 -61.5t15 -49.5t31 -33t52 -12q27 0 49.5 17t36.5 40l66 -35q-10 -22 -28 -42q-23 -36 -23 -65
q0 -21 12.5 -32.5t35.5 -11.5q22 0 57 16l20 -50q-20 -11 -44 -18t-49 -7q-43 0 -70 26t-27 62zM305 288q0 68 -23.5 102.5t-68.5 34.5q-52 0 -71.5 -37t-21.5 -100h185z" />
    <glyph glyph-name="Ecaron" unicode="&#x11a;" horiz-adv-x="455" 
d="M65 0v696h369v-78h-286v-228h245v-75h-245v-234h286v-81h-369zM369 891l32 -34l-133 -122h-50l-140 124l31 33l130 -81z" />
    <glyph glyph-name="ecaron" unicode="&#x11b;" horiz-adv-x="424" 
d="M372 89q-20 -44 -59.5 -69.5t-89.5 -25.5t-85 14t-57.5 44.5t-33 78.5t-10.5 116q0 47 7.5 92.5t27 81.5t53.5 58t87 22q84 0 128.5 -53.5t44.5 -147.5v-77h-267q0 -33 4 -61.5t15 -49.5t31 -33t52 -12q27 0 49.5 17t36.5 40zM305 288q0 68 -23.5 102.5t-68.5 34.5
q-52 0 -71.5 -37t-21.5 -100h185zM344 732l37 -35l-133 -144h-50l-141 146l37 33l125 -100z" />
    <glyph glyph-name="Gcircumflex" unicode="&#x11c;" horiz-adv-x="506" 
d="M253 70q27 0 49 9.5t37.5 25.5t24.5 38t9 47v110h-114v74h198v-179q0 -46 -15.5 -83.5t-42.5 -63.5t-64.5 -40.5t-81.5 -14.5q-48 0 -86 15.5t-64 43t-40 66t-14 84.5v292q0 44 13.5 82t40 65.5t64.5 43.5t86 16q71 0 122.5 -35t70.5 -100l-80 -27q-10 37 -39 59.5
t-74 22.5q-29 0 -51.5 -10.5t-38 -27.5t-23.5 -40t-8 -47v-299q0 -25 8 -48t23.5 -40.5t38 -28t51.5 -10.5zM248 813l-130 -80l-31 33l140 123h50l133 -121l-32 -35z" />
    <glyph glyph-name="gcircumflex" unicode="&#x11d;" horiz-adv-x="441" 
d="M385 -4q0 -92 -43.5 -147.5t-137.5 -55.5q-48 0 -87 23t-59 65l67 39q11 -20 32 -35.5t50 -15.5q51 0 74 30t23 84v69h-2q-23 -31 -53 -44t-60 -13q-51 0 -81 21.5t-45 56t-19.5 79t-4.5 91.5q0 48 4.5 94.5t19.5 83t45 58.5t81 22q35 0 63 -12.5t50 -40.5q1 0 1 0.5
t1 0.5v46h81v-499zM211 75q30 0 48.5 13.5t28.5 36t13.5 51t3.5 59.5q0 29 -0.5 62t-8.5 61t-27 46.5t-55 18.5q-32 0 -50.5 -14t-27.5 -38t-11.5 -56t-2.5 -68q0 -40 3 -72t13 -54t27 -34t46 -12zM225 653l-125 -101l-37 33l141 146h50l133 -144l-37 -34z" />
    <glyph glyph-name="Gbreve" unicode="&#x11e;" horiz-adv-x="506" 
d="M253 70q27 0 49 9.5t37.5 25.5t24.5 38t9 47v110h-114v74h198v-179q0 -46 -15.5 -83.5t-42.5 -63.5t-64.5 -40.5t-81.5 -14.5q-48 0 -86 15.5t-64 43t-40 66t-14 84.5v292q0 44 13.5 82t40 65.5t64.5 43.5t86 16q71 0 122.5 -35t70.5 -100l-80 -27q-10 37 -39 59.5
t-74 22.5q-29 0 -51.5 -10.5t-38 -27.5t-23.5 -40t-8 -47v-299q0 -25 8 -48t23.5 -40.5t38 -28t51.5 -10.5zM176 876q1 -10 6 -21t14 -20.5t21.5 -15.5t27.5 -6q17 0 30 6t22 15.5t13.5 20.5t4.5 21h67q-2 -20 -9.5 -42t-23 -40.5t-41 -31t-63.5 -12.5q-39 0 -65 12.5
t-42 31t-23.5 40.5t-7.5 42h69z" />
    <glyph glyph-name="gbreve" unicode="&#x11f;" horiz-adv-x="441" 
d="M385 -4q0 -92 -43.5 -147.5t-137.5 -55.5q-48 0 -87 23t-59 65l67 39q11 -20 32 -35.5t50 -15.5q51 0 74 30t23 84v69h-2q-23 -31 -53 -44t-60 -13q-51 0 -81 21.5t-45 56t-19.5 79t-4.5 91.5q0 48 4.5 94.5t19.5 83t45 58.5t81 22q35 0 63 -12.5t50 -40.5q1 0 1 0.5
t1 0.5v46h81v-499zM211 75q30 0 48.5 13.5t28.5 36t13.5 51t3.5 59.5q0 29 -0.5 62t-8.5 61t-27 46.5t-55 18.5q-32 0 -50.5 -14t-27.5 -38t-11.5 -56t-2.5 -68q0 -40 3 -72t13 -54t27 -34t46 -12zM155 699q1 -10 6 -21t14 -20.5t21.5 -15.5t27.5 -6q17 0 30 6t22 15.5
t13.5 20.5t4.5 21h67q-2 -20 -9.5 -42t-23 -40.5t-41 -31t-63.5 -12.5q-39 0 -65 12.5t-42 31t-23.5 40.5t-7.5 42h69z" />
    <glyph glyph-name="Gdotaccent" unicode="&#x120;" horiz-adv-x="506" 
d="M253 70q27 0 49 9.5t37.5 25.5t24.5 38t9 47v110h-114v74h198v-179q0 -46 -15.5 -83.5t-42.5 -63.5t-64.5 -40.5t-81.5 -14.5q-48 0 -86 15.5t-64 43t-40 66t-14 84.5v292q0 44 13.5 82t40 65.5t64.5 43.5t86 16q71 0 122.5 -35t70.5 -100l-80 -27q-10 37 -39 59.5
t-74 22.5q-29 0 -51.5 -10.5t-38 -27.5t-23.5 -40t-8 -47v-299q0 -25 8 -48t23.5 -40.5t38 -28t51.5 -10.5zM215 763v84h78v-84h-78z" />
    <glyph glyph-name="gdotaccent" unicode="&#x121;" horiz-adv-x="441" 
d="M385 -4q0 -92 -43.5 -147.5t-137.5 -55.5q-48 0 -87 23t-59 65l67 39q11 -20 32 -35.5t50 -15.5q51 0 74 30t23 84v69h-2q-23 -31 -53 -44t-60 -13q-51 0 -81 21.5t-45 56t-19.5 79t-4.5 91.5q0 48 4.5 94.5t19.5 83t45 58.5t81 22q35 0 63 -12.5t50 -40.5q1 0 1 0.5
t1 0.5v46h81v-499zM211 75q30 0 48.5 13.5t28.5 36t13.5 51t3.5 59.5q0 29 -0.5 62t-8.5 61t-27 46.5t-55 18.5q-32 0 -50.5 -14t-27.5 -38t-11.5 -56t-2.5 -68q0 -40 3 -72t13 -54t27 -34t46 -12zM168 593v84h78v-84h-78z" />
    <glyph glyph-name="Gcommaaccent" unicode="&#x122;" horiz-adv-x="506" 
d="M253 70q27 0 49 9.5t37.5 25.5t24.5 38t9 47v110h-114v74h198v-179q0 -46 -15.5 -83.5t-42.5 -63.5t-64.5 -40.5t-81.5 -14.5q-48 0 -86 15.5t-64 43t-40 66t-14 84.5v292q0 44 13.5 82t40 65.5t64.5 43.5t86 16q71 0 122.5 -35t70.5 -100l-80 -27q-10 37 -39 59.5
t-74 22.5q-29 0 -51.5 -10.5t-38 -27.5t-23.5 -40t-8 -47v-299q0 -25 8 -48t23.5 -40.5t38 -28t51.5 -10.5zM250 -254h-47l31 89h-28v103h95v-101z" />
    <glyph glyph-name="gcommaaccent" unicode="&#x123;" horiz-adv-x="441" 
d="M385 -4q0 -92 -43.5 -147.5t-137.5 -55.5q-48 0 -87 23t-59 65l67 39q11 -20 32 -35.5t50 -15.5q51 0 74 30t23 84v69h-2q-23 -31 -53 -44t-60 -13q-51 0 -81 21.5t-45 56t-19.5 79t-4.5 91.5q0 48 4.5 94.5t19.5 83t45 58.5t81 22q35 0 63 -12.5t50 -40.5q1 0 1 0.5
t1 0.5v46h81v-499zM211 75q30 0 48.5 13.5t28.5 36t13.5 51t3.5 59.5q0 29 -0.5 62t-8.5 61t-27 46.5t-55 18.5q-32 0 -50.5 -14t-27.5 -38t-11.5 -56t-2.5 -68q0 -40 3 -72t13 -54t27 -34t46 -12zM208 758h47l-22 -80h25v-104h-95v102z" />
    <glyph glyph-name="Hcircumflex" unicode="&#x124;" horiz-adv-x="532" 
d="M383 0v317h-235v-317h-83v696h83v-306h235v306h84v-696h-84zM260 813l-130 -80l-31 33l140 123h50l133 -121l-32 -35z" />
    <glyph glyph-name="hcircumflex" unicode="&#x125;" horiz-adv-x="438" 
d="M309 0v323q0 45 -22.5 71t-67.5 26q-42 0 -67 -26t-25 -73v-321h-80v726h81v-287h3q21 29 52 45t67 16q30 0 55.5 -10t44 -29.5t29.5 -47t11 -63.5v-350h-81zM87 813l-130 -80l-31 33l140 123h50l133 -121l-32 -35z" />
    <glyph glyph-name="Hbar" unicode="&#x126;" horiz-adv-x="532" 
d="M383 0v317h-235v-317h-83v535h-49v60h49v101h83v-101h235v101h84v-101h49v-60h-49v-535h-84zM383 390v145h-235v-145h235z" />
    <glyph glyph-name="hbar" unicode="&#x127;" horiz-adv-x="438" 
d="M309 0v323q0 45 -22.5 71t-67.5 26q-42 0 -67 -26t-25 -73v-321h-80v583h-47v62h47v81h81v-81h182v-62h-182v-144h3q21 29 52 45t67 16q30 0 55.5 -10t44 -29.5t29.5 -47t11 -63.5v-350h-81z" />
    <glyph glyph-name="Itilde" unicode="&#x128;" horiz-adv-x="282" 
d="M99 0v696h84v-696h-84zM78 859q16 0 32 -6.5t31 -14.5t30 -14.5t29 -6.5q27 0 57 42l45 -28q-20 -41 -45.5 -61.5t-52.5 -20.5q-17 0 -33 6.5t-31.5 14l-30 14t-27.5 6.5q-15 0 -28.5 -9t-29.5 -29l-44 25q17 34 43 58t55 24z" />
    <glyph glyph-name="itilde" unicode="&#x129;" horiz-adv-x="282" 
d="M78 689q16 0 32 -6.5t31 -14.5t30 -14.5t29 -6.5q27 0 57 42l45 -28q-20 -41 -45.5 -61.5t-52.5 -20.5q-17 0 -33 6.5t-31.5 14l-30 14t-27.5 6.5q-15 0 -28.5 -9t-29.5 -29l-44 25q17 34 43 58t55 24zM102 0v495h81v-495h-81z" />
    <glyph glyph-name="Imacron" unicode="&#x12a;" horiz-adv-x="217" 
d="M66 0v696h84v-696h-84zM-13 763v75h248v-75h-248z" />
    <glyph glyph-name="imacron" unicode="&#x12b;" horiz-adv-x="208" 
d="M-20 588v75h248v-75h-248zM65 0v495h81v-495h-81z" />
    <glyph glyph-name="Ibreve" unicode="&#x12c;" horiz-adv-x="296" 
d="M79 881q1 -10 6 -21t14 -20.5t21.5 -15.5t27.5 -6q17 0 30 6t22 15.5t13.5 20.5t4.5 21h67q-2 -20 -9.5 -42t-23 -40.5t-41 -31t-63.5 -12.5q-39 0 -65 12.5t-42 31t-23.5 40.5t-7.5 42h69zM107 0v696h84v-696h-84z" />
    <glyph glyph-name="ibreve" unicode="&#x12d;" horiz-adv-x="235" 
d="M49 705q1 -10 6 -21t14 -20.5t21.5 -15.5t27.5 -6q17 0 30 6t22 15.5t13.5 20.5t4.5 21h67q-2 -20 -9.5 -42t-23 -40.5t-41 -31t-63.5 -12.5q-39 0 -65 12.5t-42 31t-23.5 40.5t-7.5 42h69zM82 0v495h81v-495h-81z" />
    <glyph glyph-name="Iogonek" unicode="&#x12e;" horiz-adv-x="217" 
d="M39 -92q0 20 8 42t28 50h-9v696h84v-696h-15q-31 -44 -31 -77q0 -21 12.5 -32.5t35.5 -11.5q22 0 57 16l20 -50q-20 -11 -44 -18t-49 -7q-43 0 -70 26t-27 62z" />
    <glyph glyph-name="iogonek" unicode="&#x12f;" horiz-adv-x="197" 
d="M35 -91q0 20 8 42t27 49h-12v495h81v-495h-8q-31 -43 -31 -76q0 -21 12.5 -32.5t35.5 -11.5q22 0 57 16l20 -50q-20 -11 -44 -18t-49 -7q-43 0 -70 26t-27 62zM58 615v81h81v-81h-81z" />
    <glyph glyph-name="Idotaccent" unicode="&#x130;" horiz-adv-x="217" 
d="M66 0v696h84v-696h-84zM70 763v84h78v-84h-78z" />
    <glyph glyph-name="IJ" unicode="&#x132;" horiz-adv-x="612" 
d="M64 0v696h84v-696h-84zM545 182q0 -51 -15 -86.5t-41.5 -58t-61 -33t-73.5 -10.5q-48 0 -86.5 18.5t-63.5 51.5l65 50q14 -17 36 -29t47 -12q46 0 77.5 25t31.5 85v513h84v-514z" />
    <glyph glyph-name="ij" unicode="&#x133;" horiz-adv-x="424" 
d="M58 615v81h81v-81h-81zM58 0v495h81v-495h-81zM279 615v81h81v-81h-81zM360 -73q0 -28 -8 -52t-24.5 -42t-41 -28t-57.5 -10h-27v75q2 0 10 -0.5t9 0.5q31 1 44.5 20.5t13.5 54.5v550h81v-568z" />
    <glyph glyph-name="Jcircumflex" unicode="&#x134;" horiz-adv-x="406" 
d="M339 183q0 -51 -15 -86.5t-41.5 -58t-61 -33t-73.5 -10.5q-48 0 -86.5 18.5t-63.5 51.5l65 50q14 -17 36 -29t47 -12q46 0 77.5 25t31.5 85v513h84v-514zM295 815l-130 -80l-31 33l140 123h50l133 -121l-32 -35z" />
    <glyph glyph-name="jcircumflex" unicode="&#x135;" horiz-adv-x="284" 
d="M183 -73q0 -28 -8 -52t-24.5 -42t-41 -28t-57.5 -10h-27v75q2 0 10 -0.5t9 0.5q31 1 44.5 20.5t13.5 54.5v550h81v-568zM142 653l-125 -101l-37 33l141 146h50l133 -144l-37 -34z" />
    <glyph glyph-name="Kcommaaccent" unicode="&#x136;" horiz-adv-x="516" 
d="M415 0l-166 345l-50.5 -74.5t-50.5 -73.5v-197h-84v696h84v-365q1 0 1.5 0.5t1.5 0.5l119 182.5l120 181.5h91l-89.5 -135.5l-89.5 -135.5l205 -425h-92zM259 -234h-47l31 89h-28v103h95v-101z" />
    <glyph glyph-name="kcommaaccent" unicode="&#x137;" horiz-adv-x="440" 
d="M345 0l-131 241l-78 -108v-133h-81v726h81v-470h2l176 239h93l-141 -189l169 -306h-90zM229 -254h-47l31 89h-28v103h95v-101z" />
    <glyph glyph-name="kgreenlandic" unicode="&#x138;" horiz-adv-x="435" 
d="M342 0l-128 241l-78 -110v-131h-81v495h81v-239h2l175 239h94l-141 -190l166 -305h-90z" />
    <glyph glyph-name="Lacute" unicode="&#x139;" horiz-adv-x="442" 
d="M65 0v696h83v-615h278v-81h-361zM71 766l145 118l54 -59l-166 -98z" />
    <glyph glyph-name="lacute" unicode="&#x13a;" horiz-adv-x="227" 
d="M185 -3q-59 0 -93 25t-33 93v611h81v-598q0 -28 11 -42t39 -14h17v-75h-22zM59 776l145 118l54 -59l-166 -98z" />
    <glyph glyph-name="Lcommaaccent" unicode="&#x13b;" horiz-adv-x="442" 
d="M65 0v696h83v-615h278v-81h-361zM229 -254h-47l31 89h-28v103h95v-101z" />
    <glyph glyph-name="lcommaaccent" unicode="&#x13c;" horiz-adv-x="227" 
d="M185 -3q-59 0 -93 25t-33 93v611h81v-598q0 -28 11 -42t39 -14h17v-75h-22zM115 -246h-47l31 89h-28v103h95v-101z" />
    <glyph glyph-name="Lcaron" unicode="&#x13d;" horiz-adv-x="442" 
d="M65 0v696h83v-615h278v-81h-361zM304 500h-47l31 89h-28v103h95v-101z" />
    <glyph glyph-name="lcaron" unicode="&#x13e;" horiz-adv-x="278" 
d="M235 529h-47l31 89h-28v103h95v-101zM185 -3q-59 0 -93 25t-33 93v611h81v-598q0 -28 11 -42t39 -14h17v-75h-22z" />
    <glyph glyph-name="Ldot" unicode="&#x13f;" horiz-adv-x="442" 
d="M65 0v696h83v-615h278v-81h-361zM295 307v84h78v-84h-78z" />
    <glyph glyph-name="ldot" unicode="&#x140;" horiz-adv-x="269" 
d="M200 334v84h78v-84h-78zM185 -3q-59 0 -93 25t-33 93v611h81v-598q0 -28 11 -42t39 -14h17v-75h-22z" />
    <glyph glyph-name="Lslash" unicode="&#x141;" horiz-adv-x="457" 
d="M80 0v243l-51 -29l-29 49l80 46v387h83v-339l114 66l28 -50l-142 -82v-210h278v-81h-361z" />
    <glyph glyph-name="lslash" unicode="&#x142;" horiz-adv-x="265" 
d="M217 -3q-59 0 -93 25t-33 93v160l-53 -31l-29 49l82 48v385h81v-338l65 38l28 -50l-93 -54v-194q0 -28 11 -42t39 -14h17v-75h-22z" />
    <glyph glyph-name="Nacute" unicode="&#x143;" horiz-adv-x="562" 
d="M420 0l-199 366l-71 139h-3v-505h-84v696h81l195 -361l74 -143l4 1v503h83v-696h-80zM231 766l145 118l54 -59l-166 -98z" />
    <glyph glyph-name="nacute" unicode="&#x144;" horiz-adv-x="436" 
d="M308 0v323q0 45 -23 70.5t-68 25.5q-41 0 -66 -26.5t-25 -71.5v-321h-80v495h81v-55h3q21 29 52 44.5t67 15.5q30 0 55.5 -10.5t44 -30t29.5 -47t11 -62.5v-350h-81zM155 572l70 173l76 -25l-98 -167z" />
    <glyph glyph-name="Ncommaaccent" unicode="&#x145;" horiz-adv-x="562" 
d="M420 0l-199 366l-71 139h-3v-505h-84v696h81l195 -361l74 -143l4 1v503h83v-696h-80zM269 -234h-47l31 89h-28v103h95v-101z" />
    <glyph glyph-name="ncommaaccent" unicode="&#x146;" horiz-adv-x="436" 
d="M308 0v323q0 45 -23 70.5t-68 25.5q-41 0 -66 -26.5t-25 -71.5v-321h-80v495h81v-55h3q21 29 52 44.5t67 15.5q30 0 55.5 -10.5t44 -30t29.5 -47t11 -62.5v-350h-81zM214 -254h-47l31 89h-28v103h95v-101z" />
    <glyph glyph-name="Ncaron" unicode="&#x147;" horiz-adv-x="562" 
d="M420 0l-199 366l-71 139h-3v-505h-84v696h81l195 -361l74 -143l4 1v503h83v-696h-80zM416 891l32 -34l-133 -122h-50l-140 124l31 33l130 -81z" />
    <glyph glyph-name="ncaron" unicode="&#x148;" horiz-adv-x="436" 
d="M308 0v323q0 45 -23 70.5t-68 25.5q-41 0 -66 -26.5t-25 -71.5v-321h-80v495h81v-55h3q21 29 52 44.5t67 15.5q30 0 55.5 -10.5t44 -30t29.5 -47t11 -62.5v-350h-81zM331 732l37 -35l-133 -144h-50l-141 146l37 33l125 -100z" />
    <glyph glyph-name="napostrophe" unicode="&#x149;" horiz-adv-x="477" 
d="M349 0v323q0 45 -23 70.5t-68 25.5q-41 0 -66 -26.5t-25 -71.5v-321h-80v495h81v-55h3q21 29 52 44.5t67 15.5q30 0 55.5 -10.5t44 -30t29.5 -47t11 -62.5v-350h-81zM37 473h-47l31 89h-28v103h95v-101z" />
    <glyph glyph-name="Eng" unicode="&#x14a;" horiz-adv-x="562" 
d="M500 -64q0 -57 -26.5 -81t-69.5 -24q-18 0 -35.5 3.5t-39.5 13.5l19 57q11 -3 21.5 -5t18.5 -2q15 0 23 8.5t8 31.5v66l-198 367l-71 139h-3v-510h-84v696h81l195 -366l74 -147l4 1v512h83v-760z" />
    <glyph glyph-name="eng" unicode="&#x14b;" horiz-adv-x="436" 
d="M389 -64q0 -57 -26.5 -81t-69.5 -24q-18 0 -35.5 3.5t-39.5 13.5l19 57q11 -3 21.5 -5t18.5 -2q15 0 23 8.5t8 31.5v385q0 45 -20.5 70.5t-68.5 25.5q-41 0 -67 -27.5t-26 -72.5v-319h-80v495h81v-55h3q21 29 53 44.5t68 15.5q62 0 100 -40t38 -110v-414z" />
    <glyph glyph-name="Omacron" unicode="&#x14c;" horiz-adv-x="497" 
d="M452 203q0 -48 -15 -86.5t-42 -66t-64.5 -42t-82.5 -14.5q-55 0 -94 18t-63.5 48.5t-35.5 70.5t-11 84v279q0 35 11 72t35 67t63 49t95 19q53 0 91.5 -18t63.5 -47.5t37 -66.5t12 -75v-291zM367 493q0 16 -5.5 38t-19 42t-36.5 34.5t-59 14.5t-59 -13.5t-37 -33
t-19.5 -42.5t-5.5 -42l1 -275q0 -30 6.5 -56.5t21.5 -46t38.5 -31t56.5 -11.5q24 0 45.5 8.5t37 24.5t25 39t9.5 52v298zM122 763v75h248v-75h-248z" />
    <glyph glyph-name="omacron" unicode="&#x14d;" horiz-adv-x="438" 
d="M222 501q59 0 93 -23.5t54 -58.5q7 -12 12 -31.5t8 -43t4.5 -49t1.5 -48.5q0 -14 -1 -34t-3.5 -42t-5.5 -42t-7 -32q-9 -29 -26.5 -49t-40 -32t-48 -17.5t-52.5 -5.5q-57 0 -93.5 24t-54.5 62q-13 27 -18 71.5t-5 93.5q0 47 4.5 90t15.5 70q20 45 61 71t101 26zM220 428
q-29 0 -52 -14t-34 -42q-7 -19 -10.5 -54.5t-3.5 -82.5q0 -33 1.5 -62t9.5 -49q11 -27 32 -42t53 -15q31 0 54.5 15t34.5 48q5 14 7 47.5t2 74.5q0 35 -2 66.5t-8 49.5q-11 30 -33 45t-51 15zM100 588v75h248v-75h-248z" />
    <glyph glyph-name="Obreve" unicode="&#x14e;" horiz-adv-x="497" 
d="M452 203q0 -48 -15 -86.5t-42 -66t-64.5 -42t-82.5 -14.5q-55 0 -94 18t-63.5 48.5t-35.5 70.5t-11 84v279q0 35 11 72t35 67t63 49t95 19q53 0 91.5 -18t63.5 -47.5t37 -66.5t12 -75v-291zM367 493q0 16 -5.5 38t-19 42t-36.5 34.5t-59 14.5t-59 -13.5t-37 -33
t-19.5 -42.5t-5.5 -42l1 -275q0 -30 6.5 -56.5t21.5 -46t38.5 -31t56.5 -11.5q24 0 45.5 8.5t37 24.5t25 39t9.5 52v298zM181 876q1 -10 6 -21t14 -20.5t21.5 -15.5t27.5 -6q17 0 30 6t22 15.5t13.5 20.5t4.5 21h67q-2 -20 -9.5 -42t-23 -40.5t-41 -31t-63.5 -12.5
q-39 0 -65 12.5t-42 31t-23.5 40.5t-7.5 42h69z" />
    <glyph glyph-name="obreve" unicode="&#x14f;" horiz-adv-x="438" 
d="M222 501q59 0 93 -23.5t54 -58.5q7 -12 12 -31.5t8 -43t4.5 -49t1.5 -48.5q0 -14 -1 -34t-3.5 -42t-5.5 -42t-7 -32q-9 -29 -26.5 -49t-40 -32t-48 -17.5t-52.5 -5.5q-57 0 -93.5 24t-54.5 62q-13 27 -18 71.5t-5 93.5q0 47 4.5 90t15.5 70q20 45 61 71t101 26zM220 428
q-29 0 -52 -14t-34 -42q-7 -19 -10.5 -54.5t-3.5 -82.5q0 -33 1.5 -62t9.5 -49q11 -27 32 -42t53 -15q31 0 54.5 15t34.5 48q5 14 7 47.5t2 74.5q0 35 -2 66.5t-8 49.5q-11 30 -33 45t-51 15zM149 699q1 -10 6 -21t14 -20.5t21.5 -15.5t27.5 -6q17 0 30 6t22 15.5t13.5 20.5
t4.5 21h67q-2 -20 -9.5 -42t-23 -40.5t-41 -31t-63.5 -12.5q-39 0 -65 12.5t-42 31t-23.5 40.5t-7.5 42h69z" />
    <glyph glyph-name="Ohungarumlaut" unicode="&#x150;" horiz-adv-x="497" 
d="M452 203q0 -48 -15 -86.5t-42 -66t-64.5 -42t-82.5 -14.5q-55 0 -94 18t-63.5 48.5t-35.5 70.5t-11 84v279q0 35 11 72t35 67t63 49t95 19q53 0 91.5 -18t63.5 -47.5t37 -66.5t12 -75v-291zM367 493q0 16 -5.5 38t-19 42t-36.5 34.5t-59 14.5t-59 -13.5t-37 -33
t-19.5 -42.5t-5.5 -42l1 -275q0 -30 6.5 -56.5t21.5 -46t38.5 -31t56.5 -11.5q24 0 45.5 8.5t37 24.5t25 39t9.5 52v298zM105 767l145 117l54 -59l-166 -97zM277 767l145 117l54 -59l-166 -97z" />
    <glyph glyph-name="ohungarumlaut" unicode="&#x151;" horiz-adv-x="438" 
d="M222 501q59 0 93 -23.5t54 -58.5q7 -12 12 -31.5t8 -43t4.5 -49t1.5 -48.5q0 -14 -1 -34t-3.5 -42t-5.5 -42t-7 -32q-9 -29 -26.5 -49t-40 -32t-48 -17.5t-52.5 -5.5q-57 0 -93.5 24t-54.5 62q-13 27 -18 71.5t-5 93.5q0 47 4.5 90t15.5 70q20 45 61 71t101 26zM220 428
q-29 0 -52 -14t-34 -42q-7 -19 -10.5 -54.5t-3.5 -82.5q0 -33 1.5 -62t9.5 -49q11 -27 32 -42t53 -15q31 0 54.5 15t34.5 48q5 14 7 47.5t2 74.5q0 35 -2 66.5t-8 49.5q-11 30 -33 45t-51 15zM131 572l70 173l76 -25l-98 -167zM260 572l70 173l76 -25l-98 -167z" />
    <glyph glyph-name="Racute" unicode="&#x154;" horiz-adv-x="506" 
d="M381 0l-116 306h-117v-306h-83v696h218q85 0 134 -50.5t49 -143.5q0 -66 -29.5 -113.5t-90.5 -70.5l126 -318h-91zM382 502q0 58 -27.5 88t-86.5 30h-120v-241h122q56 0 84 33t28 90zM165 766l145 118l54 -59l-166 -98z" />
    <glyph glyph-name="racute" unicode="&#x155;" horiz-adv-x="311" 
d="M142 435q23 39 52 52.5t69 13.5q29 -2 45 -11l-18 -87q-24 11 -49 11q-46 0 -74 -25.5t-28 -81.5v-307h-80v494h80v-59h3zM133 572l70 173l76 -25l-98 -167z" />
    <glyph glyph-name="Rcommaaccent" unicode="&#x156;" horiz-adv-x="506" 
d="M381 0l-116 306h-117v-306h-83v696h218q85 0 134 -50.5t49 -143.5q0 -66 -29.5 -113.5t-90.5 -70.5l126 -318h-91zM382 502q0 58 -27.5 88t-86.5 30h-120v-241h122q56 0 84 33t28 90zM249 -234h-47l31 89h-28v103h95v-101z" />
    <glyph glyph-name="rcommaaccent" unicode="&#x157;" horiz-adv-x="311" 
d="M142 435q23 39 52 52.5t69 13.5q29 -2 45 -11l-18 -87q-24 11 -49 11q-46 0 -74 -25.5t-28 -81.5v-307h-80v494h80v-59h3zM93 -254h-47l31 89h-28v103h95v-101z" />
    <glyph glyph-name="Rcaron" unicode="&#x158;" horiz-adv-x="506" 
d="M381 0l-116 306h-117v-306h-83v696h218q85 0 134 -50.5t49 -143.5q0 -66 -29.5 -113.5t-90.5 -70.5l126 -318h-91zM382 502q0 58 -27.5 88t-86.5 30h-120v-241h122q56 0 84 33t28 90zM367 891l32 -34l-133 -122h-50l-140 124l31 33l130 -81z" />
    <glyph glyph-name="rcaron" unicode="&#x159;" horiz-adv-x="311" 
d="M142 435q23 39 52 52.5t69 13.5q29 -2 45 -11l-18 -87q-24 11 -49 11q-46 0 -74 -25.5t-28 -81.5v-307h-80v494h80v-59h3zM281 732l37 -35l-133 -144h-50l-141 146l37 33l125 -100z" />
    <glyph glyph-name="Sacute" unicode="&#x15a;" horiz-adv-x="478" 
d="M444 190q0 -91 -54.5 -144t-152.5 -53q-81 0 -135 33t-80 90l74 43q20 -35 54 -60t88 -25q64 0 92 33t28 83q0 28 -8.5 47.5t-24.5 33.5t-39 24.5t-51 19.5q-52 16 -88.5 33.5t-59.5 40.5t-33.5 52.5t-10.5 69.5q0 42 14 77t40.5 60.5t63.5 39.5t83 14q77 0 124 -27.5
t70 -69.5l-71 -49q-20 35 -50 50.5t-77 15.5q-58 0 -85 -32t-27 -79q0 -27 12 -46t33 -32.5t49 -24t61 -20.5q45 -14 76 -32t49.5 -42t27 -54.5t8.5 -69.5zM189 766l145 118l54 -59l-166 -98z" />
    <glyph glyph-name="sacute" unicode="&#x15b;" horiz-adv-x="405" 
d="M93 136q16 -32 42.5 -50t66.5 -18q42 0 65.5 17.5t23.5 56.5q0 19 -7 31t-19.5 20t-29.5 13.5l-37 11.5q-36 9 -65 20.5t-50 28t-32 39t-11 54.5q0 66 43 103.5t118 37.5q67 0 104.5 -25t54.5 -70l-63 -39q-29 60 -97 60q-45 0 -62.5 -20.5t-17.5 -46.5q0 -17 9 -28
t24.5 -18.5t36 -13.5l42.5 -12q35 -8 61 -19.5t43.5 -29t26 -41.5t8.5 -58q0 -67 -45 -107t-126 -40q-64 0 -107 27t-66 78zM150 572l70 173l76 -25l-98 -167z" />
    <glyph glyph-name="Scircumflex" unicode="&#x15c;" horiz-adv-x="478" 
d="M444 190q0 -91 -54.5 -144t-152.5 -53q-81 0 -135 33t-80 90l74 43q20 -35 54 -60t88 -25q64 0 92 33t28 83q0 28 -8.5 47.5t-24.5 33.5t-39 24.5t-51 19.5q-52 16 -88.5 33.5t-59.5 40.5t-33.5 52.5t-10.5 69.5q0 42 14 77t40.5 60.5t63.5 39.5t83 14q77 0 124 -27.5
t70 -69.5l-71 -49q-20 35 -50 50.5t-77 15.5q-58 0 -85 -32t-27 -79q0 -27 12 -46t33 -32.5t49 -24t61 -20.5q45 -14 76 -32t49.5 -42t27 -54.5t8.5 -69.5zM240 813l-130 -80l-31 33l140 123h50l133 -121l-32 -35z" />
    <glyph glyph-name="scircumflex" unicode="&#x15d;" horiz-adv-x="405" 
d="M93 136q16 -32 42.5 -50t66.5 -18q42 0 65.5 17.5t23.5 56.5q0 19 -7 31t-19.5 20t-29.5 13.5l-37 11.5q-36 9 -65 20.5t-50 28t-32 39t-11 54.5q0 66 43 103.5t118 37.5q67 0 104.5 -25t54.5 -70l-63 -39q-29 60 -97 60q-45 0 -62.5 -20.5t-17.5 -46.5q0 -17 9 -28
t24.5 -18.5t36 -13.5l42.5 -12q35 -8 61 -19.5t43.5 -29t26 -41.5t8.5 -58q0 -67 -45 -107t-126 -40q-64 0 -107 27t-66 78zM204 653l-125 -101l-37 33l141 146h50l133 -144l-37 -34z" />
    <glyph glyph-name="Scedilla" unicode="&#x15e;" horiz-adv-x="478" 
d="M444 190q0 -85 -48 -137t-135 -59l-12 -41q26 -2 43 -10t27.5 -20t14.5 -25t4 -25t-5 -26t-16 -25.5t-29 -19t-43 -7.5h-14t-22.5 1.5t-26.5 5t-26 9.5l14 37q19 -9 36.5 -11t31.5 -2q17 0 30.5 10t13.5 27q0 20 -15.5 32t-48.5 10l-18 15l19 65q-73 4 -122.5 36
t-74.5 86l74 43q20 -35 54 -60t88 -25q64 0 92 33t28 83q0 28 -8.5 47.5t-24.5 33.5t-39 24.5t-51 19.5q-52 16 -88.5 33.5t-59.5 40.5t-33.5 52.5t-10.5 69.5q0 42 14 77t40.5 60.5t63.5 39.5t83 14q77 0 124 -27.5t70 -69.5l-71 -49q-20 35 -50 50.5t-77 15.5
q-58 0 -85 -32t-27 -79q0 -27 12 -46t33 -32.5t49 -24t61 -20.5q45 -14 76 -32t49.5 -42t27 -54.5t8.5 -69.5z" />
    <glyph glyph-name="scedilla" unicode="&#x15f;" horiz-adv-x="405" 
d="M93 136q16 -32 42.5 -50t66.5 -18q42 0 65.5 17.5t23.5 56.5q0 19 -7 31t-19.5 20t-29.5 13.5l-37 11.5q-36 9 -65 20.5t-50 28t-32 39t-11 54.5q0 66 43 103.5t118 37.5q67 0 104.5 -25t54.5 -70l-63 -39q-29 60 -97 60q-45 0 -62.5 -20.5t-17.5 -46.5q0 -17 9 -28
t24.5 -18.5t36 -13.5l42.5 -12q35 -8 61 -19.5t43.5 -29t26 -41.5t8.5 -58q0 -63 -40.5 -102t-112.5 -44l-12 -41q26 -2 43 -10t27.5 -20t14.5 -25t4 -25t-5 -26t-16 -25.5t-29 -19t-43 -7.5h-14t-22.5 1.5t-26.5 5t-26 9.5l14 37q19 -9 36.5 -11t31.5 -2q17 0 30.5 10
t13.5 27q0 20 -15.5 32t-48.5 10l-18 15l19 65q-106 9 -149 104z" />
    <glyph glyph-name="Tcommaaccent" unicode="&#x162;" horiz-adv-x="403" 
d="M243 620v-620h-83v620h-159v76h401v-76h-159zM201 -254h-47l31 89h-28v103h95v-101z" />
    <glyph glyph-name="tcommaaccent" unicode="&#x163;" horiz-adv-x="249" 
d="M185 0q-57 0 -85.5 32.5t-28.5 80.5v316h-55v66h55v127h81v-127h70v-66h-70v-293q0 -31 12 -46.5t39 -15.5h27v-74h-45zM124 -254h-47l31 89h-28v103h95v-101z" />
    <glyph glyph-name="Tcaron" unicode="&#x164;" horiz-adv-x="403" 
d="M243 620v-620h-83v620h-159v76h401v-76h-159zM333 891l32 -34l-133 -122h-50l-140 124l31 33l130 -81z" />
    <glyph glyph-name="tcaron" unicode="&#x165;" horiz-adv-x="296" 
d="M253 555h-47l31 89h-28v103h95v-101zM185 0q-57 0 -85.5 32.5t-28.5 80.5v316h-55v66h55v127h81v-127h70v-66h-70v-293q0 -31 12 -46.5t39 -15.5h27v-74h-45z" />
    <glyph glyph-name="Tbar" unicode="&#x166;" horiz-adv-x="403" 
d="M243 620v-228h123v-70h-123v-322h-83v322h-122v70h122v228h-159v76h401v-76h-159z" />
    <glyph glyph-name="tbar" unicode="&#x167;" horiz-adv-x="249" 
d="M185 0q-57 0 -85.5 32.5t-28.5 80.5v156h-55v63h55v97h-55v66h55v127h81v-127h70v-66h-70v-97h70v-63h-70v-133q0 -31 12 -46.5t39 -15.5h27v-74h-45z" />
    <glyph glyph-name="Utilde" unicode="&#x168;" horiz-adv-x="519" 
d="M464 696v-494q0 -48 -15 -86.5t-42 -65.5t-64.5 -41.5t-82.5 -14.5q-48 0 -85.5 15.5t-64 43t-40.5 66t-14 83.5v494h83v-497q0 -25 8.5 -47.5t24 -40t38 -28t50.5 -10.5q53 0 86.5 33.5t33.5 92.5v497h84zM194 859q16 0 32 -6.5t31 -14.5t30 -14.5t29 -6.5q27 0 57 42
l45 -28q-20 -41 -45.5 -61.5t-52.5 -20.5q-17 0 -33 6.5t-31.5 14l-30 14t-27.5 6.5q-15 0 -28.5 -9t-29.5 -29l-44 25q17 34 43 58t55 24z" />
    <glyph glyph-name="utilde" unicode="&#x169;" horiz-adv-x="442" 
d="M309 0v53h-3q-21 -30 -52.5 -44.5t-66.5 -14.5q-30 0 -56 10.5t-44.5 30t-29.5 47t-11 62.5v350h81v-323q0 -45 24.5 -71.5t66.5 -26.5q41 0 66 27t25 73v321h80v-494h-80zM149 689q16 0 32 -6.5t31 -14.5t30 -14.5t29 -6.5q27 0 57 42l45 -28q-20 -41 -45.5 -61.5
t-52.5 -20.5q-17 0 -33 6.5t-31.5 14l-30 14t-27.5 6.5q-15 0 -28.5 -9t-29.5 -29l-44 25q17 34 43 58t55 24z" />
    <glyph glyph-name="Umacron" unicode="&#x16a;" horiz-adv-x="519" 
d="M464 696v-494q0 -48 -15 -86.5t-42 -65.5t-64.5 -41.5t-82.5 -14.5q-48 0 -85.5 15.5t-64 43t-40.5 66t-14 83.5v494h83v-497q0 -25 8.5 -47.5t24 -40t38 -28t50.5 -10.5q53 0 86.5 33.5t33.5 92.5v497h84zM140 763v75h248v-75h-248z" />
    <glyph glyph-name="umacron" unicode="&#x16b;" horiz-adv-x="442" 
d="M309 0v53h-3q-21 -30 -52.5 -44.5t-66.5 -14.5q-30 0 -56 10.5t-44.5 30t-29.5 47t-11 62.5v350h81v-323q0 -45 24.5 -71.5t66.5 -26.5q41 0 66 27t25 73v321h80v-494h-80zM97 588v75h248v-75h-248z" />
    <glyph glyph-name="Ubreve" unicode="&#x16c;" horiz-adv-x="519" 
d="M464 696v-494q0 -48 -15 -86.5t-42 -65.5t-64.5 -41.5t-82.5 -14.5q-48 0 -85.5 15.5t-64 43t-40.5 66t-14 83.5v494h83v-497q0 -25 8.5 -47.5t24 -40t38 -28t50.5 -10.5q53 0 86.5 33.5t33.5 92.5v497h84zM197 849q1 -10 6 -21t14 -20.5t21.5 -15.5t27.5 -6q17 0 30 6
t22 15.5t13.5 20.5t4.5 21h67q-2 -20 -9.5 -42t-23 -40.5t-41 -31t-63.5 -12.5q-39 0 -65 12.5t-42 31t-23.5 40.5t-7.5 42h69z" />
    <glyph glyph-name="ubreve" unicode="&#x16d;" horiz-adv-x="442" 
d="M309 0v53h-3q-21 -30 -52.5 -44.5t-66.5 -14.5q-30 0 -56 10.5t-44.5 30t-29.5 47t-11 62.5v350h81v-323q0 -45 24.5 -71.5t66.5 -26.5q41 0 66 27t25 73v321h80v-494h-80zM157 699q1 -10 6 -21t14 -20.5t21.5 -15.5t27.5 -6q17 0 30 6t22 15.5t13.5 20.5t4.5 21h67
q-2 -20 -9.5 -42t-23 -40.5t-41 -31t-63.5 -12.5q-39 0 -65 12.5t-42 31t-23.5 40.5t-7.5 42h69z" />
    <glyph glyph-name="Uring" unicode="&#x16e;" horiz-adv-x="519" 
d="M464 696v-494q0 -48 -15 -86.5t-42 -65.5t-64.5 -41.5t-82.5 -14.5q-48 0 -85.5 15.5t-64 43t-40.5 66t-14 83.5v494h83v-497q0 -25 8.5 -47.5t24 -40t38 -28t50.5 -10.5q53 0 86.5 33.5t33.5 92.5v497h84zM262 713q-38 0 -63.5 24.5t-25.5 59.5q0 18 7 33.5t19 27
t28 18.5t35 7q17 0 32.5 -7t27 -18.5t18.5 -27t7 -33.5q0 -35 -25 -59.5t-60 -24.5zM262 842q-20 0 -33.5 -13t-13.5 -32q0 -18 13.5 -30.5t33.5 -12.5q18 0 31 12.5t13 30.5q0 19 -13 32t-31 13z" />
    <glyph glyph-name="uring" unicode="&#x16f;" horiz-adv-x="442" 
d="M309 0v53h-3q-21 -30 -52.5 -44.5t-66.5 -14.5q-30 0 -56 10.5t-44.5 30t-29.5 47t-11 62.5v350h81v-323q0 -45 24.5 -71.5t66.5 -26.5q41 0 66 27t25 73v321h80v-494h-80zM226 551q-38 0 -63.5 24.5t-25.5 59.5q0 18 7 33.5t19 27t28 18.5t35 7q17 0 32.5 -7t27 -18.5
t18.5 -27t7 -33.5q0 -35 -25 -59.5t-60 -24.5zM226 680q-20 0 -33.5 -13t-13.5 -32q0 -18 13.5 -30.5t33.5 -12.5q18 0 31 12.5t13 30.5q0 19 -13 32t-31 13z" />
    <glyph glyph-name="Uhungarumlaut" unicode="&#x170;" horiz-adv-x="519" 
d="M464 696v-494q0 -48 -15 -86.5t-42 -65.5t-64.5 -41.5t-82.5 -14.5q-48 0 -85.5 15.5t-64 43t-40.5 66t-14 83.5v494h83v-497q0 -25 8.5 -47.5t24 -40t38 -28t50.5 -10.5q53 0 86.5 33.5t33.5 92.5v497h84zM126 767l145 117l54 -59l-166 -97zM298 767l145 117l54 -59
l-166 -97z" />
    <glyph glyph-name="uhungarumlaut" unicode="&#x171;" horiz-adv-x="442" 
d="M309 0v53h-3q-21 -30 -52.5 -44.5t-66.5 -14.5q-30 0 -56 10.5t-44.5 30t-29.5 47t-11 62.5v350h81v-323q0 -45 24.5 -71.5t66.5 -26.5q41 0 66 27t25 73v321h80v-494h-80zM124 572l70 173l76 -25l-98 -167zM253 572l70 173l76 -25l-98 -167z" />
    <glyph glyph-name="Uogonek" unicode="&#x172;" horiz-adv-x="519" 
d="M196 -90q0 19 7.5 39.5t24.5 46.5q-81 10 -126.5 66t-45.5 140v494h83v-497q0 -25 8.5 -47.5t24 -40t38 -28t50.5 -10.5q53 0 86.5 33.5t33.5 92.5v497h84v-494q0 -44 -12.5 -80.5t-36 -63t-56 -42.5t-71.5 -20q-27 -41 -27 -71q0 -21 12.5 -32.5t35.5 -11.5q22 0 57 16
l20 -50q-20 -11 -44 -18t-49 -7q-43 0 -70 26t-27 62z" />
    <glyph glyph-name="uogonek" unicode="&#x173;" horiz-adv-x="442" 
d="M273 -90q0 20 8 42t28 49v52h-3q-21 -30 -52.5 -44.5t-66.5 -14.5q-30 0 -56 10.5t-44.5 30t-29.5 47t-11 62.5v350h81v-323q0 -45 24.5 -71.5t66.5 -26.5q41 0 66 27t25 73v321h80v-494h-21q-30 -44 -30 -75q0 -21 12.5 -32.5t35.5 -11.5q22 0 57 16l20 -50
q-20 -11 -44 -18t-49 -7q-43 0 -70 26t-27 62z" />
    <glyph glyph-name="Wcircumflex" unicode="&#x174;" horiz-adv-x="702" 
d="M545 0h-74l-78 338l-41 191h-3l-40 -187l-78 -342h-74l-138 696h87l58 -319l32 -198h3l42 195l75 322h71l75 -323l42 -194h3l31 194l57 323h88zM349 813l-130 -80l-31 33l140 123h50l133 -121l-32 -35z" />
    <glyph glyph-name="wcircumflex" unicode="&#x175;" horiz-adv-x="635" 
d="M490 0h-79l-32.5 119.5t-31.5 120.5l-31 115h-2l-16 -64.5l-16 -63.5l-60 -227h-80l-134 495h86l32.5 -131l31.5 -131l24 -102h4l25 101l33 130.5l34 132.5h79l32.5 -128l31.5 -128l27 -113h4l25 108l30.5 130.5l30.5 130.5h87zM316 653l-125 -101l-37 33l141 146h50
l133 -144l-37 -34z" />
    <glyph glyph-name="Ycircumflex" unicode="&#x176;" horiz-adv-x="442" 
d="M223 386l51 134l72 176h87l-172 -406v-290h-81v290l-173 406h88l37 -90l37 -90q12 -30 24.5 -65l23.5 -65h6zM218 813l-130 -80l-31 33l140 123h50l133 -121l-32 -35z" />
    <glyph glyph-name="ycircumflex" unicode="&#x177;" horiz-adv-x="384" 
d="M206 -99q-16 -53 -49 -78t-80 -25h-26v70h24q47 0 64 71l21 73l-159 483h86l61 -198l47 -167h3l44 167l58 198h84zM189 653l-125 -101l-37 33l141 146h50l133 -144l-37 -34z" />
    <glyph glyph-name="Zacute" unicode="&#x179;" horiz-adv-x="413" 
d="M27 0v77l271 543h-260v76h350v-72l-271 -545h270v-79h-360zM155 766l145 118l54 -59l-166 -98z" />
    <glyph glyph-name="zacute" unicode="&#x17a;" horiz-adv-x="370" 
d="M29 0v71l222 352h-208v71h299v-69l-221 -349h221v-76h-313zM155 572l70 173l76 -25l-98 -167z" />
    <glyph glyph-name="Zdotaccent" unicode="&#x17b;" horiz-adv-x="413" 
d="M27 0v77l271 543h-260v76h350v-72l-271 -545h270v-79h-360zM184 763v84h78v-84h-78z" />
    <glyph glyph-name="zdotaccent" unicode="&#x17c;" horiz-adv-x="370" 
d="M29 0v71l222 352h-208v71h299v-69l-221 -349h221v-76h-313zM164 593v84h78v-84h-78z" />
    <glyph glyph-name="AEacute" unicode="&#x1fc;" horiz-adv-x="801" 
d="M395 193h-206l-96 -193h-86l173 348l174 348h411v-78h-286v-228h245v-75h-245v-235h286v-80h-370v193zM226 268h169v349h-1zM474 766l145 118l54 -59l-166 -98z" />
    <glyph glyph-name="aeacute" unicode="&#x1fd;" horiz-adv-x="690" 
d="M637 82q-20 -44 -59 -66t-89 -22q-55 0 -91.5 16.5t-59.5 53.5q-22 -24 -44 -38t-42.5 -21t-39.5 -9t-34 -2q-36 0 -63 11.5t-44.5 31.5t-26 46.5t-8.5 55.5q0 66 41 109.5t131 43.5h91v61q0 34 -22.5 53t-66.5 19q-29 0 -54.5 -10.5t-36.5 -36.5l-31.5 18.5l-31.5 19.5
q20 41 61.5 63t92.5 22q45 0 83 -12.5t61 -42.5q20 26 50 40.5t74 14.5q84 0 128.5 -53.5t44.5 -147.5v-77h-267q0 -33 4 -61.5t15 -49.5t31 -33t52 -12q27 0 50 13.5t37 36.5zM299 223h-97q-39 0 -64 -18.5t-25 -60.5q0 -33 22 -53.5t67 -20.5q42 0 69.5 19t27.5 66v68z
M571 288q0 68 -23.5 102.5t-68.5 34.5q-52 0 -71.5 -37t-21.5 -100h185zM315 572l70 173l76 -25l-98 -167z" />
    <glyph glyph-name="Oslash" unicode="&#xd8;" horiz-adv-x="497" 
d="M452 203q0 -48 -15 -86.5t-42 -66t-64.5 -42t-82.5 -14.5q-48 0 -84 14t-60 38l-28 -50l-37 25l35 64q-16 28 -23 61t-7 69v279q0 35 11 72t35 67t63 49t95 19q46 0 80.5 -14t59.5 -37l28 51l39 -24l-36 -64q17 -27 25 -57.5t8 -61.5v-291zM367 493q0 5 -0.5 10.5
t-1.5 11.5l-218 -391q14 -25 39.5 -39t63.5 -14q24 0 45.5 8.5t37 24.5t25 39t9.5 52v298zM127 216v-17t2 -16l215 388q-14 21 -37 36t-60 15q-36 0 -59 -13.5t-37 -33t-19.5 -42.5t-5.5 -42z" />
    <glyph glyph-name="oslash" unicode="&#xf8;" horiz-adv-x="438" 
d="M222 501q36 0 64 -10.5t48 -27.5l28 41l35 -26l-33 -49l6 -10q7 -13 12 -32.5t8 -43t4 -48.5t1 -48q0 -14 -1 -34t-3.5 -42t-5.5 -42t-7 -32q-9 -29 -26.5 -49t-40 -32t-48 -17.5t-52.5 -5.5q-38 0 -66.5 10.5t-48.5 29.5l-23 -34l-33 26l29 43l-6 11q-13 27 -18 71.5
t-5 93.5q0 47 4.5 90t15.5 70q20 45 61 71t101 26zM314 252q0 26 -1 51t-4 44l-167 -245q24 -35 74 -35q31 0 54.5 15t34.5 48q5 14 7 47.5t2 74.5zM220 428q-29 0 -51.5 -14t-34.5 -42q-8 -18 -11 -54t-3 -83q0 -23 0.5 -45t3.5 -40l165 246q-12 16 -30 24t-39 8z" />
    <glyph glyph-name="Oslashacute" unicode="&#x1fe;" horiz-adv-x="497" 
d="M452 203q0 -48 -15 -86.5t-42 -66t-64.5 -42t-82.5 -14.5q-48 0 -84 14t-60 38l-28 -50l-37 25l35 64q-16 28 -23 61t-7 69v279q0 35 11 72t35 67t63 49t95 19q46 0 80.5 -14t59.5 -37l28 51l39 -24l-36 -64q17 -27 25 -57.5t8 -61.5v-291zM367 493q0 5 -0.5 10.5
t-1.5 11.5l-218 -391q14 -25 39.5 -39t63.5 -14q24 0 45.5 8.5t37 24.5t25 39t9.5 52v298zM127 216v-17t2 -16l215 388q-14 21 -37 36t-60 15q-36 0 -59 -13.5t-37 -33t-19.5 -42.5t-5.5 -42zM175 766l145 118l54 -59l-166 -98z" />
    <glyph glyph-name="oslashacute" unicode="&#x1ff;" horiz-adv-x="438" 
d="M222 501q38 0 65 -10.5t47 -28.5l28 42l35 -26l-34 -50l6 -9q7 -12 12 -31.5t8 -43t4.5 -49t1.5 -48.5q0 -14 -1 -34t-3.5 -42t-5.5 -42t-7 -32q-9 -29 -26.5 -49t-40 -32t-48 -17.5t-52.5 -5.5q-38 0 -66.5 10.5t-48.5 29.5l-23 -34l-33 26l29 43l-6 11q-13 27 -18 71.5
t-5 93.5q0 47 4.5 90t15.5 70q20 45 61 71t101 26zM314 252q0 26 -1 51t-4 44l-167 -245q24 -35 74 -35q31 0 54.5 15t34.5 48q5 14 7 47.5t2 74.5zM220 428q-29 0 -52 -14t-34 -42q-7 -19 -10.5 -54.5t-3.5 -82.5q0 -23 0.5 -45t3.5 -40l165 246q-12 16 -30 24t-39 8z
M175 572l70 173l76 -25l-98 -167z" />
    <glyph glyph-name="paragraph" unicode="&#xb6;" horiz-adv-x="485" 
d="M206 324h-3q-46 0 -77 17t-50 44t-27 59t-8 62q0 28 6.5 63t25 65t52.5 50.5t89 20.5h226v-65h-36v-722h-63v722h-72v-722h-63v406z" />
    <glyph glyph-name="cent" unicode="&#xa2;" horiz-adv-x="440" 
d="M204 -117v113q-45 6 -75 27t-47 55t-24 79.5t-7 100.5q0 100 37 164.5t116 75.5v103h45v-101q50 -3 85 -27t54 -63l-66 -41q-22 49 -73 54v-353q26 4 44 18.5t28 32.5q17 -10 34 -18.5t34 -18.5q-19 -39 -55 -63t-85 -26v-112h-45zM132 256q0 -31 3 -60.5t11 -53.5
t22 -41.5t36 -25.5v344q-23 -6 -37 -21t-21.5 -36.5t-10.5 -48.5t-3 -57z" />
    <glyph glyph-name="currency" unicode="&#xa4;" horiz-adv-x="556" 
d="M142 319q0 -27 11 -51.5t29 -42.5t42 -28.5t51 -10.5q28 0 52.5 10.5t42.5 28.5t28.5 42t10.5 52t-10.5 52.5t-28.5 42.5t-42.5 28.5t-52.5 10.5q-27 0 -51 -10.5t-42.5 -28.5t-29 -42.5t-10.5 -52.5zM40 505l49 49l68 -68q29 19 58 28.5t61 9.5t61 -9.5t58 -28.5l67 68
l49 -50l-68 -67q38 -58 38 -118q0 -62 -38 -118l68 -66l-49 -50l-67 68q-56 -39 -119 -39q-64 0 -119 39l-68 -68l-49 49l69 67q-21 27 -29.5 57t-8.5 61q0 60 38 118z" />
    <glyph glyph-name="afii10023" unicode="&#x401;" horiz-adv-x="455" 
d="M65 0v696h369v-78h-286v-228h245v-75h-245v-234h286v-81h-369zM291 748v84h78v-84h-78zM124 748v84h79v-84h-79z" />
    <glyph glyph-name="afii10051" unicode="&#x402;" horiz-adv-x="599" 
d="M246 413q35 28 73.5 42.5t72.5 14.5q86 0 124.5 -56.5t38.5 -179.5q0 -53 -8 -98.5t-28.5 -78.5t-55.5 -51.5t-88 -18.5h-17.5t-18.5 2v69h15q37 0 60 12.5t35.5 35t17 54.5t4.5 70q0 36 -3.5 65.5t-14 51t-30 33t-50.5 11.5q-39 0 -73 -17t-57 -43v-331h-84v621h-154v74
h440v-74h-202v-208h3z" />
    <glyph glyph-name="afii10052" unicode="&#x403;" horiz-adv-x="441" 
d="M148 618v-618h-83v696h361v-78h-278zM166 766l145 118l54 -59l-166 -98z" />
    <glyph glyph-name="afii10053" unicode="&#x404;" horiz-adv-x="469" 
d="M446 129q-18 -66 -69.5 -100.5t-123.5 -34.5q-47 0 -85 15.5t-64 43t-40 65.5t-14 84v292q0 44 13.5 82t39.5 65.5t64 43.5t86 16q71 0 122.5 -35t70.5 -98l-79 -31q-10 38 -38.5 61t-75.5 23q-29 0 -51.5 -10.5t-37.5 -27.5t-23 -40t-8 -47v-106h226v-77h-226v-113
q0 -25 8 -48t23 -40.5t37.5 -28t51.5 -10.5q45 0 74.5 23t39.5 62z" />
    <glyph glyph-name="afii10054" unicode="&#x405;" horiz-adv-x="478" 
d="M444 190q0 -91 -54.5 -144t-152.5 -53q-81 0 -135 33t-80 90l74 43q20 -35 54 -60t88 -25q64 0 92 33t28 83q0 28 -8.5 47.5t-24.5 33.5t-39 24.5t-51 19.5q-52 16 -88.5 33.5t-59.5 40.5t-33.5 52.5t-10.5 69.5q0 42 14 77t40.5 60.5t63.5 39.5t83 14q77 0 124 -27.5
t70 -69.5l-71 -49q-20 35 -50 50.5t-77 15.5q-58 0 -85 -32t-27 -79q0 -27 12 -46t33 -32.5t49 -24t61 -20.5q45 -14 76 -32t49.5 -42t27 -54.5t8.5 -69.5z" />
    <glyph glyph-name="afii10055" unicode="&#x406;" horiz-adv-x="217" 
d="M66 0v696h84v-696h-84z" />
    <glyph glyph-name="afii10056" unicode="&#x407;" horiz-adv-x="217" 
d="M66 0v696h84v-696h-84zM154 772v84h78v-84h-78zM-13 772v84h79v-84h-79z" />
    <glyph glyph-name="afii10057" unicode="&#x408;" horiz-adv-x="406" 
d="M339 182q0 -51 -15 -86.5t-41.5 -58t-61 -33t-73.5 -10.5q-48 0 -86.5 18.5t-63.5 51.5l65 50q14 -17 36 -29t47 -12q46 0 77.5 25t31.5 85v513h84v-514z" />
    <glyph glyph-name="afii10058" unicode="&#x409;" horiz-adv-x="772" 
d="M349 620h-151v-302q0 -89 -11 -147.5t-32 -95.5t-52 -57.5t-70 -33.5l-29 65q26 13 47.5 27.5t36.5 39.5t23.5 66t8.5 109v405h313v-291h119q54 0 92 -15.5t61.5 -42.5t34.5 -62.5t11 -75.5q0 -102 -53 -155.5t-150 -53.5h-199v620zM666 206q0 24 -5.5 46.5t-19.5 40
t-37 27.5t-58 10h-113v-252h112q65 0 93 35.5t28 92.5z" />
    <glyph glyph-name="afii10059" unicode="&#x40a;" horiz-adv-x="785" 
d="M362 0v321h-214v-321h-84v696h84v-298h214v298h84v-298h113q54 0 93 -14t63.5 -39t36.5 -60.5t12 -78.5q0 -103 -52.5 -154.5t-149.5 -51.5h-200zM446 77h112q65 0 93 33.5t28 92.5q0 24 -6 45.5t-20 37.5t-37.5 25.5t-58.5 9.5h-111v-244z" />
    <glyph glyph-name="afii10060" unicode="&#x40b;" horiz-adv-x="609" 
d="M243 0h-84v622h-155v74h444v-74h-205v-203l3 -2q38 32 74 42.5t68 10.5q78 0 120 -44t42 -122l1 -304h-84v261q0 27 -3.5 51t-14 41.5t-30 27.5t-50.5 10q-39 0 -71 -17t-55 -43v-331z" />
    <glyph glyph-name="afii10145" unicode="&#x40f;" horiz-adv-x="530" 
d="M466 696v-696h-156v-155h-85v155h-160v696h83v-618h234v618h84z" />
    <glyph glyph-name="afii10017" unicode="&#x410;" horiz-adv-x="497" 
d="M403 0l-44 158h-222l-43 -158h-85l202 696h75l203 -696h-86zM289 413l-39 154h-4l-39 -153l-51 -181h184z" />
    <glyph glyph-name="afii10018" unicode="&#x411;" horiz-adv-x="495" 
d="M147 78h112q65 0 93 34t28 93q0 24 -6 46.5t-20 39.5t-37.5 27t-58.5 10h-111v-250zM147 406h113q54 0 93 -15t63.5 -41t36.5 -62.5t12 -79.5q0 -103 -52.5 -155.5t-149.5 -52.5h-200v696h346v-77h-262v-213z" />
    <glyph glyph-name="afii10019" unicode="&#x412;" horiz-adv-x="506" 
d="M465 199q0 -98 -50.5 -148.5t-136.5 -50.5h-213v696h200q96 0 142.5 -49.5t46.5 -133.5q0 -48 -18 -85t-71 -63v-3q27 -7 46 -23t31 -37.5t17.5 -48t5.5 -54.5zM148 620v-223h109q60 0 87.5 31t27.5 82q0 50 -27.5 80t-87.5 30h-109zM148 325v-244h121q33 0 55 10t35 27
t18.5 39.5t5.5 48.5q0 52 -26.5 85.5t-89.5 33.5h-119z" />
    <glyph glyph-name="afii10020" unicode="&#x413;" horiz-adv-x="441" 
d="M148 618v-618h-83v696h361v-78h-278z" />
    <glyph glyph-name="afii10021" unicode="&#x414;" horiz-adv-x="578" 
d="M91 -141h-78v206l42 8q23 15 37 39t22 63t11.5 96t5.5 139l8 286h370q0 -157 0.5 -312t0.5 -312h49v-213h-78v141h-390v-141zM426 72v551h-211l-8 -239q-4 -116 -11.5 -192t-38.5 -120h269z" />
    <glyph glyph-name="afii10022" unicode="&#x415;" horiz-adv-x="455" 
d="M65 0v696h369v-78h-286v-228h245v-75h-245v-234h286v-81h-369z" />
    <glyph glyph-name="afii10025" unicode="&#x417;" horiz-adv-x="467" 
d="M213 -6q-39 0 -73.5 9.5t-61 29t-43.5 47.5t-23 66l79 28q9 -52 43 -78t81 -26q51 0 84.5 30.5t33.5 101.5q0 55 -25.5 90.5t-81.5 35.5h-59v73h59q51 0 77 33t26 84q0 56 -30.5 80.5t-78.5 24.5t-78.5 -28t-41.5 -72l-80 27q15 71 68.5 111t131.5 40q95 0 144 -44
t49 -135q0 -19 -4 -41.5t-13.5 -44.5t-25 -40t-37.5 -28v-4q28 -12 45 -31t26 -41.5t12 -46t3 -44.5q0 -94 -52.5 -150.5t-153.5 -56.5z" />
    <glyph glyph-name="afii10026" unicode="&#x418;" horiz-adv-x="562" 
d="M64 0v696h83v-528l4 -1l104 208l165 321h81v-696h-84v530h-3l-97 -193l-173 -337h-80z" />
    <glyph glyph-name="afii10029" unicode="&#x41b;" horiz-adv-x="543" 
d="M194 318q0 -90 -10.5 -148.5t-31 -95.5t-51.5 -57t-72 -33q-8 16 -14.5 32t-14.5 33q26 13 47.5 27.5t36.5 39.5t23.5 66t8.5 108v406h360v-696h-83v620h-199v-302z" />
    <glyph glyph-name="afii10030" unicode="&#x41c;" horiz-adv-x="656" 
d="M514 0v486l-4 -1l-55 -134l-96 -215h-57l-97 219l-53 131l-4 -1v-485h-83v696h84l115 -263l66 -161h3l68 163l113 261h83v-696h-83z" />
    <glyph glyph-name="afii10031" unicode="&#x41d;" horiz-adv-x="532" 
d="M383 0v317h-235v-317h-83v696h83v-306h235v306h84v-696h-84z" />
    <glyph glyph-name="afii10032" unicode="&#x41e;" horiz-adv-x="497" 
d="M452 203q0 -48 -15 -86.5t-42 -66t-64.5 -42t-82.5 -14.5q-55 0 -94 18t-63.5 48.5t-35.5 70.5t-11 84v279q0 35 11 72t35 67t63 49t95 19q53 0 91.5 -18t63.5 -47.5t37 -66.5t12 -75v-291zM367 493q0 16 -5.5 38t-19 42t-36.5 34.5t-59 14.5t-59 -13.5t-37 -33
t-19.5 -42.5t-5.5 -42l1 -275q0 -30 6.5 -56.5t21.5 -46t38.5 -31t56.5 -11.5q24 0 45.5 8.5t37 24.5t25 39t9.5 52v298z" />
    <glyph glyph-name="afii10033" unicode="&#x41f;" horiz-adv-x="525" 
d="M377 0v623h-229v-623h-83v696h396v-696h-84z" />
    <glyph glyph-name="afii10034" unicode="&#x420;" horiz-adv-x="484" 
d="M466 487q0 -40 -11 -77.5t-34.5 -66t-61.5 -46t-92 -17.5h-119v-280h-83v696h198q97 0 150 -51.5t53 -157.5zM382 488q0 60 -28 95t-93 35h-113v-260h114q35 0 58 11t37 29t19.5 41.5t5.5 48.5z" />
    <glyph glyph-name="afii10035" unicode="&#x421;" horiz-adv-x="469" 
d="M446 129q-18 -66 -69.5 -100.5t-123.5 -34.5q-47 0 -85 15.5t-64 43t-40 65.5t-14 84v292q0 44 13.5 82t39.5 65.5t64 43.5t86 16q71 0 122.5 -35t70.5 -98l-79 -31q-10 38 -38.5 61t-75.5 23q-29 0 -51.5 -10.5t-37.5 -27.5t-23 -40t-8 -47v-296q0 -25 8 -48t23 -40.5
t37.5 -28t51.5 -10.5q45 0 74.5 23t39.5 62z" />
    <glyph glyph-name="afii10036" unicode="&#x422;" horiz-adv-x="403" 
d="M243 620v-620h-83v620h-159v76h401v-76h-159z" />
    <glyph glyph-name="afii10037" unicode="&#x423;" horiz-adv-x="454" 
d="M442 695l-86.5 -269l-85.5 -269q-16 -54 -33 -85.5t-36 -48t-39 -21.5t-42 -6h-57v72h47q21 0 38.5 14.5t31.5 52.5l9 32l-88 264l-88 264h86l75 -236l56 -179h4l12.5 41.5l22 73.5l27 90l27 91l22 75.5t13.5 43.5h84v0z" />
    <glyph glyph-name="afii10038" unicode="&#x424;" horiz-adv-x="613" 
d="M265 56h-1q-61 4 -103 24.5t-68.5 58t-38 92.5t-11.5 130q0 140 53 215t168 85h1v35h83v-35h4q117 -10 169 -85t52 -215q0 -75 -12 -129t-38.5 -90.5t-68.5 -57t-102 -28.5h-4v-56h-83v56zM264 591q-72 -3 -106.5 -58.5t-34.5 -170.5q0 -68 10 -112t28 -70.5t44 -38
t59 -13.5v463zM350 128q33 2 59.5 13t45.5 37t29.5 70.5t10.5 113.5q0 117 -37 171.5t-108 57.5v-463z" />
    <glyph glyph-name="afii10039" unicode="&#x425;" horiz-adv-x="450" 
d="M356 0l-131 282l-130 -282h-91l177 361l-165 335h91l118 -259l118 259h91l-166 -335l178 -361h-90z" />
    <glyph glyph-name="afii10040" unicode="&#x426;" horiz-adv-x="542" 
d="M441 0h-376v696h83v-618h233v618h83v-619h55v-217h-78v140z" />
    <glyph glyph-name="afii10041" unicode="&#x427;" horiz-adv-x="511" 
d="M129 696v-204q0 -41 5.5 -68.5t19 -44.5t36 -24t56.5 -7q23 0 55.5 8t60.5 28v312h84v-696h-84v312q-31 -17 -66.5 -25.5t-68.5 -8.5q-89 0 -134.5 49t-45.5 160v209h82z" />
    <glyph glyph-name="afii10042" unicode="&#x428;" horiz-adv-x="758" 
d="M697 696v-696h-635v696h83v-617h192v617h83v-617h193v617h84z" />
    <glyph glyph-name="afii10043" unicode="&#x429;" horiz-adv-x="777" 
d="M673 0h-612v696h83v-618h192v618h83v-618h193v618h84v-619h55v-217h-78v140z" />
    <glyph glyph-name="afii10044" unicode="&#x42a;" horiz-adv-x="609" 
d="M190 0v619h-178v77h261v-290h114q54 0 92.5 -15t63.5 -41t36.5 -62.5t11.5 -79.5q0 -103 -52.5 -155.5t-149.5 -52.5h-199zM273 78h113q65 0 93 34t28 93q0 24 -6 46.5t-20 39.5t-37.5 27t-58.5 10h-112v-250z" />
    <glyph glyph-name="afii10045" unicode="&#x42b;" horiz-adv-x="677" 
d="M68 0v696h83v-291h114q54 0 92.5 -14.5t63.5 -41t36.5 -62.5t11.5 -79q0 -103 -52.5 -155.5t-149.5 -52.5h-199zM531 0v696h84v-696h-84zM385 205q0 24 -6 46t-20 39.5t-37.5 27.5t-58.5 10h-112v-250h113q65 0 93 34t28 93z" />
    <glyph glyph-name="afii10046" unicode="&#x42c;" horiz-adv-x="483" 
d="M63 0v696h84v-290h113q54 0 93 -15t63.5 -41t36.5 -62.5t12 -79.5q0 -103 -52.5 -155.5t-149.5 -52.5h-200zM147 78h112q65 0 93 34t28 93q0 24 -6 46.5t-20 39.5t-37.5 27t-58.5 10h-111v-250z" />
    <glyph glyph-name="afii10047" unicode="&#x42d;" horiz-adv-x="471" 
d="M103 164q9 -45 37 -69t73 -24q35 0 58 12.5t36.5 33t19 45.5t5.5 50v107h-201v77h201v87q0 28 -6 53.5t-19.5 44.5t-35.5 30.5t-55 11.5q-45 0 -74 -26t-40 -68l-80 28q17 66 67.5 105.5t129.5 39.5q59 0 97 -19t60 -50t30.5 -71t8.5 -82v-274q0 -46 -12.5 -85t-38 -67.5
t-63 -44.5t-88.5 -16q-78 0 -126.5 37.5t-65.5 105.5z" />
    <glyph glyph-name="afii10048" unicode="&#x42e;" horiz-adv-x="658" 
d="M613 193q0 -48 -14 -85t-39.5 -62.5t-61.5 -38.5t-79 -13q-54 0 -91 16.5t-60 45t-33 67t-10 82.5v112h-85v-317h-83v696h83v-306h85v113q0 35 10 70.5t33 64t60 46t91 17.5q53 0 90 -16.5t60 -44.5t33.5 -63.5t10.5 -73.5v-310zM528 502q0 16 -4 36.5t-16 39t-33.5 31.5
t-55.5 13q-33 0 -54.5 -11.5t-34 -29.5t-18 -39t-5.5 -40l1 -296q0 -61 25.5 -98t87.5 -37q45 0 76 28t31 86v317z" />
    <glyph glyph-name="afii10065" unicode="&#x430;" horiz-adv-x="426" 
d="M295 38q-17 -22 -47.5 -33t-69.5 -11q-36 0 -63 11.5t-44.5 31.5t-26 46.5t-8.5 55.5q0 66 41 109.5t131 43.5h91v61q0 34 -22.5 53t-66.5 19q-29 0 -54.5 -10.5t-36.5 -36.5l-31.5 18.5l-31.5 19.5q20 41 61.5 63t92.5 22q35 0 66 -7.5t54.5 -24.5t37 -45.5t13.5 -71.5
v-352h-82v36zM299 223h-97q-39 0 -64 -18.5t-25 -60.5q0 -33 22 -53.5t67 -20.5q42 0 69.5 19t27.5 66v68z" />
    <glyph glyph-name="afii10070" unicode="&#x435;" horiz-adv-x="424" 
d="M372 89q-20 -44 -59.5 -69.5t-89.5 -25.5t-85 14t-57.5 44.5t-33 78.5t-10.5 116q0 47 7.5 92.5t27 81.5t53.5 58t87 22q84 0 128.5 -53.5t44.5 -147.5v-77h-267q0 -33 4 -61.5t15 -49.5t31 -33t52 -12q27 0 49.5 17t36.5 40zM305 288q0 68 -23.5 102.5t-68.5 34.5
q-52 0 -71.5 -37t-21.5 -100h185z" />
    <glyph glyph-name="afii10080" unicode="&#x43e;" horiz-adv-x="438" 
d="M222 501q59 0 93 -23.5t54 -58.5q7 -12 12 -31.5t8 -43t4.5 -49t1.5 -48.5q0 -14 -1 -34t-3.5 -42t-5.5 -42t-7 -32q-9 -29 -26.5 -49t-40 -32t-48 -17.5t-52.5 -5.5q-57 0 -93.5 24t-54.5 62q-13 27 -18 71.5t-5 93.5q0 47 4.5 90t15.5 70q20 45 61 71t101 26zM220 428
q-29 0 -52 -14t-34 -42q-7 -19 -10.5 -54.5t-3.5 -82.5q0 -33 1.5 -62t9.5 -49q11 -27 32 -42t53 -15q31 0 54.5 15t34.5 48q5 14 7 47.5t2 74.5q0 35 -2 66.5t-8 49.5q-11 30 -33 45t-51 15z" />
    <glyph glyph-name="afii10081" unicode="&#x43f;" horiz-adv-x="458" 
d="M320 0v423h-181v-423h-81v495h343v-495h-81z" />
    <glyph glyph-name="afii10082" unicode="&#x440;" horiz-adv-x="432" 
d="M127 448q22 28 50 40.5t63 12.5q49 0 78 -20.5t45 -55t21 -80.5t5 -96q0 -47 -5.5 -92.5t-22.5 -81.5t-48 -58t-81 -22q-62 0 -105 49h-2v-244h-81v695h81v-46q1 0 1 -0.5t1 -0.5zM214 75q31 0 49 14t28 37.5t13 54.5t3 66q0 36 -3 68t-12.5 56t-27.5 38.5t-49 14.5
q-36 0 -55 -18.5t-27 -46.5t-8.5 -61.5t-0.5 -62.5q0 -27 2.5 -55t11.5 -51.5t27 -38.5t49 -15z" />
    <glyph glyph-name="afii10083" unicode="&#x441;" horiz-adv-x="385" 
d="M301 121q17 -10 34 -18.5t34 -18.5q-20 -42 -59 -66t-93 -24q-56 0 -92 19t-57 53.5t-29 83.5t-8 108q0 111 45 177t141 66q54 0 92.5 -24.5t58.5 -66.5l-66 -41q-11 26 -33 40.5t-51 14.5q-33 0 -54 -13t-32.5 -35.5t-15.5 -53t-4 -66.5t4 -69.5t15.5 -59.5t32 -41.5
t53.5 -15.5q30 0 51.5 15.5t32.5 35.5z" />
    <glyph glyph-name="afii10085" unicode="&#x443;" horiz-adv-x="384" 
d="M206 -99q-16 -53 -49 -78t-80 -25h-26v70h24q47 0 64 71l21 73l-159 483h86l61 -198l47 -167h3l44 167l58 198h84z" />
    <glyph glyph-name="afii10087" unicode="&#x445;" horiz-adv-x="394" 
d="M295 0l-97 190l-98 -190h-91l145 254l-138 241h91l91 -181l90 181h91l-138 -242l145 -253h-91z" />
    <glyph glyph-name="afii10071" unicode="&#x451;" horiz-adv-x="424" 
d="M372 89q-20 -44 -59.5 -69.5t-89.5 -25.5t-85 14t-57.5 44.5t-33 78.5t-10.5 116q0 47 7.5 92.5t27 81.5t53.5 58t87 22q84 0 128.5 -53.5t44.5 -147.5v-77h-267q0 -33 4 -61.5t15 -49.5t31 -33t52 -12q27 0 49.5 17t36.5 40zM305 288q0 68 -23.5 102.5t-68.5 34.5
q-52 0 -71.5 -37t-21.5 -100h185zM260 600v84h78v-84h-78zM93 600v84h79v-84h-79z" />
    <glyph glyph-name="afii10102" unicode="&#x455;" horiz-adv-x="405" 
d="M93 136q16 -32 42.5 -50t66.5 -18q42 0 65.5 17.5t23.5 56.5q0 19 -7 31t-19.5 20t-29.5 13.5l-37 11.5q-36 9 -65 20.5t-50 28t-32 39t-11 54.5q0 66 43 103.5t118 37.5q67 0 104.5 -25t54.5 -70l-63 -39q-29 60 -97 60q-45 0 -62.5 -20.5t-17.5 -46.5q0 -17 9 -28
t24.5 -18.5t36 -13.5l42.5 -12q35 -8 61 -19.5t43.5 -29t26 -41.5t8.5 -58q0 -67 -45 -107t-126 -40q-64 0 -107 27t-66 78z" />
    <glyph glyph-name="afii10103" unicode="&#x456;" horiz-adv-x="197" 
d="M58 615v81h81v-81h-81zM58 0v495h81v-495h-81z" />
    <glyph glyph-name="afii10104" unicode="&#x457;" horiz-adv-x="197" 
d="M143 593v84h78v-84h-78zM-24 593v84h79v-84h-79zM58 0v495h81v-495h-81z" />
    <glyph glyph-name="afii10105" unicode="&#x458;" horiz-adv-x="210" 
d="M65 615v81h81v-81h-81zM146 -73q0 -28 -8 -52t-24.5 -42t-41 -28t-57.5 -10h-27v75q2 0 10 -0.5t9 0.5q31 1 44.5 20.5t13.5 54.5v550h81v-568z" />
    <glyph glyph-name="afii10110" unicode="&#x45e;" horiz-adv-x="384" 
d="M206 -99q-16 -53 -49 -78t-80 -25h-26v70h24q47 0 64 71l21 73l-159 483h86l61 -198l47 -167h3l44 167l58 198h84zM127 699q1 -10 6 -21t14 -20.5t21.5 -15.5t27.5 -6q17 0 30 6t22 15.5t13.5 20.5t4.5 21h67q-2 -20 -9.5 -42t-23 -40.5t-41 -31t-63.5 -12.5
q-39 0 -65 12.5t-42 31t-23.5 40.5t-7.5 42h69z" />
    <glyph glyph-name="afii10050" unicode="&#x490;" horiz-adv-x="441" 
d="M426 618h-278v-618h-83v696h284l-1 117h77z" />
    <glyph glyph-name="afii10067" unicode="&#x432;" horiz-adv-x="426" 
d="M394 148q0 -41 -13.5 -69t-37.5 -45.5t-56 -25.5t-69 -8h-166v495h170q83 0 123 -37.5t40 -98.5q0 -32 -13.5 -57.5t-45.5 -42.5h1q37 -14 52 -44t15 -67zM134 224v-149h84q45 0 70 19t25 57q0 32 -20 52.5t-69 20.5h-90zM134 424v-135h81q45 0 67 13.5t22 55.5
q0 31 -21 48.5t-67 17.5h-82z" />
    <glyph glyph-name="afii10068" unicode="&#x433;" horiz-adv-x="372" 
d="M133 424v-424h-81v495h308v-71h-227z" />
    <glyph glyph-name="afii10069" unicode="&#x434;" horiz-adv-x="493" 
d="M94 -129h-77v191l39 9q16 12 25.5 26.5t15 37.5t8.5 58.5t8 89.5l9 212h307v-424h44v-200h-77v129h-302v-129zM348 424h-152l-7 -143q-3 -38 -5 -69.5t-5.5 -57t-9 -46t-15.5 -37.5h194v353z" />
    <glyph glyph-name="afii10074" unicode="&#x438;" horiz-adv-x="497" 
d="M349 344l-77 -126l-135 -218h-77v494h83v-353h2l74 123l140 230h78v-494h-84v344h-4z" />
    <glyph glyph-name="afii10077" unicode="&#x43b;" horiz-adv-x="449" 
d="M33 -15l-14 31.5l-14 32.5q26 13 43 26t27 35.5t14 60t4 100.5v224h304v-495h-82v424h-146v-194q0 -62 -8.5 -104t-25 -70t-42.5 -44.5t-60 -26.5z" />
    <glyph glyph-name="afii10078" unicode="&#x43c;" horiz-adv-x="554" 
d="M423 0v325h-1l-19.5 -42t-20.5 -41l-39 -74.5l-38 -74.5h-52l-66 127l-51 101h-1v-321h-82v495h79l81 -157l33 -66.5t34 -65.5h1l65 132l81 157h78v-495h-82z" />
    <glyph glyph-name="afii10079" unicode="&#x43d;" horiz-adv-x="447" 
d="M313 0v218h-179v-218h-82v495h82v-210h179v210h82v-495h-82z" />
    <glyph glyph-name="afii10084" unicode="&#x442;" horiz-adv-x="350" 
d="M214 424v-424h-80v424h-129v70h340v-70h-131z" />
    <glyph glyph-name="afii10086" unicode="&#x444;" horiz-adv-x="531" 
d="M225 -9q-54 3 -94.5 22t-61.5 53q-20 32 -26 77.5t-6 100.5q0 46 3.5 85.5t17.5 70.5q20 47 63.5 73.5t103.5 28.5v204h80l1 -204q60 -2 101 -26t61 -67q15 -32 19.5 -74t4.5 -92q0 -54 -6 -98t-27 -76q-23 -36 -62.5 -55t-90.5 -23l-1 -187h-80v187zM225 425
q-32 -2 -58 -16t-37 -41q-8 -20 -10.5 -55.5t-2.5 -77.5q0 -34 2.5 -65t10.5 -49q12 -25 37 -39t57 -16zM305 66q33 2 59.5 17.5t37.5 47.5q8 19 9 46t1 58q0 42 -1.5 76.5t-9.5 54.5q-11 29 -37 43t-59 16v-359z" />
    <glyph glyph-name="afii10088" unicode="&#x446;" horiz-adv-x="466" 
d="M395 495v-420h54v-204h-77v129h-319v495h82v-420h179v420h81z" />
    <glyph glyph-name="afii10089" unicode="&#x447;" horiz-adv-x="419" 
d="M292 213h-1q-29 -17 -61 -26t-61 -9q-70 0 -104.5 39.5t-34.5 129.5v148h81v-159q0 -46 20 -64.5t58 -18.5q19 0 49 7.5t55 24.5v210h80v-495h-81v213z" />
    <glyph glyph-name="afii10090" unicode="&#x448;" horiz-adv-x="667" 
d="M613 495v-495h-559v495h81v-419h158v419h80v-419h160v419h80z" />
    <glyph glyph-name="afii10091" unicode="&#x449;" horiz-adv-x="692" 
d="M612 495v-420h54v-196h-76v121h-536v495h80v-420h158v420h81v-420h159v420h80z" />
    <glyph glyph-name="afii10092" unicode="&#x44a;" horiz-adv-x="516" 
d="M239 75h90q50 0 69 23.5t19 55.5q0 15 -4 28.5t-14.5 24t-27.5 17t-43 6.5l-89 1v-156zM156 0v424h-144v71h227v-190h91q47 0 79.5 -12t52.5 -32.5t28.5 -47.5t8.5 -58q0 -71 -38.5 -113t-128.5 -42h-176z" />
    <glyph glyph-name="afii10093" unicode="&#x44b;" horiz-adv-x="580" 
d="M442 0v495h83v-495h-83zM132 75h90q50 0 69 23.5t19 55.5q0 15 -4 28.5t-14 24t-27.5 17t-43.5 6.5l-89 1v-156zM50 0v495h83v-190h91q47 0 79 -12t52 -32.5t28.5 -47.5t8.5 -58q0 -71 -38 -113t-128 -42h-176z" />
    <glyph glyph-name="afii10094" unicode="&#x44c;" horiz-adv-x="407" 
d="M134 75h90q50 0 69 23.5t19 55.5q0 15 -4 28.5t-14 24t-27.5 17t-43.5 6.5l-89 1v-156zM52 0v495h83v-190h91q47 0 79 -12t52 -32.5t28.5 -47.5t8.5 -58q0 -71 -38 -113t-128 -42h-176z" />
    <glyph glyph-name="afii10095" unicode="&#x44d;" horiz-adv-x="385" 
d="M76 121q11 -20 34 -35.5t53 -15.5q29 0 48 12t31 33t17.5 49t7.5 59h-176v65h176q-2 30 -7 55t-17 43t-31.5 28t-49.5 10q-26 0 -50 -14.5t-35 -40.5l-66 41q20 42 62 66.5t93 24.5q48 0 83 -18t57.5 -50.5t33 -77.5t9.5 -100q-1 -56 -10 -103.5t-30.5 -82.5t-58 -55
t-91.5 -20q-54 0 -92.5 24t-58.5 66z" />
    <glyph glyph-name="afii10096" unicode="&#x44e;" horiz-adv-x="586" 
d="M542 169q-3 -85 -47.5 -130t-120.5 -45q-72 0 -115.5 38t-51.5 104q-3 34 -3 71v10h-59v-217h-84v494h84v-208h59q0 35 3 67q7 65 52.5 106t116.5 41q68 0 111.5 -36t51.5 -102q2 -18 3 -37.5t1 -38.5zM375 426q-37 0 -60.5 -21.5t-28.5 -53.5q-2 -12 -3 -24t-1 -25v-88
q0 -18 1 -36t3 -36q5 -32 28.5 -53t60.5 -21q42 0 64.5 28t22.5 71v147q0 22 -4 42.5t-13.5 36t-26.5 24.5t-43 9z" />
    <glyph glyph-name="afii10101" unicode="&#x454;" horiz-adv-x="385" 
d="M301 121q17 -10 34 -18.5t34 -18.5q-20 -42 -59 -66t-93 -24q-56 0 -92 19t-57 53.5t-29 83.5t-8 108q0 111 45 177t141 66q54 0 92.5 -24.5t58.5 -66.5l-66 -41q-11 26 -33 40.5t-51 14.5q-30 0 -49.5 -10t-31.5 -28t-17.5 -43t-6.5 -55h176v-65h-176q1 -31 7 -59
t18 -49t31 -33t48 -12q30 0 51.5 15.5t32.5 35.5z" />
    <glyph glyph-name="afii10098" unicode="&#x491;" horiz-adv-x="372" 
d="M360 424h-226v-424h-82v495h234v107h74v-178z" />
    <glyph glyph-name="afii10106" unicode="&#x459;" horiz-adv-x="644" 
d="M366 305h91q47 0 79 -12t52 -32.5t28.5 -47.5t8.5 -58q0 -70 -38 -112.5t-128 -42.5h-176v424h-107v-193q0 -62 -8.5 -104t-25.5 -70t-43 -44.5t-60 -27.5l-28 64q24 12 41 24.5t27.5 32t15.5 50t5 79.5v260h266v-190zM543 154q0 15 -4 28.5t-14 24t-27.5 17t-43.5 6.5
h-89v-154h90q50 0 69 22.5t19 55.5z" />
    <glyph glyph-name="afii10107" unicode="&#x45a;" horiz-adv-x="661" 
d="M380 75h90q50 0 69 23.5t19 55.5q0 14 -4 27t-14 22.5t-27.5 15.5t-43.5 6h-89v-150zM298 0v226h-161v-226h-82v495h82v-194h161v194h83v-194h91q47 0 79 -11.5t52 -31.5t28.5 -46.5t8.5 -56.5q0 -71 -38 -113t-128 -42h-176z" />
    <glyph glyph-name="afii10073" unicode="&#x437;" horiz-adv-x="398" 
d="M289 259q41 -20 54 -47.5t13 -65.5q0 -72 -47 -111.5t-128 -39.5q-60 0 -104 21.5t-63 71.5l66 35q10 -28 37 -41.5t64 -13.5q40 0 66.5 19.5t26.5 60.5q0 35 -21 55t-56 20h-60v68h61q37 0 54 18t17 50q0 30 -20.5 48t-58.5 18q-35 0 -61.5 -12.5t-38.5 -41.5l-63 37
q18 45 61.5 68.5t98.5 23.5q85 0 124 -37t39 -98q0 -30 -13.5 -61t-47.5 -45z" />
    <glyph glyph-name="afii10108" unicode="&#x45b;" horiz-adv-x="438" 
d="M309 0v323q0 45 -22.5 71t-67.5 26q-42 0 -67 -26t-25 -73v-321h-80v583h-47v62h47v81h81v-81h182v-62h-182v-144h3q21 29 52 45t67 16q30 0 55.5 -10t44 -29.5t29.5 -47t11 -63.5v-350h-81z" />
    <glyph glyph-name="afii10099" unicode="&#x452;" horiz-adv-x="467" 
d="M143 434q43 60 122 60q47 0 84.5 -23.5t51.5 -68.5q11 -26 14.5 -69.5t3.5 -90.5q0 -41 -5.5 -83.5t-18.5 -71.5q-18 -41 -54.5 -68t-101.5 -27q-7 0 -11 0.5l-12 1.5v71q5 -1 10 -1h10q31 0 50.5 13t31.5 36q11 21 15 52.5t4 66.5q0 51 -3 87.5t-18 59.5q-11 17 -29 27
t-47 10q-30 0 -49 -12.5t-30.5 -32.5t-16 -45t-4.5 -49v-277h-80v573h-54v64h54v89h80v-89h188v-64h-188v-139h3z" />
    <glyph glyph-name="afii10066" unicode="&#x431;" horiz-adv-x="438" 
d="M222 409q-58 0 -81 -48q-11 -22 -14.5 -56.5t-3.5 -78.5q0 -33 1.5 -58t9.5 -45q11 -27 31.5 -41.5t55.5 -14.5q31 0 54 17t34 50q5 14 6.5 40.5t1.5 61.5q0 15 -0.5 31.5t-2 32.5t-3.5 28.5t-4 20.5q-11 28 -30 44t-55 16zM236 482q52 0 84 -20t51 -56q16 -30 21 -78.5
t5 -99.5q0 -39 -3 -67t-13 -57q-10 -32 -28 -53t-40 -34t-47.5 -18.5t-50.5 -5.5q-57 0 -93.5 24t-54.5 61q-13 27 -19.5 72.5t-5.5 117.5q0 16 1 36.5t1.5 39t1.5 32t2 17.5q4 60 14.5 104t28.5 76.5t45 55t64 38.5q33 15 67.5 27.5l85.5 32.5l27 -59l-43 -20t-33 -14
l-29 -11.5t-31 -13.5q-61 -29 -88.5 -70.5t-31.5 -107.5q2 0 2 -1q23 28 53.5 40t56.5 12z" />
    <glyph glyph-name="afii10193" unicode="&#x45f;" horiz-adv-x="448" 
d="M395 495v-495h-129v-135h-84v135h-129v495h82v-419h180v419h80z" />
    <glyph glyph-name="zero.text" unicode="&#xe000;" horiz-adv-x="446" 
d="M388 159q0 -40 -14 -71t-37 -52t-53.5 -31.5t-63.5 -10.5t-63 10.5t-53.5 31.5t-37 52t-13.5 71v377q0 40 13.5 71t37 52t53.5 32t63 11t63.5 -11t53.5 -32t37 -52t14 -71v-377zM307 536q0 42 -24 65t-63 23t-63 -23t-24 -65v-377q0 -42 24 -64.5t63 -22.5t63 22.5
t24 64.5v377z" />
    <glyph glyph-name="one.text" unicode="&#xe001;" horiz-adv-x="294" 
d="M210 0h-81v611l-96 -73l1 86l94 72h82v-696z" />
    <glyph glyph-name="two.text" unicode="&#xe002;" horiz-adv-x="462" 
d="M223 625q-40 -1 -62.5 -30.5t-25.5 -83.5l-82 13q6 81 51 129t121 48q79 0 124 -43t45 -122q0 -36 -12 -74.5t-35 -73.5l-199 -311h238v-77h-334v75l225 352q17 26 23.5 56t6.5 52q0 17 -4 33t-14 29t-26 20.5t-40 7.5z" />
    <glyph glyph-name="three.text" unicode="&#xe003;" horiz-adv-x="441" 
d="M110 162q6 -41 24 -66.5t62 -25.5q50 0 71.5 36.5t21.5 90.5q0 130 -95 130h-41v70h37q50 0 72.5 28t22.5 82q0 22 -4 43.5t-14 38t-27 26.5t-42 10q-23 0 -38 -7.5t-24.5 -20.5t-14 -30t-7.5 -36l-80 13q4 33 16 62t32.5 50.5t48.5 33.5t66 12q51 0 83.5 -15.5
t51.5 -41.5t26.5 -61t7.5 -75q0 -20 -3 -41.5t-11.5 -41.5t-23.5 -36.5t-39 -25.5q27 -6 43 -20.5t24.5 -35.5t11 -47.5t2.5 -56.5q0 -45 -9 -83.5t-30 -66.5t-55 -44t-84 -16q-31 0 -59 9.5t-50 28.5t-36.5 47.5t-17.5 66.5z" />
    <glyph glyph-name="four.text" unicode="&#xe004;" horiz-adv-x="451" 
d="M360 106v-106h-80v106h-254v78l193 512h84l-194 -514h171v199h80v-199h53v-76h-53z" />
    <glyph glyph-name="five.text" unicode="&#xe005;" horiz-adv-x="446" 
d="M244 457q48 0 76.5 -18t43.5 -47.5t19 -67.5t4 -78q0 -61 -7.5 -108t-26.5 -79t-53 -48.5t-86 -16.5q-150 0 -170 155l81 13q5 -46 25 -70.5t65 -24.5q33 0 51.5 16t27.5 41t10.5 56t1.5 61q0 26 -2 51.5t-10.5 46t-25.5 33.5t-47 13q-28 0 -48 -13.5t-33 -36.5h-75v361
h316v-75h-243l3 -202q24 23 50 30.5t53 7.5z" />
    <glyph glyph-name="six.text" unicode="&#xe006;" horiz-adv-x="451" 
d="M216 332q-30 0 -48 -13t-27 -33.5t-12 -44.5t-3 -46q0 -28 3.5 -51t13.5 -39.5t27 -26t43 -9.5q43 0 66 30.5t23 99.5q0 25 -3.5 49t-12.5 43t-26 30t-44 11zM177 391l3 -1q11 7 27.5 10.5t31.5 3.5q40 0 67.5 -17t45 -44.5t25 -62t7.5 -68.5q0 -48 -9.5 -88t-30 -69
t-53.5 -45t-80 -16q-87 0 -125.5 52t-38.5 147q0 58 10 102.5t30 88.5l38 84l43 94.5l38 83t23 50.5h86z" />
    <glyph glyph-name="seven.text" unicode="&#xe007;" horiz-adv-x="386" 
d="M144 0h-84l209 620h-178v-94h-75v170h338v-75z" />
    <glyph glyph-name="eight.text" unicode="&#xe008;" horiz-adv-x="435" 
d="M395 194q0 -56 -15 -94t-40 -61.5t-56 -34t-64 -10.5q-35 0 -66.5 10.5t-55.5 34t-38.5 61.5t-14.5 94q0 131 77 168q-22 13 -36 28t-21.5 33t-10 40.5t-2.5 49.5q0 49 13.5 84.5t37 59t54 34.5t63.5 11q35 0 65.5 -11t53.5 -34t36 -59t13 -85q0 -55 -15.5 -90.5
t-50.5 -60.5q43 -20 58 -62.5t15 -105.5zM220 625q-46 0 -66.5 -29.5t-20.5 -87.5q0 -113 87 -113q43 0 65 28t22 90q0 54 -20.5 83t-66.5 29zM220 330q-42 0 -68 -29.5t-26 -100.5q0 -37 7.5 -62t20 -40.5t29.5 -22t37 -6.5q49 0 70.5 32t21.5 101t-23.5 98.5t-68.5 29.5z
" />
    <glyph glyph-name="nine.text" unicode="&#xe009;" horiz-adv-x="424" 
d="M212 627q-43 0 -66.5 -29.5t-23.5 -98.5q0 -26 3.5 -50.5t14 -43.5t28.5 -30t48 -11q25 0 41 11t25 29t12.5 42.5t3.5 51.5q0 28 -3.5 51.5t-13 40.5t-26.5 27t-43 10zM247 305l-3 1q-11 -7 -27 -10t-31 -3q-40 0 -68 17t-45 44.5t-25 61.5t-8 68q0 48 10 88t31 69
t54.5 45t80.5 16q87 0 125 -52t38 -147q1 -58 -10.5 -102.5t-31.5 -88.5q-3 -6 -14.5 -31l-27 -59l-32.5 -72l-32 -70.5l-25 -55t-11 -24.5h-86z" />
    <glyph glyph-name="numbersign.text" unicode="&#xe00a;" horiz-adv-x="473" 
d="M28 275h86l24 151h-77v55h86l35 216h57l-35 -216h100l35 216h57l-36 -216h81v-55h-90l-24 -151h81v-55h-90l-35 -220h-57l35 220h-100l-35 -220h-57l36 220h-77v55zM170 275h100l25 151h-100z" />
    <glyph glyph-name="dollar.text" unicode="&#xe00b;" horiz-adv-x="455" 
d="M208 -5q-64 4 -108 37.5t-65 80.5l66 41q14 -31 40 -54.5t67 -28.5v247q-82 31 -121.5 73.5t-39.5 115.5q0 78 42 129.5t119 58.5v81h44v-81q63 -5 102.5 -36t55.5 -68l-67 -44q-13 29 -35.5 47.5t-55.5 23.5v-229q47 -11 78.5 -29t50 -43t26.5 -57t8 -71
q0 -85 -41 -136.5t-122 -57.5v-100h-44v100zM333 188q0 25 -5 43.5t-15.5 31.5t-25.5 22.5t-35 17.5v-231q46 7 63.5 38.5t17.5 77.5zM130 506q0 -38 20 -61t58 -40v214q-40 -7 -59 -38t-19 -75z" />
    <glyph glyph-name="euro.text" unicode="&#xe00c;" horiz-adv-x="483" 
d="M164 378v-59h177v-52h-177v-77q0 -24 7 -45.5t20.5 -38t34 -26.5t47.5 -10q45 0 70.5 24t39.5 63l75 -23q-17 -66 -66.5 -103t-118.5 -37q-45 0 -80.5 14.5t-60 41.5t-38 65t-13.5 84v68h-39v52h39v59h-39v51h39v69q0 44 13 81.5t37.5 64.5t60.5 42t81 15q68 0 118 -36.5
t67 -102.5l-80 -23q-11 35 -36 60t-69 25q-29 0 -49.5 -10t-34 -27.5t-19.5 -40t-6 -46.5v-71h177v-51h-177z" />
    <glyph glyph-name="florin.text" unicode="&#xe00d;" horiz-adv-x="409" 
d="M72 419h88l11 81q4 34 14 69.5t28.5 64t48.5 46.5t74 18q20 0 38.5 -3.5t32.5 -9.5l-9 -36.5t-8 -36.5q-13 5 -29 7.5t-29 2.5q-20 0 -34.5 -9.5t-24 -25t-15 -37t-8.5 -45.5l-12 -86h94v-69h-103l-31 -236q-6 -48 -16 -85.5t-27.5 -64t-43 -40.5t-62.5 -14
q-19 0 -42.5 5t-42.5 13q6 20 11 32.5l12 31.5q15 -6 28.5 -8.5t24.5 -2.5q38 0 54.5 34.5t24.5 97.5l31 237h-78v69z" />
    <glyph glyph-name="sterling.text" unicode="&#xe00e;" horiz-adv-x="451" 
d="M50 364h61q-5 25 -12 46.5l-13 41t-10.5 39.5t-4.5 43q0 35 11.5 65.5t33 53t52.5 35.5t69 13q63 0 113.5 -30t75.5 -101l-76 -29q-22 50 -49 66.5t-61 16.5q-31 0 -56 -23.5t-25 -68.5q0 -19 4.5 -38t10.5 -39.5l12.5 -43t10.5 -47.5h127v-66h-121q0 -66 -13.5 -118
t-42.5 -105h262v-75h-360v67q29 46 48.5 92.5t23.5 106.5l2 32h-73v66z" />
    <glyph glyph-name="cent.text" unicode="&#xe00f;" horiz-adv-x="411" 
d="M183 -117v114q-44 6 -73 27t-46 55t-24 79.5t-7 99.5q0 100 36 163.5t114 76.5v103h45v-100q51 -2 87 -27t55 -64l-66 -41q-11 23 -30.5 38t-45.5 17v-354q26 3 45.5 17.5t29.5 33.5q17 -10 34 -18.5t34 -18.5q-19 -40 -56 -64t-87 -26v-111h-45zM114 256q0 -30 3 -59
t10.5 -53t21 -42t34.5 -26v342q-21 -7 -34.5 -22t-21 -36t-10.5 -47.5t-3 -56.5z" />
    <glyph glyph-name="yen.text" unicode="&#xe010;" horiz-adv-x="442" 
d="M282 347h111v-51h-130l-5 -15v-64h135v-52h-135v-165h-76v165h-134v52h134v63l-5 16h-129v51h109l-137 349h82l57.5 -157.5l57.5 -157.5h4l57 157.5l56 157.5h83z" />
    <glyph glyph-name="zero.taboldstyle" unicode="&#xe024;" horiz-adv-x="440" 
d="M387 159q0 -40 -14 -71t-37 -52t-53.5 -31.5t-63.5 -10.5t-63 10.5t-53.5 31.5t-37 52t-13.5 71v177q0 40 13.5 71t37 52t53.5 32t63 11t63.5 -11t53.5 -32t37 -52t14 -71v-177zM306 336q0 42 -24 65t-63 23t-63 -23t-24 -65v-177q0 -42 24 -64.5t63 -22.5t63 22.5
t24 64.5v177z" />
    <glyph glyph-name="one.taboldstyle" unicode="&#xe025;" horiz-adv-x="440" 
d="M67 69h120v341l-96 -73l1 86l94 72h82v-426h124v-69h-325v69z" />
    <glyph glyph-name="two.taboldstyle" unicode="&#xe026;" horiz-adv-x="440" 
d="M50 353q11 69 55 109t116 40q76 0 119 -39t43 -110q0 -31 -20 -69.5t-58 -72.5l-145 -137h230v-74h-341v72l207 197q20 19 30 42t10 40q0 30 -17.5 52.5t-59.5 22.5q-36 0 -59 -23.5t-29 -64.5z" />
    <glyph glyph-name="three.taboldstyle" unicode="&#xe027;" horiz-adv-x="440" 
d="M117 -4q6 -38 23 -61.5t59 -23.5q48 0 68 33t20 83q0 59 -21.5 89t-68.5 30h-42v70h38q48 0 69 25.5t21 75.5q0 21 -4 40.5t-14 34.5t-25.5 24.5t-39.5 9.5q-22 0 -36 -7.5t-22.5 -19.5t-13 -28t-7.5 -34l-81 12q4 32 16 60t31.5 48.5t47.5 32t64 11.5q49 0 81 -14.5
t51 -39t26 -58t7 -71.5q0 -17 -3.5 -36.5t-12 -38t-21.5 -34.5t-32 -26q24 -7 38.5 -21t22 -33.5t10 -43.5t2.5 -51q0 -42 -9 -78.5t-29 -63.5t-53 -42t-82 -15q-30 0 -57.5 9t-49 27.5t-35.5 46t-17 63.5z" />
    <glyph glyph-name="four.taboldstyle" unicode="&#xe028;" horiz-adv-x="440" 
d="M352 1v-159h-80v159h-238v76l183 419h87l-184 -420h152v186h80v-186h59v-75h-59z" />
    <glyph glyph-name="five.taboldstyle" unicode="&#xe029;" horiz-adv-x="440" 
d="M248 275q47 0 74.5 -17t42 -45.5t18.5 -64.5t4 -73q0 -57 -7.5 -101.5t-27 -74.5t-52.5 -46t-84 -16q-74 0 -113.5 37t-49.5 112l81 12q5 -43 24 -65.5t62 -22.5q31 0 48.5 14.5t26 37.5t10 51.5t1.5 57.5q0 23 -2 46.5t-10.5 42.5t-24.5 31t-44 12q-26 0 -45.5 -13
t-31.5 -34h-75v341h309v-73h-232v-183q23 20 48 27t50 7z" />
    <glyph glyph-name="six.taboldstyle" unicode="&#xe02a;" horiz-adv-x="440" 
d="M190 372q23 10 51 10q44 0 72 -15.5t44 -40.5t22 -56.5t6 -63.5q0 -20 -1 -40t-3 -39q-5 -34 -20 -59t-37.5 -41.5t-50 -24.5t-56.5 -8q-65 0 -107.5 33.5t-51.5 98.5q-3 40 -3 84q0 37 11 75t29 77l137 292h87zM221 310q-28 0 -45 -10.5t-26 -28t-11.5 -39.5t-2.5 -45
q0 -26 3.5 -47.5t13 -37.5t25.5 -24.5t40 -8.5q42 0 63.5 25t21.5 87q0 24 -2 47t-10.5 41t-25 29.5t-44.5 11.5z" />
    <glyph glyph-name="seven.taboldstyle" unicode="&#xe02b;" horiz-adv-x="440" 
d="M175 -158h-86l202 580h-167v-89h-77v163h330v-72z" />
    <glyph glyph-name="eight.taboldstyle" unicode="&#xe02c;" horiz-adv-x="440" 
d="M390 183q0 -53 -14.5 -89t-38.5 -58t-55 -32t-63 -10q-34 0 -64.5 10t-54 32t-37.5 58t-14 89q0 62 16.5 101t54.5 56q-42 25 -53.5 58t-11.5 83q0 46 13.5 80t36 56t52 32.5t62.5 10.5q34 0 64 -10.5t52 -32t35 -55.5t13 -81q0 -95 -62 -141q42 -19 55.5 -58.5
t13.5 -98.5zM219 308q-40 0 -64 -27t-24 -92q0 -68 25.5 -94t62.5 -26q47 0 67.5 28.5t20.5 93.5q0 63 -22.5 90t-65.5 27zM219 585q-44 0 -63 -27t-19 -81q0 -104 82 -104q42 0 62.5 25.5t20.5 82.5q0 51 -19 77.5t-64 26.5z" />
    <glyph glyph-name="nine.taboldstyle" unicode="&#xe02d;" horiz-adv-x="440" 
d="M52 266v51t3 49q4 34 19 59.5t37.5 42.5t50 25t57.5 8t57.5 -8.5t49.5 -24.5t36.5 -39t17.5 -52q2 -14 2.5 -31.5t0.5 -33.5q0 -22 -1.5 -41t-5 -38.5t-11 -40.5t-19.5 -47l-142 -304h-87l136 289q-11 -6 -28 -10.5t-32 -4.5q-35 0 -61 11.5t-44 31.5t-27 48t-9 60z
M132 269q0 -42 24.5 -64t59.5 -22q33 0 52.5 20t27.5 48q2 11 3 23t1 24q0 17 -0.5 35t-3.5 34q-5 28 -25 44t-57 16q-32 0 -55.5 -21t-23.5 -52q-2 -20 -2.5 -42.5t-0.5 -42.5z" />
    <glyph glyph-name="numbersign.taboldstyle" unicode="&#xe02e;" horiz-adv-x="440" 
d="M33 235h77l22 126h-69v49h77l32 182h52l-31 -182h87l32 182h53l-32 -182h73v-49h-81l-22 -126h73v-49h-81l-32 -186h-53l32 186h-87l-32 -186h-53l32 186h-69v49zM163 235h87l22 126h-87z" />
    <glyph glyph-name="dollar.taboldstyle" unicode="&#xe02f;" horiz-adv-x="440" 
d="M202 -4q-56 4 -95.5 33t-60.5 70l65 38q12 -24 34.5 -44.5t56.5 -26.5v201q-68 27 -106 65.5t-38 98.5q0 32 10 60t29 49t45.5 34.5t59.5 17.5v68h46v-68q27 -2 50 -11t41 -21.5t31 -28.5t20 -32l-65 -40q-13 25 -31.5 41.5t-45.5 20.5v-187q77 -20 111.5 -63t34.5 -108
q0 -69 -37 -114t-109 -53v-84h-46v84zM316 162q0 40 -18 59.5t-50 33.5v-188q36 7 52 32.5t16 62.5zM136 430q0 -27 19 -47t47 -34v173q-35 -7 -50.5 -33t-15.5 -59z" />
    <glyph glyph-name="euro.taboldstyle" unicode="&#xe030;" horiz-adv-x="440" 
d="M144 318v-44h160v-49h-160v-61q0 -39 24 -68.5t72 -29.5q38 0 60 19.5t36 53.5l72 -20q-15 -59 -61 -91.5t-107 -32.5q-83 0 -129 48.5t-46 127.5v54h-34v49h34v44h-34v50h34v55q0 38 12 70t34.5 55t55 36t73.5 13q61 0 107.5 -32t60.5 -90l-78 -21q-10 30 -31 50.5
t-59 20.5q-26 0 -44 -8.5t-29.5 -22t-17 -32t-5.5 -37.5v-57h160v-50h-160z" />
    <glyph glyph-name="florin.taboldstyle" unicode="&#xe031;" horiz-adv-x="440" 
d="M110 376h85l11 76q4 33 13.5 66t27.5 60t47 44t72 17q40 0 69 -13l-17 -71q-12 5 -27 7t-27 2q-39 0 -56.5 -31t-23.5 -76l-11 -81h91v-65h-100l-30 -221q-6 -45 -16 -80.5t-27 -60.5t-42.5 -38t-61.5 -13q-18 0 -41 4.5t-41 12.5l24 63q15 -6 28 -8t24 -2q36 0 51 31
t23 90l30 222h-75v65z" />
    <glyph glyph-name="sterling.taboldstyle" unicode="&#xe032;" horiz-adv-x="440" 
d="M49 312h55q-9 38 -22.5 70.5t-13.5 70.5q0 30 12 56.5t32.5 46t49 30.5t61.5 11q55 0 98 -23t71 -85l-73 -34q-19 43 -43 56t-53 13q-12 0 -24.5 -4.5t-23 -14t-17 -23t-6.5 -31.5q0 -28 12 -62t22 -77h114v-61h-108q-1 -102 -47 -181h231v-70h-328v62q28 43 47.5 88.5
t19.5 100.5h-66v61z" />
    <glyph glyph-name="cent.taboldstyle" unicode="&#xe033;" horiz-adv-x="440" 
d="M202 -50v95q-40 6 -66.5 24.5t-42 47.5t-22 67.5t-6.5 83.5q0 85 33.5 140.5t103.5 66.5v86h46v-85q44 -4 76 -25.5t49 -55.5l-64 -38q-10 20 -25.5 32.5t-35.5 14.5v-289q20 3 36 16.5t24 27.5l66 -36q-17 -34 -49 -54.5t-77 -24.5v-94h-46zM143 267q0 -25 2.5 -48.5
t9.5 -43t18 -34.5t29 -22v281q-36 -12 -47.5 -48.5t-11.5 -84.5z" />
    <glyph glyph-name="yen.taboldstyle" unicode="&#xe034;" horiz-adv-x="440" 
d="M401 593l-120 -295h98v-48h-117l-4 -10v-52h121v-49h-121v-139h-74v139h-120v49h120v51l-4 11h-116v48h96l-121 295h80l101 -265l100 265h81z" />
    <glyph glyph-name="zero.textoldstyle" unicode="&#xe048;" horiz-adv-x="440" 
d="M387 159q0 -40 -14 -71t-37 -52t-53.5 -31.5t-63.5 -10.5t-63 10.5t-53.5 31.5t-37 52t-13.5 71v177q0 40 13.5 71t37 52t53.5 32t63 11t63.5 -11t53.5 -32t37 -52t14 -71v-177zM306 336q0 42 -24 65t-63 23t-63 -23t-24 -65v-177q0 -42 24 -64.5t63 -22.5t63 22.5
t24 64.5v177z" />
    <glyph glyph-name="one.textoldstyle" unicode="&#xe049;" horiz-adv-x="394" 
d="M47 69h120v341l-96 -73l1 86l94 72h82v-426h124v-69h-325v69z" />
    <glyph glyph-name="two.textoldstyle" unicode="&#xe04a;" horiz-adv-x="424" 
d="M35 353q11 69 55 109t116 40q76 0 119 -39t43 -110q0 -31 -20 -69.5t-58 -72.5l-145 -137h230v-74h-341v72l207 197q20 19 30 42t10 40q0 30 -17.5 52.5t-59.5 22.5q-36 0 -59 -23.5t-29 -64.5z" />
    <glyph glyph-name="three.textoldstyle" unicode="&#xe04b;" horiz-adv-x="424" 
d="M101 -4q6 -38 23 -61.5t59 -23.5q48 0 68 33t20 83q0 59 -21.5 89t-68.5 30h-42v70h38q48 0 69 25.5t21 75.5q0 21 -4 40.5t-14 34.5t-25.5 24.5t-39.5 9.5q-22 0 -36 -7.5t-22.5 -19.5t-13 -28t-7.5 -34l-81 12q4 32 16 60t31.5 48.5t47.5 32t64 11.5q49 0 81 -14.5
t51 -39t26 -58t7 -71.5q0 -17 -3.5 -36.5t-12 -38t-21.5 -34.5t-32 -26q24 -7 38.5 -21t22 -33.5t10 -43.5t2.5 -51q0 -42 -9 -78.5t-29 -63.5t-53 -42t-82 -15q-30 0 -57.5 9t-49 27.5t-35.5 46t-17 63.5z" />
    <glyph glyph-name="four.textoldstyle" unicode="&#xe04c;" horiz-adv-x="428" 
d="M342 1v-159h-80v159h-238v76l183 419h87l-184 -420h152v186h80v-186h59v-75h-59z" />
    <glyph glyph-name="five.textoldstyle" unicode="&#xe04d;" horiz-adv-x="420" 
d="M238 275q47 0 74.5 -17t42 -45.5t18.5 -64.5t4 -73q0 -57 -7.5 -101.5t-27 -74.5t-52.5 -46t-84 -16q-74 0 -113.5 37t-49.5 112l81 12q5 -43 24 -65.5t62 -22.5q31 0 48.5 14.5t26 37.5t10 51.5t1.5 57.5q0 23 -2 46.5t-10.5 42.5t-24.5 31t-44 12q-26 0 -45.5 -13
t-31.5 -34h-75v341h309v-73h-232v-183q23 20 48 27t50 7z" />
    <glyph glyph-name="six.textoldstyle" unicode="&#xe04e;" horiz-adv-x="440" 
d="M193 372q23 10 51 10q44 0 72 -15.5t44 -40.5t22 -56.5t6 -63.5q0 -20 -1 -40t-3 -39q-5 -34 -20 -59t-37.5 -41.5t-50 -24.5t-56.5 -8q-65 0 -107.5 33.5t-51.5 98.5q-3 40 -3 84q0 37 11 75t29 77l137 292h87zM224 310q-28 0 -45 -10.5t-26 -28t-11.5 -39.5t-2.5 -45
q0 -26 3.5 -47.5t13 -37.5t25.5 -24.5t40 -8.5q42 0 63.5 25t21.5 87q0 24 -2 47t-10.5 41t-25 29.5t-44.5 11.5z" />
    <glyph glyph-name="seven.textoldstyle" unicode="&#xe04f;" horiz-adv-x="386" 
d="M155 -158h-86l202 580h-167v-89h-77v163h330v-72z" />
    <glyph glyph-name="eight.textoldstyle" unicode="&#xe050;" horiz-adv-x="440" 
d="M390 183q0 -53 -14.5 -89t-38.5 -58t-55 -32t-63 -10q-34 0 -64.5 10t-54 32t-37.5 58t-14 89q0 62 16.5 101t54.5 56q-42 25 -53.5 58t-11.5 83q0 46 13.5 80t36 56t52 32.5t62.5 10.5q34 0 64 -10.5t52 -32t35 -55.5t13 -81q0 -95 -62 -141q42 -19 55.5 -58.5
t13.5 -98.5zM219 308q-40 0 -64 -27t-24 -92q0 -68 25.5 -94t62.5 -26q47 0 67.5 28.5t20.5 93.5q0 63 -22.5 90t-65.5 27zM219 585q-44 0 -63 -27t-19 -81q0 -104 82 -104q42 0 62.5 25.5t20.5 82.5q0 51 -19 77.5t-64 26.5z" />
    <glyph glyph-name="nine.textoldstyle" unicode="&#xe051;" horiz-adv-x="428" 
d="M42 266v51t3 49q4 34 19 59.5t37.5 42.5t50 25t57.5 8t57.5 -8.5t49.5 -24.5t36.5 -39t17.5 -52q2 -14 2.5 -31.5t0.5 -33.5q0 -22 -1.5 -41t-5 -38.5t-11 -40.5t-19.5 -47l-142 -304h-87l136 289q-11 -6 -28 -10.5t-32 -4.5q-35 0 -61 11.5t-44 31.5t-27 48t-9 60z
M122 269q0 -42 24.5 -64t59.5 -22q33 0 52.5 20t27.5 48q2 11 3 23t1 24q0 17 -0.5 35t-3.5 34q-5 28 -25 44t-57 16q-32 0 -55.5 -21t-23.5 -52q-2 -20 -2.5 -42.5t-0.5 -42.5z" />
    <glyph glyph-name="numbersign.textoldstyle" unicode="&#xe052;" horiz-adv-x="440" 
d="M33 235h77l22 126h-69v49h77l32 182h52l-31 -182h87l32 182h53l-32 -182h73v-49h-81l-22 -126h73v-49h-81l-32 -186h-53l32 186h-87l-32 -186h-53l32 186h-69v49zM163 235h87l22 126h-87z" />
    <glyph glyph-name="dollar.textoldstyle" unicode="&#xe053;" horiz-adv-x="440" 
d="M202 -4q-56 4 -95.5 33t-60.5 70l65 38q12 -24 34.5 -44.5t56.5 -26.5v201q-68 27 -106 65.5t-38 98.5q0 32 10 60t29 49t45.5 34.5t59.5 17.5v68h46v-68q27 -2 50 -11t41 -21.5t31 -28.5t20 -32l-65 -40q-13 25 -31.5 41.5t-45.5 20.5v-187q77 -20 111.5 -63t34.5 -108
q0 -69 -37 -114t-109 -53v-84h-46v84zM316 162q0 40 -18 59.5t-50 33.5v-188q36 7 52 32.5t16 62.5zM136 430q0 -27 19 -47t47 -34v173q-35 -7 -50.5 -33t-15.5 -59z" />
    <glyph glyph-name="euro.textoldstyle" unicode="&#xe054;" horiz-adv-x="440" 
d="M144 318v-44h160v-49h-160v-61q0 -39 24 -68.5t72 -29.5q38 0 60 19.5t36 53.5l72 -20q-15 -59 -61 -91.5t-107 -32.5q-83 0 -129 48.5t-46 127.5v54h-34v49h34v44h-34v50h34v55q0 38 12 70t34.5 55t55 36t73.5 13q61 0 107.5 -32t60.5 -90l-78 -21q-10 30 -31 50.5
t-59 20.5q-26 0 -44 -8.5t-29.5 -22t-17 -32t-5.5 -37.5v-57h160v-50h-160z" />
    <glyph glyph-name="florin.textoldstyle" unicode="&#xe055;" horiz-adv-x="386" 
d="M80 376h85l11 76q4 33 13.5 66t27.5 60t47 44t72 17q40 0 69 -13l-17 -71q-12 5 -27 7t-27 2q-39 0 -56.5 -31t-23.5 -76l-11 -81h91v-65h-100l-30 -221q-6 -45 -16 -80.5t-27 -60.5t-42.5 -38t-61.5 -13q-18 0 -41 4.5t-41 12.5l24 63q15 -6 28 -8t24 -2q36 0 51 31
t23 90l30 222h-75v65z" />
    <glyph glyph-name="sterling.textoldstyle" unicode="&#xe056;" horiz-adv-x="411" 
d="M49 312h55q-9 38 -22.5 70.5t-13.5 70.5q0 30 12 56.5t32.5 46t49 30.5t61.5 11q55 0 98 -23t71 -85l-73 -34q-19 43 -43 56t-53 13q-12 0 -24.5 -4.5t-23 -14t-17 -23t-6.5 -31.5q0 -28 12 -62t22 -77h114v-61h-108q-1 -102 -47 -181h231v-70h-328v62q28 43 47.5 88.5
t19.5 100.5h-66v61z" />
    <glyph glyph-name="cent.textoldstyle" unicode="&#xe057;" horiz-adv-x="407" 
d="M192 -50v95q-40 6 -66.5 24.5t-42 47.5t-22 67.5t-6.5 83.5q0 85 33.5 140.5t103.5 66.5v86h46v-85q44 -4 76 -25.5t49 -55.5l-64 -38q-10 20 -25.5 32.5t-35.5 14.5v-289q20 3 36 16.5t24 27.5l66 -36q-17 -34 -49 -54.5t-77 -24.5v-94h-46zM133 267q0 -25 2.5 -48.5
t9.5 -43t18 -34.5t29 -22v281q-36 -12 -47.5 -48.5t-11.5 -84.5z" />
    <glyph glyph-name="yen.textoldstyle" unicode="&#xe058;" horiz-adv-x="411" 
d="M387 593l-120 -295h98v-48h-117l-4 -10v-52h121v-49h-121v-139h-74v139h-120v49h120v51l-4 11h-116v48h96l-121 295h80l101 -265l100 265h81z" />
    <glyph glyph-name="percent.text" unicode="&#xe059;" horiz-adv-x="617" 
d="M567 82q0 -42 -29.5 -63.5t-69.5 -21.5q-39 0 -69 21.5t-30 63.5v178q0 42 30 64t69 22q40 0 69.5 -22t29.5 -64v-178zM248 331q0 -42 -30 -64t-69 -22q-40 0 -69.5 22t-29.5 64v178q0 41 29.5 63t69.5 22q39 0 69 -22t30 -63v-178zM168 -14h-53l333 620h53zM511 260
q0 17 -12 26.5t-31 9.5q-18 0 -30 -9.5t-12 -26.5v-177q0 -18 12 -27.5t30 -9.5q19 0 31 9.5t12 27.5v177zM191 509q0 17 -12 26t-30 9q-19 0 -31 -9t-12 -26v-178q0 -18 12 -27.5t31 -9.5q18 0 30 9.5t12 27.5v178z" />
    <glyph glyph-name="perthousand.text" unicode="&#xe05a;" horiz-adv-x="849" 
d="M567 82q0 -42 -29.5 -63.5t-69.5 -21.5q-39 0 -69 21.5t-30 63.5v178q0 42 30 64t69 22q40 0 69.5 -22t29.5 -64v-178zM248 331q0 -42 -30 -64t-69 -22q-40 0 -69.5 22t-29.5 64v178q0 41 29.5 63t69.5 22q39 0 69 -22t30 -63v-178zM168 -14h-53l333 620h53zM511 260
q0 17 -12 26.5t-31 9.5q-18 0 -30 -9.5t-12 -26.5v-177q0 -18 12 -27.5t30 -9.5q19 0 31 9.5t12 27.5v177zM191 509q0 17 -12 26t-30 9q-19 0 -31 -9t-12 -26v-178q0 -18 12 -27.5t31 -9.5q18 0 30 9.5t12 27.5v178zM800 82q0 -42 -29.5 -63.5t-69.5 -21.5q-39 0 -69 21.5
t-30 63.5v178q0 42 30 64t69 22q40 0 69.5 -22t29.5 -64v-178zM744 260q0 17 -12 26.5t-31 9.5q-18 0 -30 -9.5t-12 -26.5v-177q0 -18 12 -27.5t30 -9.5q19 0 31 9.5t12 27.5v177z" />
    <glyph glyph-name="parenleft.numerator" unicode="&#xe2da;" horiz-adv-x="163" 
d="M130 209q-43 49 -75 113.5t-32 139.5q0 76 31.5 139t74.5 111l37 -18q-36 -51 -57.5 -111t-21.5 -118q0 -63 21.5 -123.5t56.5 -108.5z" />
    <glyph glyph-name="parenright.numerator" unicode="&#xe2db;" horiz-adv-x="163" 
d="M10 233q35 48 57 108.5t22 123.5q0 57 -21 117.5t-58 111.5l36 18q44 -48 75.5 -111t31.5 -139q0 -37 -8.5 -72t-23.5 -67t-34.5 -60.5t-41.5 -53.5z" />
    <glyph glyph-name="comma.numerator" unicode="&#xe2dc;" horiz-adv-x="145" 
d="M72 213h-43l18 66h-14v72h73v-66z" />
    <glyph glyph-name="period.numerator" unicode="&#xe2dd;" horiz-adv-x="142" 
d="M34 279v70h73v-70h-73z" />
    <glyph glyph-name="zero.denominator" unicode="&#xe2f4;" horiz-adv-x="281" 
d="M254 99q0 -25 -9 -44t-25 -32t-36.5 -20t-42.5 -7q-23 0 -43 7t-36 20t-25 32t-9 44v218q0 24 9 43.5t25 32.5t36 20t43 7q22 0 42.5 -7t36.5 -20t25 -32.5t9 -43.5v-218zM191 317q0 21 -13.5 33t-36.5 12t-36.5 -12t-13.5 -33v-218q0 -23 13.5 -34.5t36.5 -11.5
t36.5 11.5t13.5 34.5v218z" />
    <glyph glyph-name="one.denominator" unicode="&#xe2f5;" horiz-adv-x="241" 
d="M173 0h-63v350l-62 -43v65l64 45h61v-417z" />
    <glyph glyph-name="two.denominator" unicode="&#xe2f6;" horiz-adv-x="279" 
d="M26 0v52l145 203q20 29 20 61q0 17 -11 31.5t-37 14.5q-23 0 -37 -17.5t-16 -49.5l-64 9q4 53 34.5 84t83.5 31t83 -26.5t30 -75.5q0 -22 -7.5 -45.5t-23.5 -45.5l-121 -167h148v-59h-227z" />
    <glyph glyph-name="three.denominator" unicode="&#xe2f7;" horiz-adv-x="281" 
d="M141 419q31 0 52.5 -9t34.5 -24t19 -35t6 -42q0 -26 -7 -50t-34 -41q26 -15 34.5 -38t8.5 -58q0 -57 -28.5 -91.5t-88.5 -34.5q-51 0 -80 25.5t-33 77.5l64 8q3 -56 50 -56q32 0 42.5 23.5t10.5 51.5t-12.5 45.5t-44.5 17.5h-32v53h30q33 0 44.5 18t11.5 45t-11.5 42
t-37.5 15q-20 0 -34 -15t-18 -41l-64 9q5 45 36 74.5t81 29.5z" />
    <glyph glyph-name="four.denominator" unicode="&#xe2f8;" horiz-adv-x="285" 
d="M238 62v-62h-63v62h-162v53l124 302h67l-123 -299h94v116h63v-116h35v-56h-35z" />
    <glyph glyph-name="five.denominator" unicode="&#xe2f9;" horiz-adv-x="277" 
d="M152 279q49 0 73.5 -30.5t24.5 -102.5q0 -32 -5.5 -59t-18.5 -47.5t-35.5 -32t-55.5 -11.5q-107 0 -116 103l32.5 4l32.5 4q3 -56 51 -56q19 0 29.5 9t15.5 23t6 30t1 30t-1 28.5t-6 26t-15 19t-28 7.5q-32 0 -49 -28h-57v222h215v-55h-156v-100h1q30 16 61 16z" />
    <glyph glyph-name="six.denominator" unicode="&#xe2fa;" horiz-adv-x="279" 
d="M138 -4q-56 0 -85 28.5t-29 94.5q0 33 6 58.5t15 43.5l99 195h69l-87 -175q13 4 29 4q29 0 48 -9.5t30.5 -26t16 -37.5t4.5 -45q0 -66 -31.5 -98.5t-84.5 -32.5zM141 194q-17 0 -27 -6.5t-15.5 -17t-7.5 -23.5t-2 -26q0 -14 1.5 -27t6.5 -23t14.5 -15.5t26.5 -5.5
q29 0 40 20t11 46q0 12 -1 26t-5.5 25t-14.5 19t-27 8z" />
    <glyph glyph-name="seven.denominator" unicode="&#xe2fb;" horiz-adv-x="254" 
d="M106 0h-65l133 360h-98v-55h-62v112h229v-52z" />
    <glyph glyph-name="eight.denominator" unicode="&#xe2fc;" horiz-adv-x="281" 
d="M257 117q0 -34 -10 -57t-26.5 -37.5t-37.5 -20.5t-43 -6q-23 0 -44.5 6t-37.5 20.5t-25.5 37.5t-9.5 57q0 79 45 99q-23 10 -31.5 33t-8.5 54q0 60 33.5 87.5t78.5 27.5q47 0 79.5 -27.5t32.5 -87.5q0 -31 -8.5 -52.5t-31.5 -34.5q24 -12 34.5 -38t10.5 -61zM140 191
q-25 0 -40 -17.5t-15 -52.5q0 -40 16 -56t39 -16q29 0 41.5 18.5t12.5 54.5q0 69 -54 69zM140 363q-26 0 -38.5 -17t-12.5 -46q0 -60 51 -60q26 0 38.5 16.5t12.5 46.5q0 27 -12 43.5t-39 16.5z" />
    <glyph glyph-name="nine.denominator" unicode="&#xe2fd;" horiz-adv-x="277" 
d="M140 420q56 0 85 -28.5t29 -94.5q0 -33 -6 -58.5t-15 -43.5l-99 -195h-69l87 175q-13 -4 -29 -4q-29 0 -48 9.5t-30.5 26t-16 37.5t-4.5 45q0 66 31.5 98.5t84.5 32.5zM137 222q16 0 26.5 6.5t16 17t7.5 23.5t2 26q0 14 -1.5 27t-6.5 22.5t-14.5 15.5t-26.5 6
q-29 0 -40 -20t-11 -46q0 -12 1 -26t5.5 -25t14.5 -19t27 -8z" />
    <glyph glyph-name="parenleft.denominator" unicode="&#xe2fe;" horiz-adv-x="163" 
d="M130 -70q-43 49 -75 113.5t-32 139.5q0 76 31.5 139t74.5 111l37 -18q-36 -51 -57.5 -111t-21.5 -118q0 -63 21.5 -123.5t56.5 -108.5z" />
    <glyph glyph-name="parenright.denominator" unicode="&#xe2ff;" horiz-adv-x="163" 
d="M10 -46q35 48 57 108.5t22 123.5q0 57 -21 117.5t-58 111.5l36 18q44 -48 75.5 -111t31.5 -139q0 -37 -8.5 -72t-23.5 -67t-34.5 -60.5t-41.5 -53.5z" />
    <glyph glyph-name="comma.denominator" unicode="&#xe300;" horiz-adv-x="145" 
d="M72 -66h-43l18 66h-14v72h73v-66z" />
    <glyph glyph-name="period.denominator" unicode="&#xe301;" horiz-adv-x="142" 
d="M34 0v70h73v-70h-73z" />
    <glyph glyph-name="afii61352" unicode="&#x2116;" horiz-adv-x="788" 
d="M515 270v58h227v-58h-227zM374 0l-168 366l-62 139h-3v-505h-84v696h81l167 -361l62 -143l4 1v503h83v-696h-80zM629 702q41 0 66.5 -15.5t39.5 -40.5q17 -30 17 -109q0 -40 -3.5 -68t-14.5 -47q-17 -29 -46.5 -42.5t-63.5 -13.5q-45 0 -74 18.5t-40 50.5q-6 17 -8 44
t-2 53t2 50t10 44q14 37 41.5 56.5t75.5 19.5zM627 644q-32 0 -47 -23q-7 -10 -11 -36.5t-4 -58.5q0 -18 0.5 -34t5.5 -28q6 -19 19 -29.5t36 -10.5q41 0 55 37q5 11 6 31t1 46q0 24 -1.5 40t-4.5 27q-11 39 -55 39z" />
    <glyph glyph-name="estimated" unicode="&#x212e;" horiz-adv-x="817" 
d="M195 316q0 -45 0.5 -92t0.5 -92q16 -26 40 -47t52.5 -36t60.5 -23.5t64 -8.5q66 0 123 29t97 79h62q-51 -63 -125 -99.5t-158 -36.5q-72 0 -136 27t-112 73.5t-75.5 108.5t-27.5 131t27.5 129.5t75.5 105.5t112 71t136 26q74 0 137 -26t109.5 -71.5t74 -109t30.5 -138.5
h-568zM627 521q-15 25 -39 46t-52.5 35.5t-60.5 22.5t-62 8q-57 0 -114.5 -31.5t-102.5 -84.5v-40t-0.5 -47.5t-0.5 -48v-39.5h432v179z" />
    <glyph glyph-name="partialdiff" unicode="&#x2202;" horiz-adv-x="440" 
d="M102 218q0 -42 8.5 -71.5t22.5 -48.5t32 -28t38 -9q31 0 53.5 21.5t37 55.5t21 76.5t6.5 84.5q-31 49 -60.5 64.5t-58.5 15.5q-26 0 -45 -14t-31 -37t-18 -51.5t-6 -58.5zM32 216q0 52 12.5 94.5t35 71.5t52.5 45t65 16q30 0 61 -11t63 -47q0 60 -11 110t-32 86t-50.5 56
t-65.5 20q-11 0 -25.5 -2t-31.5 -8v64q33 10 64 10q61 0 104 -31.5t70 -83.5t39.5 -118.5t12.5 -136.5q0 -90 -14.5 -157.5t-41 -112.5t-62 -68t-77.5 -23q-36 0 -67 14.5t-53.5 43t-35 70.5t-12.5 98z" />
    <glyph glyph-name="product" unicode="&#x220f;" horiz-adv-x="525" 
d="M377 -83v706h-229v-706h-83v779h396v-779h-84z" />
    <glyph glyph-name="summation" unicode="&#x2211;" horiz-adv-x="408" 
d="M25 -84v72l134 322l-135 317v69h351v-76h-260l136 -310l-135 -317h271v-77h-362z" />
    <glyph glyph-name="minus" unicode="&#x2212;" horiz-adv-x="440" 
d="M19 263v62h402v-62h-402z" />
    <glyph glyph-name="radical" unicode="&#x221a;" horiz-adv-x="450" 
d="M279 -81h-62l-126 411q-13 -5 -27.5 -12t-27.5 -12l-18 60l117 48l109 -359l68 370.5l68 371.5h67z" />
    <glyph glyph-name="infinity" unicode="&#x221e;" horiz-adv-x="582" 
d="M148 420q23 0 44 -8.5t39 -22t33.5 -32t26.5 -37.5q29 45 63.5 72.5t84.5 27.5q54 0 89.5 -39.5t35.5 -108.5q0 -32 -10 -59t-28 -46.5t-42 -31t-52 -11.5q-22 0 -41.5 8.5t-37.5 22.5t-33.5 31.5t-28.5 36.5q-30 -41 -65.5 -70t-84.5 -29q-26 0 -49 10t-40 29.5
t-27 46.5t-10 62q0 31 10.5 58.5t28.5 47t42.5 31t51.5 11.5zM148 356q-29 0 -51 -23.5t-22 -60.5q0 -39 21 -62t50 -23q32 0 60 23.5t46 60.5q-8 15 -19.5 30.5t-25 27.5t-28.5 19.5t-31 7.5zM436 356q-32 0 -58.5 -23t-50.5 -61q24 -35 49 -60t57 -25q29 0 50.5 24
t21.5 61q0 39 -21 61.5t-48 22.5z" />
    <glyph glyph-name="logicaland" unicode="&#x2227;" horiz-adv-x="440" 
d="M399 0h-66l-120 403l-121 -403h-65l157 524h58z" />
    <glyph glyph-name="logicalor" unicode="&#x2228;" horiz-adv-x="440" 
d="M399 524l-157 -524h-58l-157 524h65l121 -405l120 405h66z" />
    <glyph glyph-name="intersection" unicode="&#x2229;" horiz-adv-x="440" 
d="M397 0h-65v314q0 27 -8 52.5t-24 45.5t-38.5 32t-50.5 12t-50 -11t-37.5 -30.5t-23.5 -45t-8 -55.5v-314h-62v314q0 42 12 79.5t35 66.5t56.5 46t77.5 17q43 0 77.5 -15.5t58.5 -43.5t37 -66.5t13 -83.5v-314z" />
    <glyph glyph-name="union" unicode="&#x222a;" horiz-adv-x="440" 
d="M397 208q0 -45 -13 -83t-37 -66t-58.5 -43.5t-77.5 -15.5q-44 0 -77.5 17t-56.5 45.5t-35 66.5t-12 79v315h62v-315q0 -29 8 -54.5t23.5 -44.5t37.5 -30t50 -11t50.5 12t38.5 31.5t24 45t8 51.5v315h65v-315z" />
    <glyph glyph-name="integral" unicode="&#x222b;" horiz-adv-x="316" 
d="M117 79q3 62 4.5 157l3.5 215q0 37 2 72t5 67q8 94 42 138.5t99 44.5q14 0 33 -3t35 -8q-3 -14 -7 -29t-7 -29q-27 6 -44 6q-21 0 -35.5 -8t-24.5 -27t-15.5 -51t-8.5 -80q-2 -30 -2.5 -73t-0.5 -90.5t-1 -96t-2 -90.5q-2 -44 -3.5 -84.5t-5.5 -76.5q-11 -98 -47 -140.5
t-102 -42.5q-14 0 -30 2.5t-32 7.5q3 14 7 29t7 29q15 -3 24 -4t17 -1q21 0 36.5 7t26 26t17 51t9.5 82z" />
    <glyph glyph-name="approxequal" unicode="&#x2248;" horiz-adv-x="440" 
d="M422 393q-23 -38 -50.5 -62t-68.5 -24q-19 0 -40 9t-43 19.5t-43.5 19.5t-42.5 9q-23 0 -35.5 -11t-32.5 -34l-49 34q22 38 51.5 59.5t66.5 21.5q24 0 45.5 -8.5t42.5 -19t41 -19t40 -8.5q22 0 35 12.5t32 36.5zM422 245q-23 -38 -50.5 -62t-68.5 -24q-19 0 -40 9
t-43 19.5t-43.5 19.5t-42.5 9q-23 0 -35.5 -11t-32.5 -34l-49 34q22 38 51.5 59.5t66.5 21.5q24 0 45.5 -8.5t42.5 -19t41 -19t40 -8.5q22 0 35 12.5t32 36.5z" />
    <glyph glyph-name="notequal" unicode="&#x2260;" horiz-adv-x="440" 
d="M32 57l66 120h-78v65h114l59 108h-173v65h209l74 133h66l-74 -133h127v-65h-163l-60 -108h223v-65h-259l-67 -122z" />
    <glyph glyph-name="lessequal" unicode="&#x2264;" horiz-adv-x="440" 
d="M418 100l-396 165v60l396 167v-75l-319 -122q36 -15 77 -30l83 -30.5l83 -30.5t76 -30v-74zM22 1v66h397v-66h-397z" />
    <glyph glyph-name="greaterequal" unicode="&#x2265;" horiz-adv-x="440" 
d="M24 174q35 15 76 30l83 30.5l83 30.5t77 30l-319 122v75l396 -167v-60l-396 -165v74zM23 1v66h397v-66h-397z" />
    <glyph glyph-name="gradient" unicode="&#x2207;" horiz-adv-x="497" 
d="M488 696l-202 -696h-75l-202 696h479zM114 621l43.5 -154.5l45.5 -163.5l25.5 -102.5t18.5 -65.5h2q2 10 12 45.5l23 84.5l28.5 105l29.5 106.5l24.5 90l14.5 54.5h-267z" />
    <glyph glyph-name="fraction" unicode="&#x2044;" horiz-adv-x="138" 
d="M-100 -17h-56l369 731h57z" />
    <glyph glyph-name="fraction" unicode="&#x2215;" horiz-adv-x="138" 
d="M-100 -17h-56l369 731h57z" />
    <glyph glyph-name="slashedzero" unicode="&#xe23f;" horiz-adv-x="440" 
d="M388 159q0 -40 -14 -71t-37 -52t-53.5 -31.5t-63.5 -10.5t-63 10.5t-53.5 31.5t-37 52t-13.5 71v377q0 40 13.5 71t37 52t53.5 32t63 11t63.5 -11t53.5 -32t37 -52t14 -71v-377zM133 218l174 316v2q0 42 -24 65t-63 23t-63 -23t-24 -65v-318zM307 440l-171 -309
q8 -29 30 -44t54 -15q39 0 63 22.5t24 64.5v281z" />
    <glyph glyph-name="Scommaaccent" unicode="&#x218;" horiz-adv-x="477" 
d="M444 190q0 -91 -54.5 -144t-152.5 -53q-81 0 -135 33t-80 90l74 43q20 -35 54 -60t88 -25q64 0 92 33t28 83q0 28 -8.5 47.5t-24.5 33.5t-39 24.5t-51 19.5q-52 16 -88.5 33.5t-59.5 40.5t-33.5 52.5t-10.5 69.5q0 42 14 77t40.5 60.5t63.5 39.5t83 14q77 0 124 -27.5
t70 -69.5l-71 -49q-20 35 -50 50.5t-77 15.5q-58 0 -85 -32t-27 -79q0 -27 12 -46t33 -32.5t49 -24t61 -20.5q45 -14 76 -32t49.5 -42t27 -54.5t8.5 -69.5zM225 -254h-47l31 89h-28v103h95v-101z" />
    <glyph glyph-name="scommaaccent" unicode="&#x219;" horiz-adv-x="405" 
d="M93 136q16 -32 42.5 -50t66.5 -18q42 0 65.5 17.5t23.5 56.5q0 19 -7 31t-19.5 20t-29.5 13.5l-37 11.5q-36 9 -65 20.5t-50 28t-32 39t-11 54.5q0 66 43 103.5t118 37.5q67 0 104.5 -25t54.5 -70l-63 -39q-29 60 -97 60q-45 0 -62.5 -20.5t-17.5 -46.5q0 -17 9 -28
t24.5 -18.5t36 -13.5l42.5 -12q35 -8 61 -19.5t43.5 -29t26 -41.5t8.5 -58q0 -67 -45 -107t-126 -40q-64 0 -107 27t-66 78zM186 -254h-47l31 89h-28v103h95v-101z" />
    <glyph glyph-name="primemod" unicode="&#x2b9;" horiz-adv-x="250" 
d="M239 670l-138 -266l-54 18l99 272z" />
    <glyph glyph-name="schwacyrillic" unicode="&#x4d9;" horiz-adv-x="419" 
d="M46 407q20 44 62.5 69.5t92.5 25.5q94 0 137 -58.5t43 -194.5q0 -47 -7.5 -92.5t-27 -81.5t-53.5 -58t-87 -22q-84 0 -128.5 53.5t-44.5 147.5v77h267q0 33 -4 61.5t-15 49.5t-31 33t-52 12q-27 0 -49.5 -17t-36.5 -40zM113 208q0 -68 23.5 -102.5t68.5 -34.5
q52 0 71.5 37t21.5 100h-185z" />
    <glyph glyph-name="Wgrave" unicode="&#x1e80;" horiz-adv-x="702" 
d="M545 0h-74l-78 338l-41 191h-3l-40 -187l-78 -342h-74l-138 696h87l58 -319l32 -198h3l42 195l75 322h71l75 -323l42 -194h3l31 194l57 323h88zM423 753l-170 103l59 61l148 -122z" />
    <glyph glyph-name="schwa" unicode="&#x259;" horiz-adv-x="419" 
d="M46 407q20 44 62.5 69.5t92.5 25.5q94 0 137 -58.5t43 -194.5q0 -47 -7.5 -92.5t-27 -81.5t-53.5 -58t-87 -22q-84 0 -128.5 53.5t-44.5 147.5v77h267q0 33 -4 61.5t-15 49.5t-31 33t-52 12q-27 0 -49.5 -17t-36.5 -40zM113 208q0 -68 23.5 -102.5t68.5 -34.5
q52 0 71.5 37t21.5 100h-185z" />
    <glyph glyph-name="wgrave" unicode="&#x1e81;" horiz-adv-x="634" 
d="M490 0h-79l-32.5 119.5t-31.5 120.5l-31 115h-2l-16 -64.5l-16 -63.5l-60 -227h-80l-134 495h86l32.5 -131l31.5 -131l24 -102h4l25 101l33 130.5l34 132.5h79l32.5 -128l31.5 -128l27 -113h4l25 108l30.5 130.5l30.5 130.5h87zM310 553l-98 167l76 25l70 -173z" />
    <glyph glyph-name="Wacute" unicode="&#x1e82;" horiz-adv-x="702" 
d="M545 0h-74l-78 338l-41 191h-3l-40 -187l-78 -342h-74l-138 696h87l58 -319l32 -198h3l42 195l75 322h71l75 -323l42 -194h3l31 194l57 323h88zM292 766l145 118l54 -59l-166 -98z" />
    <glyph glyph-name="wacute" unicode="&#x1e83;" horiz-adv-x="634" 
d="M490 0h-79l-32.5 119.5t-31.5 120.5l-31 115h-2l-16 -64.5l-16 -63.5l-60 -227h-80l-134 495h86l32.5 -131l31.5 -131l24 -102h4l25 101l33 130.5l34 132.5h79l32.5 -128l31.5 -128l27 -113h4l25 108l30.5 130.5l30.5 130.5h87zM288 572l70 173l76 -25l-98 -167z" />
    <glyph glyph-name="Wdieresis" unicode="&#x1e84;" horiz-adv-x="702" 
d="M545 0h-74l-78 338l-41 191h-3l-40 -187l-78 -342h-74l-138 696h87l58 -319l32 -198h3l42 195l75 322h71l75 -323l42 -194h3l31 194l57 323h88zM388 748v84h78v-84h-78zM221 748v84h79v-84h-79z" />
    <glyph glyph-name="wdieresis" unicode="&#x1e85;" horiz-adv-x="634" 
d="M490 0h-79l-32.5 119.5t-31.5 120.5l-31 115h-2l-16 -64.5l-16 -63.5l-60 -227h-80l-134 495h86l32.5 -131l31.5 -131l24 -102h4l25 101l33 130.5l34 132.5h79l32.5 -128l31.5 -128l27 -113h4l25 108l30.5 130.5l30.5 130.5h87zM193 594v84h79v-84h-79zM360 594v84h78
v-84h-78z" />
    <glyph glyph-name="Ygrave" unicode="&#x1ef2;" horiz-adv-x="442" 
d="M223 386l51 134l72 176h87l-172 -406v-290h-81v290l-173 406h88l37 -90l37 -90q12 -30 24.5 -65l23.5 -65h6zM261 738l-170 103l59 61l148 -122z" />
    <glyph glyph-name="ygrave" unicode="&#x1ef3;" horiz-adv-x="387" 
d="M206 -99q-16 -53 -49 -78t-80 -25h-26v70h24q47 0 64 71l21 73l-159 483h86l61 -198l47 -167h3l44 167l58 198h84zM177 553l-98 167l76 25l70 -173z" />
    <glyph glyph-name="trianglebullet" unicode="&#x2023;" horiz-adv-x="506" 
d="M474 277l-393 -211v411z" />
    <glyph glyph-name="published" unicode="&#x2117;" horiz-adv-x="753" 
d="M402 543q61 0 94 -32t33 -98q0 -25 -6.5 -48.5t-21.5 -41.5t-39 -29t-58 -11h-69v-168h-61v428h128zM335 340h66q39 0 53 22.5t14 50.5q0 34 -15.5 54.5t-51.5 20.5h-66v-148zM376 -8q-75 0 -135 26.5t-102.5 73.5t-65 110.5t-22.5 138.5t23 139.5t65.5 111.5t102.5 73.5
t134 26.5q73 0 133.5 -26.5t103 -73.5t66 -111.5t23.5 -139.5t-23.5 -138.5t-66 -110.5t-103 -73.5t-133.5 -26.5zM376 637q-62 0 -111 -23t-83 -63t-52.5 -94t-18.5 -116t19 -115t53.5 -93t83.5 -62.5t109 -22.5q61 0 110.5 22.5t83.5 62.5t52.5 93t18.5 115t-18.5 116
t-53 94t-83.5 63t-110 23z" />
    <glyph glyph-name="Ohm" unicode="&#x2126;" horiz-adv-x="497" 
d="M291 93q37 13 57 46t20 81v270q0 58 -32 94.5t-88 36.5q-59 0 -90 -38t-31 -93v-270q0 -44 20.5 -78.5t58.5 -48.5l-1 -93h-172v78h71q-34 22 -47 64t-13 87v262q0 46 14.5 84.5t41.5 66.5t64.5 44t83.5 16q43 0 80.5 -15t65 -42.5t43 -66.5t15.5 -87v-262
q0 -48 -13.5 -87t-46.5 -64h71v-78h-172v93v0z" />
    <glyph glyph-name="angstrom" unicode="&#x212b;" horiz-adv-x="496" 
d="M403 0l-44 158h-222l-43 -158h-85l202 696h75l203 -696h-86zM289 413l-39 154h-4l-39 -153l-51 -181h184zM245 709q-38 0 -63.5 24.5t-25.5 59.5q0 18 7 33.5t19 27t28 18.5t35 7q17 0 32.5 -7t27 -18.5t18.5 -27t7 -33.5q0 -35 -25 -59.5t-60 -24.5zM245 838
q-20 0 -33.5 -13t-13.5 -32q0 -18 13.5 -30.5t33.5 -12.5q18 0 31 12.5t13 30.5q0 19 -13 32t-31 13z" />
    <glyph glyph-name="centigrade" unicode="&#x2103;" horiz-adv-x="741" 
d="M724 129q-18 -66 -69.5 -100.5t-123.5 -34.5q-47 0 -85 15.5t-64 43t-40 65.5t-14 84v292q0 44 13.5 82t39.5 65.5t64 43.5t86 16q71 0 122.5 -35t70.5 -98l-79 -31q-10 38 -38.5 61t-75.5 23q-29 0 -51.5 -10.5t-37.5 -27.5t-23 -40t-8 -47v-296q0 -25 8 -48t23 -40.5
t37.5 -28t51.5 -10.5q45 0 74.5 23t39.5 62zM273 584q0 -24 -9.5 -45.5t-25.5 -37.5t-37.5 -25t-45.5 -9t-45.5 9t-37.5 25t-25 37.5t-9 45.5t9 45.5t25 37.5t37.5 25t45.5 9t45.5 -9t37.5 -25t25.5 -37.5t9.5 -45.5zM223 584q0 29 -19.5 48.5t-48.5 19.5q-28 0 -48 -19.5
t-20 -48.5t20 -49t48 -20q29 0 48.5 20t19.5 49z" />
    <glyph glyph-name="afii61248" unicode="&#x2105;" horiz-adv-x="667" 
d="M501 353q72 0 98.5 -46.5t26.5 -134.5q0 -93 -34.5 -135.5t-97.5 -42.5q-38 0 -62 12.5t-37.5 35.5t-19 55.5t-5.5 73.5q0 42 6.5 75.5t21.5 57.5t40 36.5t63 12.5zM178 704q45 0 74 -21.5t40 -59.5q-14 -8 -30.5 -15t-30.5 -15q-7 23 -21.5 34.5t-31.5 11.5t-29.5 -5.5
t-20.5 -19.5t-12.5 -38t-4.5 -60q0 -50 14 -78.5t53 -28.5q20 0 33 12.5t20 32.5l58 -30q-14 -40 -41.5 -60t-72.5 -20q-71 0 -101.5 45.5t-30.5 131.5q0 97 34 140t101 43zM545 713l-184.5 -365l-185.5 -365h-56l185 365l185 365h56zM500 289q-34 0 -48 -27.5t-14 -96.5
q0 -22 1.5 -41.5t7.5 -34.5t18 -23.5t32 -8.5q36 0 48.5 28.5t12.5 91.5q0 57 -13 84.5t-45 27.5z" />
    <glyph glyph-name="fahrenheit" unicode="&#x2109;" horiz-adv-x="717" 
d="M420 618v-231h245v-75h-245v-312h-83v696h369v-78h-286zM271 584q0 -24 -9.5 -45.5t-25.5 -37.5t-37.5 -25t-45.5 -9t-45.5 9t-37.5 25t-25 37.5t-9 45.5t9 45.5t25 37.5t37.5 25t45.5 9t45.5 -9t37.5 -25t25.5 -37.5t9.5 -45.5zM221 584q0 29 -19.5 48.5t-48.5 19.5
q-28 0 -48 -19.5t-20 -48.5t20 -49t48 -20q29 0 48.5 20t19.5 49z" />
    <glyph glyph-name="afii61289" unicode="&#x2113;" horiz-adv-x="405" 
d="M374 140q-10 -28 -24 -55t-32.5 -48t-41.5 -34t-52 -13t-52.5 12.5t-41 34t-27 51.5t-9.5 65v54q-2 -2 -9 -7.5l-14.5 -11.5l-14 -11t-7.5 -7l-25 37l69 61v253q0 52 9.5 88.5t26.5 59t40 32.5t50 10q43 0 70.5 -31.5t27.5 -95.5q0 -41 -10 -81t-30.5 -80.5t-50.5 -83
t-70 -88.5v-56q0 -38 6.5 -65t17.5 -43.5t24 -24t27 -7.5q27 0 49.5 25t41.5 79zM156 329q52 72 78.5 134t26.5 123q0 10 -2 21.5t-7 22t-14 17.5t-23 7q-21 0 -40 -28.5t-19 -94.5v-202z" />
    <glyph glyph-name="ampersandsmall" unicode="&#xe0fb;" horiz-adv-x="493" 
d="M345 46q-32 -27 -68.5 -38.5t-74.5 -11.5q-71 0 -112 38.5t-41 96.5q0 47 26 83t76 70l-24 28q-15 20 -24 43t-9 48q0 51 36.5 86.5t106.5 35.5q34 0 73.5 -11.5t69.5 -45.5l-60 -49q-20 20 -40 27.5t-43 7.5q-35 0 -49 -15.5t-14 -34.5q0 -17 14 -38t37 -51l123 -152
q10 19 15 38t10 40l78 -5q-6 -35 -18.5 -70.5t-32.5 -64.5l43.5 -51l42.5 -50h-102zM213 68q24 0 48 9t39 23l-105 128q-32 -22 -48.5 -45t-16.5 -49q0 -28 21 -47t62 -19z" />
    <glyph glyph-name="exclamsmall" unicode="&#xe0fc;" horiz-adv-x="213" 
d="M140 127h-67l-7 393h81zM65 -1v83h85v-83h-85z" />
    <glyph glyph-name="questionsmall" unicode="&#xe0fd;" horiz-adv-x="390" 
d="M364 387q-2 -34 -13.5 -58.5t-33.5 -50.5q-11 -13 -23 -25.5t-22 -24.5t-16.5 -23.5t-6.5 -23.5v-51h-84v46q0 54 33 88l56.5 64t22.5 55q0 11 -3 22.5t-11.5 21t-24 15.5t-40.5 6q-21 0 -35.5 -7t-24.5 -18t-15 -25t-6 -29l-82 12q8 72 54.5 107t112.5 35q78 0 120 -37
t42 -99zM163 0v83h85v-83h-85z" />
    <glyph glyph-name="Asmall" unicode="&#xe0fe;" horiz-adv-x="423" 
d="M334 0l-36 113h-174l-36 -113h-82l171 520h68l173 -520h-84zM208 401l-36 -122l-28 -93h133l-28 92l-37 123h-4z" />
    <glyph glyph-name="Bsmall" unicode="&#xe0ff;" horiz-adv-x="428" 
d="M394 153q0 -75 -43.5 -114t-118.5 -39h-179v520h174q82 0 120 -38t38 -103q0 -33 -12.5 -60t-45.5 -47q36 -15 51.5 -48t15.5 -71zM134 233v-158h91q26 0 43 7t27.5 18t14.5 26t4 32q0 31 -19.5 53t-66.5 22h-94zM134 447v-142h84q46 0 66.5 21t20.5 50q0 32 -21 51.5
t-68 19.5h-82z" />
    <glyph glyph-name="Csmall" unicode="&#xe100;" horiz-adv-x="392" 
d="M378 123q-13 -60 -54 -94t-113 -34q-45 0 -77 14.5t-53 38.5t-30.5 56t-9.5 67v168q0 33 9 66.5t29 59.5t53 42.5t80 16.5q72 0 111.5 -31.5t53.5 -90.5l-75 -29q-8 33 -29.5 54.5t-59.5 21.5q-26 0 -44 -10.5t-28.5 -26.5t-15 -35.5t-4.5 -36.5v-167q0 -18 5 -36.5
t16 -33t28 -24t42 -9.5q37 0 59 20t30 57z" />
    <glyph glyph-name="Dsmall" unicode="&#xe101;" horiz-adv-x="440" 
d="M219 520q63 0 104.5 -21.5t61.5 -70.5q11 -26 12.5 -65t1.5 -87q0 -38 -0.5 -66t-2 -49t-4.5 -37t-8 -29q-23 -55 -69.5 -75t-105.5 -20h-156v520h166zM317 342q0 54 -26.5 78.5t-78.5 24.5h-78v-370h78q58 0 81.5 28.5t23.5 74.5v164z" />
    <glyph glyph-name="Esmall" unicode="&#xe102;" horiz-adv-x="384" 
d="M53 0v520h314v-75h-233v-145h201v-74h-201v-151h233v-75h-314z" />
    <glyph glyph-name="Fsmall" unicode="&#xe103;" horiz-adv-x="376" 
d="M134 445v-147h201v-74h-201v-224h-81v520h314v-75h-233z" />
    <glyph glyph-name="Gsmall" unicode="&#xe104;" horiz-adv-x="428" 
d="M213 67q24 0 41.5 9t29 23.5t17 32.5t5.5 37v47h-93v73h174v-113q0 -88 -47.5 -135t-125.5 -47q-48 0 -81 14.5t-53.5 39t-30 56.5t-9.5 67v168q0 34 9 67t30 59t54 42.5t81 16.5q71 0 111 -34t53 -91l-78 -24q-6 33 -27.5 53.5t-59.5 20.5q-26 0 -44 -11t-28.5 -27.5
t-15 -36t-4.5 -36.5v-168q0 -21 5 -39.5t16 -32.5t28.5 -22.5t42.5 -8.5z" />
    <glyph glyph-name="Hsmall" unicode="&#xe105;" horiz-adv-x="448" 
d="M314 0v228h-180v-228h-81v520h81v-220h180v220h81v-520h-81z" />
    <glyph glyph-name="Ismall" unicode="&#xe106;" horiz-adv-x="184" 
d="M51 0v520h82v-520h-82z" />
    <glyph glyph-name="Jsmall" unicode="&#xe107;" horiz-adv-x="343" 
d="M288 151q0 -42 -12 -71.5t-33 -48t-51 -27t-66 -8.5q-41 0 -74.5 15.5t-58.5 47.5l60 51q12 -14 33.5 -26.5t41.5 -12.5q38 0 59 20t21 60v369h80v-369z" />
    <glyph glyph-name="Ksmall" unicode="&#xe108;" horiz-adv-x="440" 
d="M346 0l-137 244l-74 -97v-147h-81v520h82v-252l92 125l96 127h92l-156 -211l176 -309h-90z" />
    <glyph glyph-name="Lsmall" unicode="&#xe109;" horiz-adv-x="372" 
d="M53 0v520h81v-445h226v-75h-307z" />
    <glyph glyph-name="Msmall" unicode="&#xe10a;" horiz-adv-x="556" 
d="M283 197l70 159l74 164h77v-520h-79v338h-5l-52 -118l-63 -138h-51l-58 124l-58 127h-3v-333h-80v520h77l75 -162l72 -161h4z" />
    <glyph glyph-name="Nsmall" unicode="&#xe10b;" horiz-adv-x="474" 
d="M348 0l-163 274l-52 88v-362h-80v520h75l159 -269l55 -96v365h80v-520h-74z" />
    <glyph glyph-name="Osmall" unicode="&#xe10c;" horiz-adv-x="427" 
d="M214 524q46 0 79 -14.5t54 -40t30.5 -60t9.5 -74.5v-151q0 -87 -44 -138t-130 -51q-45 0 -77.5 14t-54 38t-31.5 56.5t-10 69.5v161q0 36 9.5 70.5t30 61t53.5 42.5t81 16zM214 450q-28 0 -46 -11t-28.5 -28t-15 -37.5t-4.5 -39.5v-159q0 -19 5 -38t16 -34t28.5 -24.5
t43.5 -9.5q24 0 42 9t29 24t16.5 35.5t5.5 43.5v159q0 21 -5 40.5t-16 35t-28.5 25t-42.5 9.5z" />
    <glyph glyph-name="Psmall" unicode="&#xe10d;" horiz-adv-x="409" 
d="M395 360q0 -31 -9.5 -59.5t-30 -50.5t-53.5 -35.5t-79 -13.5h-89v-201h-81v520h170q84 0 128 -39.5t44 -120.5zM313 361q0 38 -20.5 61t-71.5 23h-87v-168h88q27 0 45 7t28 19t14 27t4 31z" />
    <glyph glyph-name="Qsmall" unicode="&#xe10e;" horiz-adv-x="433" 
d="M214 524q46 0 79 -14t54 -39.5t30.5 -60.5t9.5 -76v-148q0 -60 -19 -101l13 -10t19 -14l19 -13.5l13 -9.5l-40 -55l-64 47q-21 -17 -50.5 -26t-64.5 -9q-45 0 -77.5 14t-53.5 38t-31 57t-10 71v158q0 37 9 71.5t29.5 61t53.5 42.5t81 16zM214 449q-27 0 -45 -11.5
t-28.5 -29.5t-15 -39.5t-4.5 -40.5v-150q0 -19 5 -38t16 -34.5t28.5 -25.5t43.5 -10t46 11q-15 10 -31 22l-30 22l42 54l59 -44q7 21 7 50v154q0 20 -5 40t-16 35.5t-29 25t-43 9.5z" />
    <glyph glyph-name="Rsmall" unicode="&#xe10f;" horiz-adv-x="428" 
d="M317 0l-94 220h-89v-220h-80v520h191q71 0 110.5 -38.5t39.5 -110.5q0 -48 -22 -85t-70 -55q8 -14 22 -46.5l29 -69l29 -69t22 -46.5h-88zM313 371q0 37 -20 56.5t-65 19.5h-94v-154h95q45 0 64.5 21t19.5 57z" />
    <glyph glyph-name="Ssmall" unicode="&#xe110;" horiz-adv-x="403" 
d="M374 147q0 -71 -43 -111t-130 -40q-69 0 -112 26t-67 72l63 42q17 -26 45.5 -45t70.5 -19q51 0 72 22t21 52q0 36 -25 52t-72 28q-89 22 -126 57t-37 94q0 65 43.5 106t125.5 41q33 0 59 -7t46.5 -19t35 -28t24.5 -34l-61 -46q-18 28 -44 42.5t-64 14.5q-41 0 -61 -20
t-20 -50q0 -16 7.5 -27t22 -19.5t35.5 -16t48 -15.5q77 -20 110.5 -54.5t32.5 -97.5z" />
    <glyph glyph-name="Tsmall" unicode="&#xe111;" horiz-adv-x="344" 
d="M212 447v-447h-80v447h-130v73h340v-73h-130z" />
    <glyph glyph-name="Usmall" unicode="&#xe112;" horiz-adv-x="438" 
d="M393 520v-343q0 -40 -10.5 -73.5t-32 -57.5t-54 -37.5t-76.5 -13.5q-48 0 -81 14.5t-53.5 38.5t-30 55.5t-9.5 65.5v351h80v-346q0 -16 4.5 -34.5t15.5 -34t28.5 -25.5t44.5 -10q25 0 42.5 9t29 23.5t16.5 33t5 38.5v346h81z" />
    <glyph glyph-name="Vsmall" unicode="&#xe113;" horiz-adv-x="402" 
d="M203 136l6.5 28.5t10 41t10 41l6.5 28.5l68 245h86l-154 -520h-73l-152 520h84l69 -247q2 -9 7 -28.5l10 -40.5t10 -40t7 -28h5z" />
    <glyph glyph-name="Wsmall" unicode="&#xe114;" horiz-adv-x="593" 
d="M292 369q-2 -7 -6.5 -25l-9.5 -38.5l-9.5 -38.5t-5.5 -25l-59 -242h-70l-117 520h85l46 -229q1 -8 4.5 -26t8 -39t8 -39.5t4.5 -25.5l2 -1l32 135l57 225h68l58 -228q1 -8 5.5 -27.5t10 -41t10 -41.5t6.5 -27h3l25 138l42 227h86l-118 -520h-69l-60 238l-33 131h-4z" />
    <glyph glyph-name="Xsmall" unicode="&#xe115;" horiz-adv-x="382" 
d="M294 0l-103 207q-5 -12 -19.5 -41.5l-31.5 -62l-31.5 -62t-19.5 -41.5h-88l144 268l-15 30t-23.5 44.5l-28.5 52l-28.5 52l-24 44t-14.5 29.5h88l92 -189q4 11 17.5 38l29 57l28.5 56.5t18 37.5h87l-133 -252q5 -11 16 -32l25.5 -47l30.5 -55l30.5 -55l25.5 -47.5
l16 -31.5h-88z" />
    <glyph glyph-name="Ysmall" unicode="&#xe116;" horiz-adv-x="382" 
d="M193 297l57 127l41 96h82l-144 -307v-213h-78v213l-143 307h85l42 -97l55 -126h3z" />
    <glyph glyph-name="Zsmall" unicode="&#xe117;" horiz-adv-x="348" 
d="M21 0v66l215 381h-205v73h297v-63l-215 -382h214v-75h-306z" />
    <glyph glyph-name="Scaronsmall" unicode="&#xe118;" horiz-adv-x="403" 
d="M374 147q0 -71 -43 -111t-130 -40q-69 0 -112 26t-67 72l63 42q17 -26 45.5 -45t70.5 -19q51 0 72 22t21 52q0 36 -25 52t-72 28q-89 22 -126 57t-37 94q0 65 43.5 106t125.5 41q33 0 59 -7t46.5 -19t35 -28t24.5 -34l-61 -46q-18 28 -44 42.5t-64 14.5q-41 0 -61 -20
t-20 -50q0 -16 7.5 -27t22 -19.5t35.5 -16t48 -15.5q77 -20 110.5 -54.5t32.5 -97.5zM323 732l37 -35l-133 -144h-50l-141 146l37 33l125 -100z" />
    <glyph glyph-name="OEsmall" unicode="&#xe119;" horiz-adv-x="618" 
d="M276 0q-25 -5 -52 -5q-48 0 -82.5 12.5t-57 34.5t-33 52t-10.5 64v194q0 33 9.5 64t31 55t56.5 38.5t86 14.5q13 0 25.5 -1t23.5 -3h324v-74h-249v-146h214v-73h-214v-154h249v-73h-321zM224 69q26 0 40 7v367q-8 3 -18 5t-22 2q-29 0 -48.5 -9.5t-30.5 -24.5t-15.5 -33
t-4.5 -34v-189q0 -16 5 -32.5t17 -29.5t31 -21t46 -8z" />
    <glyph glyph-name="Zcaronsmall" unicode="&#xe11a;" horiz-adv-x="348" 
d="M21 0v66l215 381h-205v73h297v-63l-215 -382h214v-75h-306zM307 732l37 -35l-133 -144h-50l-141 146l37 33l125 -100z" />
    <glyph glyph-name="Ydieresissmall" unicode="&#xe11b;" horiz-adv-x="382" 
d="M193 297l57 127l41 96h82l-144 -307v-213h-78v213l-143 307h85l42 -97l55 -126h3zM236 593v84h78v-84h-78zM69 593v84h79v-84h-79z" />
    <glyph glyph-name="Agravesmall" unicode="&#xe11c;" horiz-adv-x="423" 
d="M334 0l-36 113h-174l-36 -113h-82l171 520h68l173 -520h-84zM208 401l-36 -122l-28 -93h133l-28 92l-37 123h-4zM197 553l-98 167l76 25l70 -173z" />
    <glyph glyph-name="Aacutesmall" unicode="&#xe11d;" horiz-adv-x="423" 
d="M334 0l-36 113h-174l-36 -113h-82l171 520h68l173 -520h-84zM208 401l-36 -122l-28 -93h133l-28 92l-37 123h-4zM176 572l70 173l76 -25l-98 -167z" />
    <glyph glyph-name="Acircumflexsmall" unicode="&#xe11e;" horiz-adv-x="423" 
d="M334 0l-36 113h-174l-36 -113h-82l171 520h68l173 -520h-84zM208 401l-36 -122l-28 -93h133l-28 92l-37 123h-4zM208 653l-125 -101l-37 33l141 146h50l133 -144l-37 -34z" />
    <glyph glyph-name="Atildesmall" unicode="&#xe11f;" horiz-adv-x="423" 
d="M334 0l-36 113h-174l-36 -113h-82l171 520h68l173 -520h-84zM208 401l-36 -122l-28 -93h133l-28 92l-37 123h-4zM144 689q16 0 32 -6.5t31 -14.5t30 -14.5t29 -6.5q27 0 57 42l45 -28q-20 -41 -45.5 -61.5t-52.5 -20.5q-17 0 -33 6.5t-31.5 14l-30 14t-27.5 6.5
q-15 0 -28.5 -9t-29.5 -29l-44 25q17 34 43 58t55 24z" />
    <glyph glyph-name="Adieresissmall" unicode="&#xe120;" horiz-adv-x="423" 
d="M334 0l-36 113h-174l-36 -113h-82l171 520h68l173 -520h-84zM208 401l-36 -122l-28 -93h133l-28 92l-37 123h-4zM251 593v84h78v-84h-78zM84 593v84h79v-84h-79z" />
    <glyph glyph-name="Aringsmall" unicode="&#xe121;" horiz-adv-x="423" 
d="M334 0l-36 113h-174l-36 -113h-82l171 520h68l173 -520h-84zM208 401l-36 -122l-28 -93h133l-28 92l-37 123h-4zM211 551q-38 0 -63.5 24.5t-25.5 59.5q0 18 7 33.5t19 27t28 18.5t35 7q17 0 32.5 -7t27 -18.5t18.5 -27t7 -33.5q0 -35 -25 -59.5t-60 -24.5zM211 680
q-20 0 -33.5 -13t-13.5 -32q0 -18 13.5 -30.5t33.5 -12.5q18 0 31 12.5t13 30.5q0 19 -13 32t-31 13z" />
    <glyph glyph-name="AEsmall" unicode="&#xe122;" horiz-adv-x="716" 
d="M347 139h-174q-6 -9 -17 -28.5l-22.5 -41l-22.5 -41t-18 -28.5h-91l306 520h373v-74h-249v-146h214v-73h-214v-153h249v-74h-334v139zM215 211h132v235z" />
    <glyph glyph-name="Ccedillasmall" unicode="&#xe123;" horiz-adv-x="392" 
d="M378 123q-12 -57 -49.5 -90t-100.5 -37l-13 -43q26 -2 43 -10t27.5 -20t14.5 -25t4 -25t-5 -26t-16 -25.5t-29 -19t-43 -7.5h-14t-22.5 1.5t-26.5 5t-26 9.5l14 37q19 -9 36.5 -11t31.5 -2q17 0 30.5 10t13.5 27q0 20 -15.5 32t-48.5 10l-18 15l20 68q-38 4 -65.5 19.5
t-45 39t-26 53t-8.5 62.5v168q0 33 9 66.5t29 59.5t53 42.5t80 16.5q72 0 111.5 -31.5t53.5 -90.5l-75 -29q-8 33 -29.5 54.5t-59.5 21.5q-26 0 -44 -10.5t-28.5 -26.5t-15 -35.5t-4.5 -36.5v-167q0 -18 5 -36.5t16 -33t28 -24t42 -9.5q37 0 59 20t30 57z" />
    <glyph glyph-name="Egravesmall" unicode="&#xe124;" horiz-adv-x="384" 
d="M53 0v520h314v-75h-233v-145h201v-74h-201v-151h233v-75h-314zM205 553l-98 167l76 25l70 -173z" />
    <glyph glyph-name="Eacutesmall" unicode="&#xe125;" horiz-adv-x="384" 
d="M53 0v520h314v-75h-233v-145h201v-74h-201v-151h233v-75h-314zM161 572l70 173l76 -25l-98 -167z" />
    <glyph glyph-name="Ecircumflexsmall" unicode="&#xe126;" horiz-adv-x="384" 
d="M53 0v520h314v-75h-233v-145h201v-74h-201v-151h233v-75h-314zM205 653l-125 -101l-37 33l141 146h50l133 -144l-37 -34z" />
    <glyph glyph-name="Edieresissmall" unicode="&#xe127;" horiz-adv-x="384" 
d="M53 0v520h314v-75h-233v-145h201v-74h-201v-151h233v-75h-314zM254 593v84h78v-84h-78zM87 593v84h79v-84h-79z" />
    </font>
</defs>
</svg>
